{"glyphs":{"0":{"ha":644,"x_min":42,"x_max":603,"o":"m 324 0 q 163 50 226 0 q 71 181 100 100 q 42 358 42 263 q 49 444 42 403 q 74 546 57 485 q 100 690 100 640 q 132 840 100 775 q 215 940 164 906 q 322 975 267 975 q 434 940 382 975 q 517 841 486 906 q 549 690 549 776 q 555 628 549 660 q 572 550 561 596 q 595 450 588 493 q 603 358 603 407 q 574 183 603 264 q 483 51 546 101 q 324 0 421 0 m 176 574 q 215 359 176 443 q 324 275 254 275 q 433 360 393 275 q 472 574 472 444 q 453 690 472 633 q 401 783 435 747 q 322 819 367 819 q 246 783 279 819 q 194 690 213 747 q 176 574 176 633 z "},"1":{"ha":453,"x_min":42,"x_max":411,"o":"m 208 0 q 79 33 117 1 q 42 125 42 64 q 53 191 42 171 q 90 235 64 211 q 138 287 119 260 q 171 379 157 314 q 185 558 185 444 q 172 688 185 640 q 143 753 160 735 q 104 786 126 772 q 94 793 101 788 q 83 805 86 799 q 79 819 79 811 q 110 925 79 876 q 208 975 142 974 l 244 975 q 310 968 289 975 q 337 949 331 961 q 343 911 343 936 q 322 838 343 889 q 283 708 297 771 q 268 558 268 646 q 282 379 268 444 q 315 287 296 314 q 363 235 333 260 q 400 191 389 211 q 411 125 411 171 q 374 33 411 64 q 244 0 336 1 l 208 0 z "},"2":{"ha":672,"x_min":42,"x_max":631,"o":"m 314 0 q 133 10 188 0 q 60 47 78 19 q 42 139 42 75 q 74 323 42 246 q 151 449 106 400 q 265 554 196 497 q 365 649 333 610 q 396 742 396 689 q 374 809 396 788 q 324 831 351 831 q 292 817 299 831 q 285 764 285 804 q 261 715 285 726 q 193 704 238 704 q 138 731 151 704 q 125 819 125 758 q 185 937 125 899 q 328 975 246 975 q 551 789 551 975 q 524 674 551 724 q 458 591 496 625 q 358 515 419 557 q 262 438 292 468 q 232 367 232 407 q 263 294 232 322 q 340 267 294 267 q 406 291 385 267 q 449 360 428 315 q 472 403 461 389 q 500 418 483 418 q 569 403 542 418 q 613 341 596 389 q 631 199 631 293 q 608 65 631 104 q 522 13 585 25 q 314 0 460 0 z "},"3":{"ha":672,"x_min":42,"x_max":631,"o":"m 360 0 q 206 40 279 0 q 88 160 133 81 q 42 351 42 239 q 60 430 42 404 q 108 463 78 456 q 190 469 138 469 q 228 447 217 469 q 249 378 239 425 q 276 292 260 321 q 332 264 292 264 q 407 291 381 264 q 433 383 433 318 q 409 451 433 429 q 338 493 385 474 q 281 525 300 510 q 263 569 263 540 q 274 603 263 592 q 311 624 286 614 q 367 665 347 642 q 388 742 388 688 q 367 806 388 782 q 318 831 346 831 q 290 817 297 831 q 283 764 283 803 q 260 715 283 726 q 193 704 238 704 q 137 732 150 704 q 124 819 124 760 q 182 936 124 897 q 311 975 240 975 q 483 929 414 975 q 551 789 551 883 q 519 699 551 736 q 433 624 488 663 q 394 592 406 603 q 382 572 382 582 q 395 554 382 563 q 436 533 408 546 q 530 482 490 508 q 600 405 569 456 q 631 276 631 354 q 593 126 631 189 q 494 32 556 64 q 360 0 432 0 z "},"4":{"ha":700,"x_min":42,"x_max":658,"o":"m 492 0 q 382 25 414 0 q 350 97 350 50 q 360 151 350 122 q 396 238 371 179 l 408 264 q 419 310 419 292 q 406 325 419 325 q 344 301 392 325 q 244 260 288 275 q 153 246 201 246 q 74 266 106 246 q 42 318 42 286 q 53 376 42 344 q 89 460 65 407 q 142 590 124 535 q 161 703 161 646 q 147 784 161 746 q 111 863 133 822 q 98 890 108 869 q 88 925 88 911 q 109 963 88 951 q 185 975 131 975 q 300 951 267 975 q 333 878 333 926 q 322 826 333 851 q 286 761 310 800 q 238 672 254 710 q 221 583 221 633 q 242 498 221 535 q 296 441 263 461 q 365 421 329 421 q 441 439 410 421 q 468 507 472 457 q 453 572 464 543 q 421 642 442 600 q 396 704 396 686 q 417 742 396 731 q 492 754 438 754 l 518 754 q 592 742 571 754 q 613 704 613 731 q 602 669 613 690 q 589 642 592 649 q 553 563 567 601 q 539 482 539 525 q 558 369 539 425 q 611 239 576 314 q 647 155 635 186 q 658 97 658 124 q 626 25 658 50 q 518 0 594 0 l 492 0 z "},"5":{"ha":672,"x_min":42,"x_max":631,"o":"m 206 683 q 232 647 206 658 q 314 635 258 635 q 537 569 443 635 q 631 332 631 503 q 593 144 631 218 q 494 35 556 69 q 360 0 433 0 q 206 40 279 0 q 88 160 133 81 q 42 351 42 239 q 60 430 42 404 q 108 463 78 456 q 190 469 138 469 q 230 447 217 469 q 257 375 243 424 q 288 292 271 321 q 343 264 306 264 q 419 291 392 264 q 447 383 447 318 q 417 485 447 449 q 344 538 386 522 q 238 565 301 553 q 147 592 174 579 q 119 635 119 604 q 132 788 119 700 q 140 872 140 846 q 156 942 140 921 q 211 969 171 963 q 343 975 251 975 q 481 967 436 975 q 545 934 525 960 q 565 851 565 908 q 551 788 565 811 q 496 764 538 764 q 428 775 451 764 q 406 824 406 786 q 399 842 406 836 q 371 849 392 849 q 256 815 307 849 q 206 683 206 781 z "},"6":{"ha":693,"x_min":42,"x_max":651,"o":"m 347 0 q 115 88 188 0 q 42 349 42 175 q 83 629 42 483 q 208 875 124 775 q 417 975 293 975 q 547 942 496 975 q 599 847 599 910 q 557 774 599 799 q 460 749 515 749 q 415 756 426 749 q 403 776 403 764 q 405 792 403 783 q 407 807 407 800 q 396 826 407 819 q 356 832 385 832 q 236 759 282 832 q 185 590 190 686 q 363 690 249 690 q 472 665 419 690 q 558 594 525 640 q 592 488 592 549 q 598 445 592 467 q 618 390 604 424 q 643 317 635 346 q 651 254 651 288 q 620 130 651 188 q 520 36 589 72 q 347 0 451 0 m 183 418 q 199 352 183 388 q 252 291 215 317 q 347 265 289 265 q 442 291 406 265 q 496 352 479 317 q 513 418 513 388 q 492 494 513 457 q 433 556 471 532 q 346 579 394 579 q 262 556 299 579 q 204 494 225 532 q 183 418 183 457 z "},"7":{"ha":636,"x_min":42,"x_max":594,"o":"m 190 0 q 108 42 138 1 q 79 139 79 83 q 112 254 79 199 q 211 394 144 310 q 319 550 282 485 q 360 689 357 615 q 337 808 358 775 q 258 840 315 840 q 211 833 228 840 q 172 813 194 826 q 149 798 160 803 q 125 793 139 793 q 64 825 86 793 q 42 911 42 857 q 69 967 42 951 q 144 983 96 983 l 222 981 q 369 975 311 975 l 482 975 q 554 969 531 975 q 586 949 578 963 q 594 911 594 935 q 580 852 594 883 q 535 772 565 821 q 455 620 483 690 q 426 456 426 550 q 433 312 426 369 q 451 199 440 254 q 464 106 464 136 q 438 25 464 50 q 335 0 411 0 l 194 0 l 190 0 z "},"8":{"ha":672,"x_min":42,"x_max":631,"o":"m 338 0 q 171 41 238 0 q 73 143 104 82 q 42 265 42 204 q 72 392 42 344 q 154 483 103 440 q 190 518 179 506 q 200 544 200 531 q 192 569 200 558 q 168 593 185 579 q 120 652 138 622 q 103 736 103 682 q 136 865 103 811 q 223 947 169 919 q 336 975 276 975 q 454 947 400 975 q 541 865 508 919 q 574 736 574 811 q 556 651 574 681 q 507 596 539 622 q 483 572 490 582 q 475 549 475 561 q 485 523 475 536 q 519 489 496 510 q 601 394 571 443 q 631 265 631 346 q 600 144 631 206 q 503 42 569 83 q 338 0 438 0 m 201 371 q 237 289 201 321 q 336 257 272 257 q 436 289 400 257 q 472 371 472 321 q 433 435 472 407 q 335 464 394 464 q 239 435 276 464 q 201 371 201 407 m 236 708 q 263 612 236 650 q 336 574 289 574 q 410 612 383 574 q 438 708 438 650 q 409 785 438 751 q 335 819 381 819 q 264 785 292 819 q 236 708 236 751 z "},"9":{"ha":661,"x_min":42,"x_max":619,"o":"m 269 0 q 110 47 178 0 q 42 181 42 94 q 72 269 42 231 q 144 326 101 307 q 226 346 188 346 q 272 335 254 346 q 289 306 289 325 q 302 246 289 264 q 357 228 315 228 q 487 315 453 228 q 521 526 521 401 q 442 431 499 464 q 318 399 385 399 q 192 438 244 399 q 139 549 139 478 q 115 633 139 578 q 94 697 101 671 q 86 753 86 724 q 152 910 86 844 q 353 975 218 975 q 556 869 493 975 q 619 549 619 764 q 594 265 619 382 q 492 74 569 147 q 269 0 415 0 m 208 660 q 226 593 208 625 q 278 540 244 561 q 354 519 311 519 q 428 540 396 519 q 478 594 460 561 q 496 660 496 626 q 482 719 496 688 q 435 772 468 750 q 353 794 403 794 q 270 772 303 794 q 223 719 238 750 q 208 660 208 688 z "}," ":{"ha":278,"x_min":0,"x_max":0,"o":""}," ":{"ha":278,"x_min":0,"x_max":0,"o":""},"A":{"ha":915,"x_min":21,"x_max":894,"o":"m 160 0 q 55 40 89 1 q 21 129 21 79 q 60 267 21 199 q 172 431 99 336 q 276 581 243 524 q 310 696 310 639 q 283 829 310 750 q 268 897 268 878 q 415 975 268 975 l 500 975 q 647 897 647 975 q 632 829 647 878 q 606 696 606 750 q 639 581 606 639 q 743 431 672 524 q 856 267 817 336 q 894 129 894 199 q 860 40 894 79 q 756 0 826 1 l 724 0 l 719 0 q 563 48 613 1 q 514 175 514 94 q 522 247 514 206 q 539 329 529 289 q 546 381 546 364 q 524 434 546 421 q 457 449 501 447 q 392 434 414 447 q 369 381 369 421 q 376 329 369 364 q 394 247 386 289 q 401 175 401 206 q 352 48 401 94 q 196 0 303 1 l 164 0 l 160 0 m 368 574 q 393 516 368 532 q 457 499 418 500 q 522 516 497 500 q 547 574 547 532 q 532 647 547 606 q 515 683 525 668 q 457 738 486 738 q 400 683 429 738 q 383 647 386 656 q 368 574 368 606 z "},"Á":{"ha":915,"x_min":21,"x_max":894,"o":"m 160 0 q 55 40 89 1 q 21 129 21 79 q 60 267 21 199 q 172 431 99 336 q 276 581 243 524 q 310 696 310 639 q 283 829 310 750 q 268 897 268 878 q 415 975 268 975 l 500 975 q 647 897 647 975 q 632 829 647 878 q 606 696 606 750 q 639 581 606 639 q 743 431 672 524 q 856 267 817 336 q 894 129 894 199 q 860 40 894 79 q 756 0 826 1 l 724 0 l 719 0 q 563 48 613 1 q 514 175 514 94 q 522 247 514 206 q 539 329 529 289 q 546 381 546 364 q 524 434 546 421 q 457 449 501 447 q 392 434 414 447 q 369 381 369 421 q 376 329 369 364 q 394 247 386 289 q 401 175 401 206 q 352 48 401 94 q 196 0 303 1 l 164 0 l 160 0 m 368 574 q 393 516 368 532 q 457 499 418 500 q 522 516 497 500 q 547 574 547 532 q 532 647 547 606 q 515 683 525 668 q 457 738 486 738 q 400 683 429 738 q 383 647 386 656 q 368 574 368 606 m 406 1024 q 389 1030 396 1024 q 382 1043 382 1036 q 387 1064 382 1056 q 404 1088 392 1072 q 449 1165 436 1122 q 482 1192 457 1192 q 510 1180 499 1192 q 522 1150 522 1168 q 501 1098 522 1128 q 451 1046 479 1068 q 406 1024 422 1024 z "},"Ă":{"ha":915,"x_min":21,"x_max":894,"o":"m 160 0 q 55 40 89 1 q 21 129 21 79 q 60 267 21 199 q 172 431 99 336 q 276 581 243 524 q 310 696 310 639 q 283 829 310 750 q 268 897 268 878 q 415 975 268 975 l 500 975 q 647 897 647 975 q 632 829 647 878 q 606 696 606 750 q 639 581 606 639 q 743 431 672 524 q 856 267 817 336 q 894 129 894 199 q 860 40 894 79 q 756 0 826 1 l 724 0 l 719 0 q 563 48 613 1 q 514 175 514 94 q 522 247 514 206 q 539 329 529 289 q 546 381 546 364 q 524 434 546 421 q 457 449 501 447 q 392 434 414 447 q 369 381 369 421 q 376 329 369 364 q 394 247 386 289 q 401 175 401 206 q 352 48 401 94 q 196 0 303 1 l 164 0 l 160 0 m 368 574 q 393 516 368 532 q 457 499 418 500 q 522 516 497 500 q 547 574 547 532 q 532 647 547 606 q 515 683 525 668 q 457 738 486 738 q 400 683 429 738 q 383 647 386 656 q 368 574 368 606 m 458 1024 q 386 1041 415 1024 q 342 1083 357 1058 q 328 1128 328 1107 q 340 1156 328 1146 q 368 1165 353 1165 q 395 1157 383 1165 q 407 1135 407 1149 q 457 1063 407 1063 q 508 1135 508 1063 q 520 1157 508 1149 q 547 1165 532 1165 q 576 1156 564 1165 q 588 1128 588 1146 q 574 1083 588 1107 q 531 1041 560 1058 q 458 1024 501 1024 z "},"Â":{"ha":915,"x_min":21,"x_max":894,"o":"m 160 0 q 55 40 89 1 q 21 129 21 79 q 60 267 21 199 q 172 431 99 336 q 276 581 243 524 q 310 696 310 639 q 283 829 310 750 q 268 897 268 878 q 415 975 268 975 l 500 975 q 647 897 647 975 q 632 829 647 878 q 606 696 606 750 q 639 581 606 639 q 743 431 672 524 q 856 267 817 336 q 894 129 894 199 q 860 40 894 79 q 756 0 826 1 l 724 0 l 719 0 q 563 48 613 1 q 514 175 514 94 q 522 247 514 206 q 539 329 529 289 q 546 381 546 364 q 524 434 546 421 q 457 449 501 447 q 392 434 414 447 q 369 381 369 421 q 376 329 369 364 q 394 247 386 289 q 401 175 401 206 q 352 48 401 94 q 196 0 303 1 l 164 0 l 160 0 m 368 574 q 393 516 368 532 q 457 499 418 500 q 522 516 497 500 q 547 574 547 532 q 532 647 547 606 q 515 683 525 668 q 457 738 486 738 q 400 683 429 738 q 383 647 386 656 q 368 574 368 606 m 536 1024 q 483 1060 497 1024 q 469 1146 469 1097 q 446 1122 457 1146 q 435 1058 435 1099 q 423 1033 435 1043 q 396 1024 411 1024 q 367 1035 379 1024 q 356 1067 356 1046 q 377 1119 356 1089 q 428 1170 399 1149 q 478 1192 457 1192 q 497 1185 489 1192 q 506 1167 506 1178 q 516 1115 506 1136 q 544 1072 526 1093 q 555 1057 550 1064 q 560 1044 560 1050 q 553 1030 560 1036 q 536 1024 547 1024 z "},"Ä":{"ha":915,"x_min":21,"x_max":894,"o":"m 160 0 q 55 40 89 1 q 21 129 21 79 q 60 267 21 199 q 172 431 99 336 q 276 581 243 524 q 310 696 310 639 q 283 829 310 750 q 268 897 268 878 q 415 975 268 975 l 500 975 q 647 897 647 975 q 632 829 647 878 q 606 696 606 750 q 639 581 606 639 q 743 431 672 524 q 856 267 817 336 q 894 129 894 199 q 860 40 894 79 q 756 0 826 1 l 724 0 l 719 0 q 563 48 613 1 q 514 175 514 94 q 522 247 514 206 q 539 329 529 289 q 546 381 546 364 q 524 434 546 421 q 457 449 501 447 q 392 434 414 447 q 369 381 369 421 q 376 329 369 364 q 394 247 386 289 q 401 175 401 206 q 352 48 401 94 q 196 0 303 1 l 164 0 l 160 0 m 368 574 q 393 516 368 532 q 457 499 418 500 q 522 516 497 500 q 547 574 547 532 q 532 647 547 606 q 515 683 525 668 q 457 738 486 738 q 400 683 429 738 q 383 647 386 656 q 368 574 368 606 m 372 1024 q 323 1044 343 1024 q 303 1093 303 1064 q 323 1142 303 1122 q 372 1163 343 1163 q 422 1142 401 1163 q 442 1093 442 1122 q 422 1044 442 1064 q 372 1024 401 1024 m 474 1093 q 494 1142 474 1122 q 543 1163 514 1163 q 592 1142 572 1163 q 613 1093 613 1122 q 592 1044 613 1064 q 543 1024 572 1024 q 494 1044 514 1024 q 474 1093 474 1064 z "},"À":{"ha":915,"x_min":21,"x_max":894,"o":"m 160 0 q 55 40 89 1 q 21 129 21 79 q 60 267 21 199 q 172 431 99 336 q 276 581 243 524 q 310 696 310 639 q 283 829 310 750 q 268 897 268 878 q 415 975 268 975 l 500 975 q 647 897 647 975 q 632 829 647 878 q 606 696 606 750 q 639 581 606 639 q 743 431 672 524 q 856 267 817 336 q 894 129 894 199 q 860 40 894 79 q 756 0 826 1 l 724 0 l 719 0 q 563 48 613 1 q 514 175 514 94 q 522 247 514 206 q 539 329 529 289 q 546 381 546 364 q 524 434 546 421 q 457 449 501 447 q 392 434 414 447 q 369 381 369 421 q 376 329 369 364 q 394 247 386 289 q 401 175 401 206 q 352 48 401 94 q 196 0 303 1 l 164 0 l 160 0 m 368 574 q 393 516 368 532 q 457 499 418 500 q 522 516 497 500 q 547 574 547 532 q 532 647 547 606 q 515 683 525 668 q 457 738 486 738 q 400 683 429 738 q 383 647 386 656 q 368 574 368 606 m 504 1024 q 459 1046 488 1024 q 409 1098 431 1068 q 388 1150 388 1128 q 399 1180 388 1168 q 428 1192 411 1192 q 461 1165 453 1192 q 506 1088 474 1122 q 523 1064 518 1072 q 528 1043 528 1056 q 521 1030 528 1036 q 504 1024 514 1024 z "},"Ā":{"ha":915,"x_min":21,"x_max":894,"o":"m 160 0 q 55 40 89 1 q 21 129 21 79 q 60 267 21 199 q 172 431 99 336 q 276 581 243 524 q 310 696 310 639 q 283 829 310 750 q 268 897 268 878 q 415 975 268 975 l 500 975 q 647 897 647 975 q 632 829 647 878 q 606 696 606 750 q 639 581 606 639 q 743 431 672 524 q 856 267 817 336 q 894 129 894 199 q 860 40 894 79 q 756 0 826 1 l 724 0 l 719 0 q 563 48 613 1 q 514 175 514 94 q 522 247 514 206 q 539 329 529 289 q 546 381 546 364 q 524 434 546 421 q 457 449 501 447 q 392 434 414 447 q 369 381 369 421 q 376 329 369 364 q 394 247 386 289 q 401 175 401 206 q 352 48 401 94 q 196 0 303 1 l 164 0 l 160 0 m 368 574 q 393 516 368 532 q 457 499 418 500 q 522 516 497 500 q 547 574 547 532 q 532 647 547 606 q 515 683 525 668 q 457 738 486 738 q 400 683 429 738 q 383 647 386 656 q 368 574 368 606 m 333 1022 q 311 1028 319 1022 q 303 1043 303 1035 q 362 1091 303 1068 q 476 1114 421 1114 q 575 1103 538 1114 q 613 1063 613 1093 q 603 1036 613 1049 q 578 1024 594 1024 q 528 1031 560 1024 q 446 1042 478 1042 q 367 1029 407 1042 q 333 1022 346 1022 z "},"Ą":{"ha":915,"x_min":21,"x_max":894,"o":"m 160 0 q 55 40 89 1 q 21 129 21 79 q 60 267 21 199 q 172 431 99 336 q 276 581 243 524 q 310 696 310 639 q 283 829 310 750 q 268 897 268 878 q 415 975 268 975 l 500 975 q 647 897 647 975 q 632 829 647 878 q 606 696 606 750 q 639 581 606 639 q 743 431 672 524 q 856 267 817 336 q 894 129 894 199 q 865 47 894 83 q 776 1 836 10 q 753 -44 764 -19 q 743 -87 743 -68 q 754 -113 743 -104 q 794 -122 765 -122 q 815 -131 807 -122 q 824 -151 824 -139 q 808 -181 824 -168 q 760 -193 792 -193 q 678 -133 678 -193 q 701 -64 678 -101 q 750 0 724 -26 l 724 0 l 719 0 q 563 48 613 1 q 514 175 514 94 q 522 247 514 206 q 539 329 529 289 q 546 381 546 364 q 524 434 546 421 q 457 449 501 447 q 392 434 414 447 q 369 381 369 421 q 376 329 369 364 q 394 247 386 289 q 401 175 401 206 q 352 48 401 94 q 196 0 303 1 l 164 0 l 160 0 m 368 574 q 393 516 368 532 q 457 499 418 500 q 522 516 497 500 q 547 574 547 532 q 532 647 547 606 q 515 683 525 668 q 457 738 486 738 q 400 683 429 738 q 383 647 386 656 q 368 574 368 606 z "},"Å":{"ha":915,"x_min":21,"x_max":894,"o":"m 160 0 q 55 40 89 1 q 21 129 21 79 q 60 267 21 199 q 172 431 99 336 q 276 581 243 524 q 310 696 310 639 q 283 829 310 750 q 268 897 268 878 q 415 975 268 975 l 500 975 q 647 897 647 975 q 632 829 647 878 q 606 696 606 750 q 639 581 606 639 q 743 431 672 524 q 856 267 817 336 q 894 129 894 199 q 860 40 894 79 q 756 0 826 1 l 724 0 l 719 0 q 563 48 613 1 q 514 175 514 94 q 522 247 514 206 q 539 329 529 289 q 546 381 546 364 q 524 434 546 421 q 457 449 501 447 q 392 434 414 447 q 369 381 369 421 q 376 329 369 364 q 394 247 386 289 q 401 175 401 206 q 352 48 401 94 q 196 0 303 1 l 164 0 l 160 0 m 368 574 q 393 516 368 532 q 457 499 418 500 q 522 516 497 500 q 547 574 547 532 q 532 647 547 606 q 515 683 525 668 q 457 738 486 738 q 400 683 429 738 q 383 647 386 656 q 368 574 368 606 m 458 1024 q 390 1052 418 1024 q 361 1121 361 1081 q 390 1189 361 1161 q 458 1217 418 1217 q 526 1189 499 1217 q 554 1121 554 1161 q 526 1052 554 1081 q 458 1024 499 1024 m 410 1138 q 424 1099 410 1115 q 458 1082 439 1082 q 492 1099 478 1082 q 506 1138 506 1115 q 491 1174 506 1158 q 458 1190 476 1190 q 424 1174 439 1190 q 410 1138 410 1158 z "},"Ã":{"ha":915,"x_min":21,"x_max":894,"o":"m 160 0 q 55 40 89 1 q 21 129 21 79 q 60 267 21 199 q 172 431 99 336 q 276 581 243 524 q 310 696 310 639 q 283 829 310 750 q 268 897 268 878 q 415 975 268 975 l 500 975 q 647 897 647 975 q 632 829 647 878 q 606 696 606 750 q 639 581 606 639 q 743 431 672 524 q 856 267 817 336 q 894 129 894 199 q 860 40 894 79 q 756 0 826 1 l 724 0 l 719 0 q 563 48 613 1 q 514 175 514 94 q 522 247 514 206 q 539 329 529 289 q 546 381 546 364 q 524 434 546 421 q 457 449 501 447 q 392 434 414 447 q 369 381 369 421 q 376 329 369 364 q 394 247 386 289 q 401 175 401 206 q 352 48 401 94 q 196 0 303 1 l 164 0 l 160 0 m 368 574 q 393 516 368 532 q 457 499 418 500 q 522 516 497 500 q 547 574 547 532 q 532 647 547 606 q 515 683 525 668 q 457 738 486 738 q 400 683 429 738 q 383 647 386 656 q 368 574 368 606 m 531 1024 q 495 1034 508 1024 q 464 1067 482 1044 q 435 1097 447 1088 q 403 1107 422 1107 q 382 1099 390 1107 q 367 1078 374 1092 q 349 1054 357 1061 q 328 1047 342 1047 q 308 1057 315 1047 q 301 1081 301 1067 q 322 1139 301 1111 q 374 1167 342 1167 q 409 1156 393 1167 q 447 1122 425 1144 q 482 1092 468 1101 q 513 1082 496 1082 q 540 1090 531 1082 q 560 1114 550 1099 q 572 1131 567 1125 q 588 1138 578 1138 q 607 1129 600 1138 q 614 1107 614 1121 q 591 1050 614 1076 q 531 1024 568 1024 z "},"Æ":{"ha":1040,"x_min":21,"x_max":1013,"o":"m 160 0 q 55 40 89 1 q 21 129 21 79 q 60 267 21 199 q 172 431 99 336 q 276 581 243 524 q 310 696 310 639 q 283 829 310 750 q 268 897 268 878 q 415 975 268 975 l 617 975 q 678 976 649 975 q 728 979 707 978 q 814 983 778 983 q 890 967 863 983 q 917 911 917 951 q 894 825 917 857 q 833 793 872 793 q 767 810 803 793 q 731 819 743 819 q 696 801 713 819 q 657 733 679 782 q 650 714 651 718 q 644 676 644 696 q 665 633 644 643 q 721 622 685 622 q 757 628 735 622 q 786 635 779 633 q 853 649 833 649 q 886 617 886 649 q 863 551 886 579 q 803 522 840 522 q 756 532 788 522 q 725 539 738 539 q 678 525 696 539 q 660 485 660 511 q 663 463 660 471 q 694 374 674 424 q 731 306 714 326 q 767 286 749 286 q 804 309 768 286 q 888 332 840 332 q 980 295 949 332 q 1013 171 1011 258 l 1013 165 l 1013 161 q 980 37 1011 74 q 888 0 949 0 l 656 0 q 547 51 579 1 q 514 175 514 101 q 522 247 514 206 q 539 329 529 289 q 546 381 546 364 q 524 434 546 421 q 457 449 501 447 q 392 434 414 447 q 369 381 369 421 q 376 329 369 364 q 394 247 386 289 q 401 175 401 206 q 352 48 401 94 q 196 0 303 1 l 164 0 l 160 0 m 368 574 q 393 516 368 532 q 457 499 418 500 q 522 516 497 500 q 547 574 547 532 q 532 647 547 606 q 515 683 525 668 q 457 738 486 738 q 400 683 429 738 q 383 647 386 656 q 368 574 368 606 z "},"B":{"ha":801,"x_min":42,"x_max":781,"o":"m 208 0 q 79 33 117 1 q 42 125 42 64 q 56 201 42 160 q 99 311 69 242 q 162 478 139 406 q 185 624 185 550 q 167 724 185 679 q 115 829 149 769 q 88 877 97 858 q 79 911 79 896 q 108 960 79 944 q 208 975 136 975 l 244 975 l 268 975 l 429 975 q 544 944 490 975 q 629 863 597 914 q 661 754 661 811 q 576 614 661 660 q 723 483 665 576 q 781 275 781 389 q 708 78 781 156 q 485 0 636 0 l 208 0 m 321 418 q 356 335 321 368 q 464 303 392 303 q 572 335 536 303 q 608 418 608 368 q 588 491 608 454 q 535 551 568 528 q 464 575 501 575 q 392 551 425 575 q 340 492 360 528 q 321 418 321 456 m 332 724 q 358 672 332 692 q 435 651 383 651 q 510 672 485 651 q 536 724 536 692 q 506 789 536 758 q 435 819 475 819 q 362 789 392 819 q 332 724 332 758 z "},"C":{"ha":685,"x_min":21,"x_max":671,"o":"m 332 0 q 178 42 249 0 q 64 169 107 83 q 21 383 21 256 q 77 721 21 588 q 219 915 133 854 q 393 975 304 975 q 522 933 469 975 q 575 824 575 890 q 555 739 575 775 q 502 684 535 703 q 436 665 469 665 q 391 678 403 665 q 379 715 379 692 q 382 743 379 724 l 383 771 q 373 807 383 794 q 332 819 363 819 q 240 784 279 819 q 181 691 201 749 q 161 569 161 633 q 206 402 161 472 q 333 332 251 332 q 406 352 381 332 q 454 411 431 372 q 488 456 474 442 q 528 469 503 469 q 633 448 596 469 q 671 351 671 426 q 622 166 671 246 q 495 43 574 86 q 332 0 417 0 z "},"Ć":{"ha":685,"x_min":21,"x_max":671,"o":"m 332 0 q 178 42 249 0 q 64 169 107 83 q 21 383 21 256 q 77 721 21 588 q 219 915 133 854 q 393 975 304 975 q 522 933 469 975 q 575 824 575 890 q 555 739 575 775 q 502 684 535 703 q 436 665 469 665 q 391 678 403 665 q 379 715 379 692 q 382 743 379 724 l 383 771 q 373 807 383 794 q 332 819 363 819 q 240 784 279 819 q 181 691 201 749 q 161 569 161 633 q 206 402 161 472 q 333 332 251 332 q 406 352 381 332 q 454 411 431 372 q 488 456 474 442 q 528 469 503 469 q 633 448 596 469 q 671 351 671 426 q 622 166 671 246 q 495 43 574 86 q 332 0 417 0 m 290 1024 q 274 1030 281 1024 q 267 1043 267 1036 q 272 1064 267 1056 q 289 1088 276 1072 q 333 1165 321 1122 q 367 1192 342 1192 q 395 1180 383 1192 q 407 1150 407 1168 q 385 1098 407 1128 q 335 1046 364 1068 q 290 1024 307 1024 z "},"Č":{"ha":685,"x_min":21,"x_max":671,"o":"m 332 0 q 178 42 249 0 q 64 169 107 83 q 21 383 21 256 q 77 721 21 588 q 219 915 133 854 q 393 975 304 975 q 522 933 469 975 q 575 824 575 890 q 555 739 575 775 q 502 684 535 703 q 436 665 469 665 q 391 678 403 665 q 379 715 379 692 q 382 743 379 724 l 383 771 q 373 807 383 794 q 332 819 363 819 q 240 784 279 819 q 181 691 201 749 q 161 569 161 633 q 206 402 161 472 q 333 332 251 332 q 406 352 381 332 q 454 411 431 372 q 488 456 474 442 q 528 469 503 469 q 633 448 596 469 q 671 351 671 426 q 622 166 671 246 q 495 43 574 86 q 332 0 417 0 m 322 1024 q 303 1031 311 1024 q 294 1049 294 1038 q 284 1101 294 1081 q 256 1143 274 1122 q 245 1158 250 1151 q 240 1171 240 1165 q 247 1185 240 1179 q 264 1192 253 1192 q 317 1155 303 1192 q 331 1069 331 1118 q 354 1093 343 1069 q 365 1157 365 1117 q 377 1182 365 1172 q 404 1192 389 1192 q 433 1181 421 1192 q 444 1149 444 1169 q 423 1097 444 1126 q 372 1045 401 1067 q 322 1024 343 1024 z "},"Ç":{"ha":685,"x_min":21,"x_max":671,"o":"m 332 0 q 178 42 249 0 q 64 169 107 83 q 21 383 21 256 q 77 721 21 588 q 219 915 133 854 q 393 975 304 975 q 522 933 469 975 q 575 824 575 890 q 555 739 575 775 q 502 684 535 703 q 436 665 469 665 q 391 678 403 665 q 379 715 379 692 q 382 743 379 724 l 383 771 q 373 807 383 794 q 332 819 363 819 q 240 784 279 819 q 181 691 201 749 q 161 569 161 633 q 206 402 161 472 q 333 332 251 332 q 406 352 381 332 q 454 411 431 372 q 488 456 474 442 q 528 469 503 469 q 633 448 596 469 q 671 351 671 426 q 627 174 671 251 q 512 53 583 97 q 360 1 440 8 q 328 -25 343 -8 q 313 -60 313 -42 q 401 -77 372 -60 q 431 -122 431 -94 q 397 -177 431 -153 q 313 -201 364 -201 q 279 -191 292 -201 q 267 -167 267 -181 q 278 -142 267 -153 q 313 -132 290 -132 q 340 -133 328 -132 q 364 -135 353 -135 q 390 -118 390 -135 q 369 -95 390 -106 q 313 -85 349 -85 q 279 -57 279 -85 q 296 -26 279 -42 q 335 0 313 -11 l 332 0 z "},"Ċ":{"ha":685,"x_min":21,"x_max":671,"o":"m 332 0 q 178 42 249 0 q 64 169 107 83 q 21 383 21 256 q 77 721 21 588 q 219 915 133 854 q 393 975 304 975 q 522 933 469 975 q 575 824 575 890 q 555 739 575 775 q 502 684 535 703 q 436 665 469 665 q 391 678 403 665 q 379 715 379 692 q 382 743 379 724 l 383 771 q 373 807 383 794 q 332 819 363 819 q 240 784 279 819 q 181 691 201 749 q 161 569 161 633 q 206 402 161 472 q 333 332 251 332 q 406 352 381 332 q 454 411 431 372 q 488 456 474 442 q 528 469 503 469 q 633 448 596 469 q 671 351 671 426 q 622 166 671 246 q 495 43 574 86 q 332 0 417 0 m 343 1024 q 294 1044 314 1024 q 274 1093 274 1064 q 294 1142 274 1122 q 343 1163 314 1163 q 392 1142 372 1163 q 413 1093 413 1122 q 392 1044 413 1064 q 343 1024 372 1024 z "},"D":{"ha":735,"x_min":42,"x_max":714,"o":"m 208 0 q 79 33 117 1 q 42 125 42 64 q 56 201 42 160 q 99 311 69 242 q 162 478 139 406 q 185 624 185 550 q 167 724 185 679 q 115 829 149 769 q 88 877 97 858 q 79 911 79 896 q 108 960 79 944 q 208 975 136 975 l 446 975 q 577 887 515 975 q 676 663 639 799 q 714 392 714 526 q 649 110 714 221 q 446 0 583 0 l 208 0 m 289 547 q 325 405 289 461 q 435 349 361 349 q 544 406 507 349 q 581 547 581 463 q 560 674 581 611 q 507 778 540 738 q 435 819 474 819 q 362 779 396 819 q 308 675 328 739 q 289 547 289 611 z "},"Ð":{"ha":735,"x_min":42,"x_max":714,"o":"m 208 0 q 79 33 117 1 q 42 125 42 64 q 56 201 42 160 q 99 311 69 242 q 153 447 132 389 q 181 565 174 506 l 86 565 q 63 576 71 565 q 56 604 56 588 q 64 631 56 619 q 86 642 72 642 l 185 642 q 163 733 181 692 q 115 828 146 775 q 88 878 96 860 q 79 911 79 896 q 108 960 79 944 q 208 975 136 975 l 446 975 q 577 887 515 975 q 676 663 639 799 q 714 392 714 526 q 649 110 714 221 q 446 0 583 0 l 208 0 m 289 547 q 325 405 289 461 q 435 349 361 349 q 544 406 507 349 q 581 547 581 463 q 560 674 581 611 q 507 778 540 738 q 435 819 474 819 q 353 768 390 819 q 300 642 317 717 l 396 642 q 426 604 426 642 q 419 576 426 588 q 396 565 411 565 l 289 565 l 289 547 z "},"Ď":{"ha":735,"x_min":42,"x_max":714,"o":"m 208 0 q 79 33 117 1 q 42 125 42 64 q 56 201 42 160 q 99 311 69 242 q 162 478 139 406 q 185 624 185 550 q 167 724 185 679 q 115 829 149 769 q 88 877 97 858 q 79 911 79 896 q 108 960 79 944 q 208 975 136 975 l 446 975 q 577 887 515 975 q 676 663 639 799 q 714 392 714 526 q 649 110 714 221 q 446 0 583 0 l 208 0 m 289 547 q 325 405 289 461 q 435 349 361 349 q 544 406 507 349 q 581 547 581 463 q 560 674 581 611 q 507 778 540 738 q 435 819 474 819 q 362 779 396 819 q 308 675 328 739 q 289 547 289 611 m 347 1024 q 328 1031 336 1024 q 319 1049 319 1038 q 309 1101 319 1081 q 281 1143 299 1122 q 270 1158 275 1151 q 265 1171 265 1165 q 272 1185 265 1179 q 289 1192 278 1192 q 342 1155 328 1192 q 356 1069 356 1118 q 379 1093 368 1069 q 390 1157 390 1117 q 402 1182 390 1172 q 429 1192 414 1192 q 458 1181 446 1192 q 469 1149 469 1169 q 448 1097 469 1126 q 397 1045 426 1067 q 347 1024 368 1024 z "},"Đ":{"ha":735,"x_min":42,"x_max":714,"o":"m 208 0 q 79 33 117 1 q 42 125 42 64 q 56 201 42 160 q 99 311 69 242 q 153 447 132 389 q 181 565 174 506 l 86 565 q 63 576 71 565 q 56 604 56 588 q 64 631 56 619 q 86 642 72 642 l 185 642 q 163 733 181 692 q 115 828 146 775 q 88 878 96 860 q 79 911 79 896 q 108 960 79 944 q 208 975 136 975 l 446 975 q 577 887 515 975 q 676 663 639 799 q 714 392 714 526 q 649 110 714 221 q 446 0 583 0 l 208 0 m 289 547 q 325 405 289 461 q 435 349 361 349 q 544 406 507 349 q 581 547 581 463 q 560 674 581 611 q 507 778 540 738 q 435 819 474 819 q 353 768 390 819 q 300 642 317 717 l 396 642 q 426 604 426 642 q 419 576 426 588 q 396 565 411 565 l 289 565 l 289 547 z "},"E":{"ha":674,"x_min":42,"x_max":646,"o":"m 208 0 q 79 33 117 1 q 42 125 42 64 q 56 201 42 160 q 99 311 69 242 q 162 478 139 406 q 185 624 185 550 q 167 724 185 679 q 115 829 149 769 q 88 877 97 858 q 79 911 79 896 q 108 960 79 944 q 208 975 136 975 l 244 975 l 250 975 l 250 975 q 311 976 282 975 q 361 979 340 978 q 447 983 411 983 q 523 967 496 983 q 550 911 550 951 q 528 825 550 857 q 467 793 506 793 q 400 810 436 793 q 364 819 376 819 q 329 801 346 819 q 290 733 313 782 q 283 714 285 718 q 278 676 278 696 q 298 633 278 643 q 354 622 318 622 q 390 628 368 622 q 419 635 413 633 q 486 649 467 649 q 519 617 519 649 q 497 551 519 579 q 436 522 474 522 q 389 532 421 522 q 358 539 371 539 q 311 525 329 539 q 293 485 293 511 q 296 463 293 471 q 328 374 307 424 q 365 306 347 326 q 400 286 382 286 q 438 309 401 286 q 521 332 474 332 q 613 295 582 332 q 646 171 644 258 l 646 165 l 646 161 q 613 37 644 74 q 521 0 582 0 l 208 0 z "},"É":{"ha":674,"x_min":42,"x_max":646,"o":"m 208 0 q 79 33 117 1 q 42 125 42 64 q 56 201 42 160 q 99 311 69 242 q 162 478 139 406 q 185 624 185 550 q 167 724 185 679 q 115 829 149 769 q 88 877 97 858 q 79 911 79 896 q 108 960 79 944 q 208 975 136 975 l 244 975 l 250 975 l 250 975 q 311 976 282 975 q 361 979 340 978 q 447 983 411 983 q 523 967 496 983 q 550 911 550 951 q 528 825 550 857 q 467 793 506 793 q 400 810 436 793 q 364 819 376 819 q 329 801 346 819 q 290 733 313 782 q 283 714 285 718 q 278 676 278 696 q 298 633 278 643 q 354 622 318 622 q 390 628 368 622 q 419 635 413 633 q 486 649 467 649 q 519 617 519 649 q 497 551 519 579 q 436 522 474 522 q 389 532 421 522 q 358 539 371 539 q 311 525 329 539 q 293 485 293 511 q 296 463 293 471 q 328 374 307 424 q 365 306 347 326 q 400 286 382 286 q 438 309 401 286 q 521 332 474 332 q 613 295 582 332 q 646 171 644 258 l 646 165 l 646 161 q 613 37 644 74 q 521 0 582 0 l 208 0 m 285 1024 q 268 1030 275 1024 q 261 1043 261 1036 q 266 1064 261 1056 q 283 1088 271 1072 q 328 1165 315 1122 q 361 1192 336 1192 q 390 1180 378 1192 q 401 1150 401 1168 q 380 1098 401 1128 q 330 1046 358 1068 q 285 1024 301 1024 z "},"Ě":{"ha":674,"x_min":42,"x_max":646,"o":"m 208 0 q 79 33 117 1 q 42 125 42 64 q 56 201 42 160 q 99 311 69 242 q 162 478 139 406 q 185 624 185 550 q 167 724 185 679 q 115 829 149 769 q 88 877 97 858 q 79 911 79 896 q 108 960 79 944 q 208 975 136 975 l 244 975 l 250 975 l 250 975 q 311 976 282 975 q 361 979 340 978 q 447 983 411 983 q 523 967 496 983 q 550 911 550 951 q 528 825 550 857 q 467 793 506 793 q 400 810 436 793 q 364 819 376 819 q 329 801 346 819 q 290 733 313 782 q 283 714 285 718 q 278 676 278 696 q 298 633 278 643 q 354 622 318 622 q 390 628 368 622 q 419 635 413 633 q 486 649 467 649 q 519 617 519 649 q 497 551 519 579 q 436 522 474 522 q 389 532 421 522 q 358 539 371 539 q 311 525 329 539 q 293 485 293 511 q 296 463 293 471 q 328 374 307 424 q 365 306 347 326 q 400 286 382 286 q 438 309 401 286 q 521 332 474 332 q 613 295 582 332 q 646 171 644 258 l 646 165 l 646 161 q 613 37 644 74 q 521 0 582 0 l 208 0 m 317 1024 q 297 1031 306 1024 q 289 1049 289 1038 q 278 1101 289 1081 q 250 1143 268 1122 q 240 1158 244 1151 q 235 1171 235 1165 q 241 1185 235 1179 q 258 1192 247 1192 q 311 1155 297 1192 q 325 1069 325 1118 q 349 1093 338 1069 q 360 1157 360 1117 q 372 1182 360 1172 q 399 1192 383 1192 q 427 1181 415 1192 q 439 1149 439 1169 q 417 1097 439 1126 q 367 1045 396 1067 q 317 1024 338 1024 z "},"Ê":{"ha":674,"x_min":42,"x_max":646,"o":"m 208 0 q 79 33 117 1 q 42 125 42 64 q 56 201 42 160 q 99 311 69 242 q 162 478 139 406 q 185 624 185 550 q 167 724 185 679 q 115 829 149 769 q 88 877 97 858 q 79 911 79 896 q 108 960 79 944 q 208 975 136 975 l 244 975 l 250 975 l 250 975 q 311 976 282 975 q 361 979 340 978 q 447 983 411 983 q 523 967 496 983 q 550 911 550 951 q 528 825 550 857 q 467 793 506 793 q 400 810 436 793 q 364 819 376 819 q 329 801 346 819 q 290 733 313 782 q 283 714 285 718 q 278 676 278 696 q 298 633 278 643 q 354 622 318 622 q 390 628 368 622 q 419 635 413 633 q 486 649 467 649 q 519 617 519 649 q 497 551 519 579 q 436 522 474 522 q 389 532 421 522 q 358 539 371 539 q 311 525 329 539 q 293 485 293 511 q 296 463 293 471 q 328 374 307 424 q 365 306 347 326 q 400 286 382 286 q 438 309 401 286 q 521 332 474 332 q 613 295 582 332 q 646 171 644 258 l 646 165 l 646 161 q 613 37 644 74 q 521 0 582 0 l 208 0 m 415 1024 q 363 1060 376 1024 q 349 1146 349 1097 q 325 1122 336 1146 q 314 1058 314 1099 q 302 1033 314 1043 q 275 1024 290 1024 q 247 1035 258 1024 q 235 1067 235 1046 q 256 1119 235 1089 q 307 1170 278 1149 q 357 1192 336 1192 q 376 1185 368 1192 q 385 1167 385 1178 q 395 1115 385 1136 q 424 1072 406 1093 q 434 1057 429 1064 q 439 1044 439 1050 q 433 1030 439 1036 q 415 1024 426 1024 z "},"Ë":{"ha":674,"x_min":42,"x_max":646,"o":"m 208 0 q 79 33 117 1 q 42 125 42 64 q 56 201 42 160 q 99 311 69 242 q 162 478 139 406 q 185 624 185 550 q 167 724 185 679 q 115 829 149 769 q 88 877 97 858 q 79 911 79 896 q 108 960 79 944 q 208 975 136 975 l 244 975 l 250 975 l 250 975 q 311 976 282 975 q 361 979 340 978 q 447 983 411 983 q 523 967 496 983 q 550 911 550 951 q 528 825 550 857 q 467 793 506 793 q 400 810 436 793 q 364 819 376 819 q 329 801 346 819 q 290 733 313 782 q 283 714 285 718 q 278 676 278 696 q 298 633 278 643 q 354 622 318 622 q 390 628 368 622 q 419 635 413 633 q 486 649 467 649 q 519 617 519 649 q 497 551 519 579 q 436 522 474 522 q 389 532 421 522 q 358 539 371 539 q 311 525 329 539 q 293 485 293 511 q 296 463 293 471 q 328 374 307 424 q 365 306 347 326 q 400 286 382 286 q 438 309 401 286 q 521 332 474 332 q 613 295 582 332 q 646 171 644 258 l 646 165 l 646 161 q 613 37 644 74 q 521 0 582 0 l 208 0 m 251 1024 q 202 1044 222 1024 q 182 1093 182 1064 q 202 1142 182 1122 q 251 1163 222 1163 q 301 1142 281 1163 q 321 1093 321 1122 q 301 1044 321 1064 q 251 1024 281 1024 m 353 1093 q 373 1142 353 1122 q 422 1163 393 1163 q 472 1142 451 1163 q 492 1093 492 1122 q 472 1044 492 1064 q 422 1024 451 1024 q 373 1044 393 1024 q 353 1093 353 1064 z "},"Ė":{"ha":674,"x_min":42,"x_max":646,"o":"m 208 0 q 79 33 117 1 q 42 125 42 64 q 56 201 42 160 q 99 311 69 242 q 162 478 139 406 q 185 624 185 550 q 167 724 185 679 q 115 829 149 769 q 88 877 97 858 q 79 911 79 896 q 108 960 79 944 q 208 975 136 975 l 244 975 l 250 975 l 250 975 q 311 976 282 975 q 361 979 340 978 q 447 983 411 983 q 523 967 496 983 q 550 911 550 951 q 528 825 550 857 q 467 793 506 793 q 400 810 436 793 q 364 819 376 819 q 329 801 346 819 q 290 733 313 782 q 283 714 285 718 q 278 676 278 696 q 298 633 278 643 q 354 622 318 622 q 390 628 368 622 q 419 635 413 633 q 486 649 467 649 q 519 617 519 649 q 497 551 519 579 q 436 522 474 522 q 389 532 421 522 q 358 539 371 539 q 311 525 329 539 q 293 485 293 511 q 296 463 293 471 q 328 374 307 424 q 365 306 347 326 q 400 286 382 286 q 438 309 401 286 q 521 332 474 332 q 613 295 582 332 q 646 171 644 258 l 646 165 l 646 161 q 613 37 644 74 q 521 0 582 0 l 208 0 m 338 1024 q 288 1044 308 1024 q 268 1093 268 1064 q 288 1142 268 1122 q 338 1163 308 1163 q 387 1142 367 1163 q 407 1093 407 1122 q 387 1044 407 1064 q 338 1024 367 1024 z "},"È":{"ha":674,"x_min":42,"x_max":646,"o":"m 208 0 q 79 33 117 1 q 42 125 42 64 q 56 201 42 160 q 99 311 69 242 q 162 478 139 406 q 185 624 185 550 q 167 724 185 679 q 115 829 149 769 q 88 877 97 858 q 79 911 79 896 q 108 960 79 944 q 208 975 136 975 l 244 975 l 250 975 l 250 975 q 311 976 282 975 q 361 979 340 978 q 447 983 411 983 q 523 967 496 983 q 550 911 550 951 q 528 825 550 857 q 467 793 506 793 q 400 810 436 793 q 364 819 376 819 q 329 801 346 819 q 290 733 313 782 q 283 714 285 718 q 278 676 278 696 q 298 633 278 643 q 354 622 318 622 q 390 628 368 622 q 419 635 413 633 q 486 649 467 649 q 519 617 519 649 q 497 551 519 579 q 436 522 474 522 q 389 532 421 522 q 358 539 371 539 q 311 525 329 539 q 293 485 293 511 q 296 463 293 471 q 328 374 307 424 q 365 306 347 326 q 400 286 382 286 q 438 309 401 286 q 521 332 474 332 q 613 295 582 332 q 646 171 644 258 l 646 165 l 646 161 q 613 37 644 74 q 521 0 582 0 l 208 0 m 383 1024 q 338 1046 367 1024 q 288 1098 310 1068 q 267 1150 267 1128 q 278 1180 267 1168 q 307 1192 290 1192 q 340 1165 332 1192 q 385 1088 353 1122 q 402 1064 397 1072 q 407 1043 407 1056 q 400 1030 407 1036 q 383 1024 393 1024 z "},"Ē":{"ha":674,"x_min":42,"x_max":646,"o":"m 208 0 q 79 33 117 1 q 42 125 42 64 q 56 201 42 160 q 99 311 69 242 q 162 478 139 406 q 185 624 185 550 q 167 724 185 679 q 115 829 149 769 q 88 877 97 858 q 79 911 79 896 q 108 960 79 944 q 208 975 136 975 l 244 975 l 250 975 l 250 975 q 311 976 282 975 q 361 979 340 978 q 447 983 411 983 q 523 967 496 983 q 550 911 550 951 q 528 825 550 857 q 467 793 506 793 q 400 810 436 793 q 364 819 376 819 q 329 801 346 819 q 290 733 313 782 q 283 714 285 718 q 278 676 278 696 q 298 633 278 643 q 354 622 318 622 q 390 628 368 622 q 419 635 413 633 q 486 649 467 649 q 519 617 519 649 q 497 551 519 579 q 436 522 474 522 q 389 532 421 522 q 358 539 371 539 q 311 525 329 539 q 293 485 293 511 q 296 463 293 471 q 328 374 307 424 q 365 306 347 326 q 400 286 382 286 q 438 309 401 286 q 521 332 474 332 q 613 295 582 332 q 646 171 644 258 l 646 165 l 646 161 q 613 37 644 74 q 521 0 582 0 l 208 0 m 213 1022 q 190 1028 199 1022 q 182 1043 182 1035 q 241 1091 182 1068 q 356 1114 300 1114 q 454 1103 417 1114 q 492 1063 492 1093 q 483 1036 492 1049 q 457 1024 474 1024 q 407 1031 439 1024 q 325 1042 357 1042 q 246 1029 286 1042 q 213 1022 225 1022 z "},"Ę":{"ha":674,"x_min":42,"x_max":646,"o":"m 208 0 q 79 33 117 1 q 42 125 42 64 q 56 201 42 160 q 99 311 69 242 q 162 478 139 406 q 185 624 185 550 q 167 724 185 679 q 115 829 149 769 q 88 877 97 858 q 79 911 79 896 q 108 960 79 944 q 208 975 136 975 l 244 975 l 250 975 l 250 975 q 311 976 282 975 q 361 979 340 978 q 447 983 411 983 q 523 967 496 983 q 550 911 550 951 q 528 825 550 857 q 467 793 506 793 q 400 810 436 793 q 364 819 376 819 q 329 801 346 819 q 290 733 313 782 q 283 714 285 718 q 278 676 278 696 q 298 633 278 643 q 354 622 318 622 q 390 628 368 622 q 419 635 413 633 q 486 649 467 649 q 519 617 519 649 q 497 551 519 579 q 436 522 474 522 q 389 532 421 522 q 358 539 371 539 q 311 525 329 539 q 293 485 293 511 q 296 463 293 471 q 328 374 307 424 q 365 306 347 326 q 400 286 382 286 q 438 309 401 286 q 521 332 474 332 q 613 295 582 332 q 646 171 644 258 l 646 165 l 646 161 q 613 37 644 74 q 521 0 582 0 l 364 0 q 331 -87 331 -57 q 342 -113 331 -104 q 382 -122 353 -122 q 403 -131 394 -122 q 411 -151 411 -139 q 395 -181 411 -168 q 347 -193 379 -193 q 265 -133 265 -193 q 288 -64 265 -101 q 338 0 311 -26 l 208 0 z "},"Ẽ":{"ha":674,"x_min":42,"x_max":646,"o":"m 208 0 q 79 33 117 1 q 42 125 42 64 q 56 201 42 160 q 99 311 69 242 q 162 478 139 406 q 185 624 185 550 q 167 724 185 679 q 115 829 149 769 q 88 877 97 858 q 79 911 79 896 q 108 960 79 944 q 208 975 136 975 l 244 975 l 250 975 l 250 975 q 311 976 282 975 q 361 979 340 978 q 447 983 411 983 q 523 967 496 983 q 550 911 550 951 q 528 825 550 857 q 467 793 506 793 q 400 810 436 793 q 364 819 376 819 q 329 801 346 819 q 290 733 313 782 q 283 714 285 718 q 278 676 278 696 q 298 633 278 643 q 354 622 318 622 q 390 628 368 622 q 419 635 413 633 q 486 649 467 649 q 519 617 519 649 q 497 551 519 579 q 436 522 474 522 q 389 532 421 522 q 358 539 371 539 q 311 525 329 539 q 293 485 293 511 q 296 463 293 471 q 328 374 307 424 q 365 306 347 326 q 400 286 382 286 q 438 309 401 286 q 521 332 474 332 q 613 295 582 332 q 646 171 644 258 l 646 165 l 646 161 q 613 37 644 74 q 521 0 582 0 l 208 0 m 410 1024 q 374 1034 388 1024 q 343 1067 361 1044 q 314 1097 326 1088 q 282 1107 301 1107 q 261 1099 269 1107 q 246 1078 253 1092 q 228 1054 236 1061 q 207 1047 221 1047 q 188 1057 194 1047 q 181 1081 181 1067 q 201 1139 181 1111 q 253 1167 221 1167 q 288 1156 272 1167 q 326 1122 304 1144 q 361 1092 347 1101 q 392 1082 375 1082 q 419 1090 410 1082 q 439 1114 429 1099 q 451 1131 446 1125 q 467 1138 457 1138 q 486 1129 479 1138 q 493 1107 493 1121 q 470 1050 493 1076 q 410 1024 447 1024 z "},"Ə":{"ha":625,"x_min":21,"x_max":604,"o":"m 325 886 q 463 849 400 886 q 565 732 526 811 q 604 536 604 653 q 554 231 604 351 q 428 55 504 110 q 272 0 351 0 q 155 41 201 0 q 108 151 108 82 q 135 242 108 203 q 201 307 163 281 q 301 369 239 333 q 405 437 371 408 q 439 501 439 465 q 435 526 439 514 q 324 613 396 613 q 260 590 282 613 q 215 524 239 568 q 185 476 199 492 q 150 460 172 460 q 54 479 88 460 q 21 567 21 499 q 65 735 21 663 q 178 847 108 808 q 325 886 249 886 m 256 201 q 272 155 256 171 q 317 139 289 139 q 382 163 349 139 q 439 237 415 188 q 464 357 463 286 q 444 372 463 372 q 373 342 419 372 q 291 272 326 313 q 256 201 256 232 z "},"F":{"ha":564,"x_min":42,"x_max":550,"o":"m 208 0 q 79 33 117 1 q 42 125 42 64 q 56 201 42 160 q 99 311 69 242 q 162 478 139 406 q 185 624 185 550 q 167 724 185 679 q 115 829 149 769 q 88 877 97 858 q 79 911 79 896 q 108 960 79 944 q 208 975 136 975 l 244 975 l 250 975 l 250 975 q 311 976 282 975 q 361 979 340 978 q 447 983 411 983 q 523 967 496 983 q 550 911 550 951 q 528 825 550 857 q 467 793 506 793 q 400 810 436 793 q 364 819 376 819 q 329 801 346 819 q 290 733 313 782 q 283 714 285 718 q 278 676 278 696 q 298 633 278 643 q 354 622 318 622 q 390 628 368 622 q 419 635 413 633 q 486 649 467 649 q 519 617 519 649 q 497 551 519 579 q 436 522 474 522 q 389 532 421 522 q 358 539 371 539 q 311 525 329 539 q 293 485 293 511 q 296 463 293 471 q 354 310 317 394 q 397 201 383 243 q 411 125 411 158 q 374 33 411 64 q 244 0 336 1 l 208 0 z "},"G":{"ha":706,"x_min":21,"x_max":685,"o":"m 332 0 q 178 42 249 0 q 64 169 107 83 q 21 383 21 256 q 77 721 21 588 q 219 915 133 854 q 393 975 304 975 q 522 933 469 975 q 575 824 575 890 q 555 739 575 775 q 502 684 535 703 q 436 665 469 665 q 391 678 403 665 q 379 715 379 692 q 382 743 379 724 l 383 771 q 373 807 383 794 q 332 819 363 819 q 240 784 279 819 q 181 691 201 749 q 161 569 161 633 q 194 407 161 471 q 276 315 226 343 q 379 286 325 286 q 472 311 433 286 q 511 372 511 336 q 394 444 511 444 q 342 478 342 444 q 368 528 342 500 q 440 574 394 556 q 540 593 486 593 q 616 574 589 593 q 643 503 643 556 q 638 464 643 485 q 625 424 632 443 q 610 365 610 386 q 617 323 610 344 q 642 265 625 301 q 674 190 663 221 q 685 122 685 158 q 658 49 685 75 q 576 11 632 22 q 422 0 519 0 l 332 0 z "},"Ğ":{"ha":706,"x_min":21,"x_max":685,"o":"m 332 0 q 178 42 249 0 q 64 169 107 83 q 21 383 21 256 q 77 721 21 588 q 219 915 133 854 q 393 975 304 975 q 522 933 469 975 q 575 824 575 890 q 555 739 575 775 q 502 684 535 703 q 436 665 469 665 q 391 678 403 665 q 379 715 379 692 q 382 743 379 724 l 383 771 q 373 807 383 794 q 332 819 363 819 q 240 784 279 819 q 181 691 201 749 q 161 569 161 633 q 194 407 161 471 q 276 315 226 343 q 379 286 325 286 q 472 311 433 286 q 511 372 511 336 q 394 444 511 444 q 342 478 342 444 q 368 528 342 500 q 440 574 394 556 q 540 593 486 593 q 616 574 589 593 q 643 503 643 556 q 638 464 643 485 q 625 424 632 443 q 610 365 610 386 q 617 323 610 344 q 642 265 625 301 q 674 190 663 221 q 685 122 685 158 q 658 49 685 75 q 576 11 632 22 q 422 0 519 0 l 332 0 m 353 1024 q 281 1041 310 1024 q 237 1083 251 1058 q 222 1128 222 1107 q 235 1156 222 1146 q 263 1165 247 1165 q 290 1157 278 1165 q 301 1135 301 1149 q 351 1063 301 1063 q 403 1135 403 1063 q 415 1157 403 1149 q 442 1165 426 1165 q 470 1156 458 1165 q 482 1128 482 1146 q 468 1083 482 1107 q 425 1041 454 1058 q 353 1024 396 1024 z "},"Ģ":{"ha":706,"x_min":21,"x_max":685,"o":"m 332 0 q 178 42 249 0 q 64 169 107 83 q 21 383 21 256 q 77 721 21 588 q 219 915 133 854 q 393 975 304 975 q 522 933 469 975 q 575 824 575 890 q 555 739 575 775 q 502 684 535 703 q 436 665 469 665 q 391 678 403 665 q 379 715 379 692 q 382 743 379 724 l 383 771 q 373 807 383 794 q 332 819 363 819 q 240 784 279 819 q 181 691 201 749 q 161 569 161 633 q 194 407 161 471 q 276 315 226 343 q 379 286 325 286 q 472 311 433 286 q 511 372 511 336 q 394 444 511 444 q 342 478 342 444 q 368 528 342 500 q 440 574 394 556 q 540 593 486 593 q 616 574 589 593 q 643 503 643 556 q 638 464 643 485 q 625 424 632 443 q 610 365 610 386 q 617 323 610 344 q 642 265 625 301 q 674 190 663 221 q 685 122 685 158 q 658 49 685 75 q 576 11 632 22 q 422 0 519 0 l 332 0 m 358 -268 q 329 -236 329 -268 q 336 -193 329 -217 q 342 -162 338 -189 q 347 -86 347 -136 q 356 -60 347 -69 q 379 -51 365 -51 q 417 -67 400 -51 q 433 -106 433 -82 q 410 -212 433 -156 q 358 -268 386 -268 z "},"Ġ":{"ha":706,"x_min":21,"x_max":685,"o":"m 332 0 q 178 42 249 0 q 64 169 107 83 q 21 383 21 256 q 77 721 21 588 q 219 915 133 854 q 393 975 304 975 q 522 933 469 975 q 575 824 575 890 q 555 739 575 775 q 502 684 535 703 q 436 665 469 665 q 391 678 403 665 q 379 715 379 692 q 382 743 379 724 l 383 771 q 373 807 383 794 q 332 819 363 819 q 240 784 279 819 q 181 691 201 749 q 161 569 161 633 q 194 407 161 471 q 276 315 226 343 q 379 286 325 286 q 472 311 433 286 q 511 372 511 336 q 394 444 511 444 q 342 478 342 444 q 368 528 342 500 q 440 574 394 556 q 540 593 486 593 q 616 574 589 593 q 643 503 643 556 q 638 464 643 485 q 625 424 632 443 q 610 365 610 386 q 617 323 610 344 q 642 265 625 301 q 674 190 663 221 q 685 122 685 158 q 658 49 685 75 q 576 11 632 22 q 422 0 519 0 l 332 0 m 353 1024 q 303 1044 324 1024 q 283 1093 283 1064 q 303 1142 283 1122 q 353 1163 324 1163 q 402 1142 382 1163 q 422 1093 422 1122 q 402 1044 422 1064 q 353 1024 382 1024 z "},"H":{"ha":901,"x_min":42,"x_max":860,"o":"m 208 0 q 79 33 117 1 q 42 125 42 64 q 56 201 42 160 q 99 311 69 242 q 162 478 139 406 q 185 624 185 550 q 167 724 185 679 q 115 829 149 769 q 88 877 97 858 q 79 911 79 896 q 108 960 79 944 q 208 975 136 975 l 244 975 q 345 960 317 975 q 374 911 374 944 q 365 878 374 896 q 339 829 357 861 q 301 760 315 790 q 278 694 286 729 q 276 679 276 689 q 328 621 276 638 q 450 603 379 604 q 573 621 521 604 q 625 679 625 638 q 624 694 625 689 q 601 760 615 729 q 563 829 586 790 q 536 878 544 861 q 528 911 528 896 q 556 960 528 944 q 657 975 585 975 l 693 975 q 794 960 765 975 q 822 911 822 944 q 813 877 822 896 q 786 829 804 858 q 735 724 753 769 q 717 624 717 679 q 740 478 717 550 q 803 311 763 406 q 846 201 832 242 q 860 125 860 160 q 822 33 860 64 q 693 0 785 1 l 657 0 q 528 33 565 1 q 490 125 490 64 q 505 202 490 160 q 551 319 519 244 q 581 450 581 401 q 547 534 581 510 q 450 560 513 558 q 354 534 388 558 q 321 451 321 510 q 350 319 321 403 q 397 202 382 244 q 411 125 411 160 q 374 33 411 64 q 244 0 336 1 l 208 0 z "},"I":{"ha":453,"x_min":42,"x_max":411,"o":"m 208 0 q 79 33 117 1 q 42 125 42 64 q 56 201 42 160 q 99 311 69 242 q 162 478 139 406 q 185 624 185 550 q 167 724 185 679 q 115 829 149 769 q 88 877 97 858 q 79 911 79 896 q 108 960 79 944 q 208 975 136 975 l 244 975 q 345 960 317 975 q 374 911 374 944 q 365 877 374 896 q 338 829 356 858 q 286 724 304 769 q 268 624 268 679 q 291 478 268 550 q 354 311 314 406 q 397 201 383 242 q 411 125 411 160 q 374 33 411 64 q 244 0 336 1 l 208 0 z "},"Ĳ":{"ha":1036,"x_min":42,"x_max":994,"o":"m 208 0 q 79 33 117 1 q 42 125 42 64 q 56 201 42 160 q 99 311 69 242 q 162 478 139 406 q 185 624 185 550 q 167 724 185 679 q 115 829 149 769 q 88 877 97 858 q 79 911 79 896 q 108 960 79 944 q 208 975 136 975 l 244 975 q 345 960 317 975 q 374 911 374 944 q 365 877 374 896 q 338 829 356 858 q 286 724 304 769 q 268 624 268 679 q 291 478 268 550 q 354 311 314 406 q 397 201 383 242 q 411 125 411 160 q 374 33 411 64 q 244 0 336 1 l 208 0 m 828 975 q 928 960 900 975 q 957 911 957 944 q 948 877 957 896 q 921 829 939 858 q 869 724 888 769 q 851 624 851 679 q 874 478 851 550 q 938 311 897 406 q 981 201 967 242 q 994 125 994 160 q 957 33 994 64 q 828 0 919 1 l 650 0 q 519 47 561 0 q 474 167 476 94 l 474 171 l 474 174 q 499 290 475 249 q 558 332 524 332 q 610 324 574 332 q 656 317 649 317 q 708 374 683 317 q 768 624 768 519 q 753 727 768 688 q 719 787 739 767 q 669 826 700 807 q 627 860 640 844 q 614 906 614 876 q 663 958 614 940 q 792 975 711 975 l 828 975 z "},"Í":{"ha":453,"x_min":42,"x_max":411,"o":"m 208 0 q 79 33 117 1 q 42 125 42 64 q 56 201 42 160 q 99 311 69 242 q 162 478 139 406 q 185 624 185 550 q 167 724 185 679 q 115 829 149 769 q 88 877 97 858 q 79 911 79 896 q 108 960 79 944 q 208 975 136 975 l 244 975 q 345 960 317 975 q 374 911 374 944 q 365 877 374 896 q 338 829 356 858 q 286 724 304 769 q 268 624 268 679 q 291 478 268 550 q 354 311 314 406 q 397 201 383 242 q 411 125 411 160 q 374 33 411 64 q 244 0 336 1 l 208 0 m 174 1024 q 157 1030 164 1024 q 150 1043 150 1036 q 155 1064 150 1056 q 172 1088 160 1072 q 217 1165 204 1122 q 250 1192 225 1192 q 278 1180 267 1192 q 290 1150 290 1168 q 269 1098 290 1128 q 219 1046 247 1068 q 174 1024 190 1024 z "},"Î":{"ha":453,"x_min":42,"x_max":411,"o":"m 208 0 q 79 33 117 1 q 42 125 42 64 q 56 201 42 160 q 99 311 69 242 q 162 478 139 406 q 185 624 185 550 q 167 724 185 679 q 115 829 149 769 q 88 877 97 858 q 79 911 79 896 q 108 960 79 944 q 208 975 136 975 l 244 975 q 345 960 317 975 q 374 911 374 944 q 365 877 374 896 q 338 829 356 858 q 286 724 304 769 q 268 624 268 679 q 291 478 268 550 q 354 311 314 406 q 397 201 383 242 q 411 125 411 160 q 374 33 411 64 q 244 0 336 1 l 208 0 m 304 1024 q 251 1060 265 1024 q 238 1146 238 1097 q 214 1122 225 1146 q 203 1058 203 1099 q 191 1033 203 1043 q 164 1024 179 1024 q 135 1035 147 1024 q 124 1067 124 1046 q 145 1119 124 1089 q 196 1170 167 1149 q 246 1192 225 1192 q 265 1185 257 1192 q 274 1167 274 1178 q 284 1115 274 1136 q 313 1072 294 1093 q 323 1057 318 1064 q 328 1044 328 1050 q 322 1030 328 1036 q 304 1024 315 1024 z "},"Ï":{"ha":453,"x_min":42,"x_max":411,"o":"m 208 0 q 79 33 117 1 q 42 125 42 64 q 56 201 42 160 q 99 311 69 242 q 162 478 139 406 q 185 624 185 550 q 167 724 185 679 q 115 829 149 769 q 88 877 97 858 q 79 911 79 896 q 108 960 79 944 q 208 975 136 975 l 244 975 q 345 960 317 975 q 374 911 374 944 q 365 877 374 896 q 338 829 356 858 q 286 724 304 769 q 268 624 268 679 q 291 478 268 550 q 354 311 314 406 q 397 201 383 242 q 411 125 411 160 q 374 33 411 64 q 244 0 336 1 l 208 0 m 140 1024 q 91 1044 111 1024 q 71 1093 71 1064 q 91 1142 71 1122 q 140 1163 111 1163 q 190 1142 169 1163 q 210 1093 210 1122 q 190 1044 210 1064 q 140 1024 169 1024 m 242 1093 q 262 1142 242 1122 q 311 1163 282 1163 q 360 1142 340 1163 q 381 1093 381 1122 q 360 1044 381 1064 q 311 1024 340 1024 q 262 1044 282 1024 q 242 1093 242 1064 z "},"İ":{"ha":453,"x_min":42,"x_max":411,"o":"m 208 0 q 79 33 117 1 q 42 125 42 64 q 56 201 42 160 q 99 311 69 242 q 162 478 139 406 q 185 624 185 550 q 167 724 185 679 q 115 829 149 769 q 88 877 97 858 q 79 911 79 896 q 108 960 79 944 q 208 975 136 975 l 244 975 q 345 960 317 975 q 374 911 374 944 q 365 877 374 896 q 338 829 356 858 q 286 724 304 769 q 268 624 268 679 q 291 478 268 550 q 354 311 314 406 q 397 201 383 242 q 411 125 411 160 q 374 33 411 64 q 244 0 336 1 l 208 0 m 226 1024 q 177 1044 197 1024 q 157 1093 157 1064 q 177 1142 157 1122 q 226 1163 197 1163 q 276 1142 256 1163 q 296 1093 296 1122 q 276 1044 296 1064 q 226 1024 256 1024 z "},"Ì":{"ha":453,"x_min":42,"x_max":411,"o":"m 208 0 q 79 33 117 1 q 42 125 42 64 q 56 201 42 160 q 99 311 69 242 q 162 478 139 406 q 185 624 185 550 q 167 724 185 679 q 115 829 149 769 q 88 877 97 858 q 79 911 79 896 q 108 960 79 944 q 208 975 136 975 l 244 975 q 345 960 317 975 q 374 911 374 944 q 365 877 374 896 q 338 829 356 858 q 286 724 304 769 q 268 624 268 679 q 291 478 268 550 q 354 311 314 406 q 397 201 383 242 q 411 125 411 160 q 374 33 411 64 q 244 0 336 1 l 208 0 m 272 1024 q 227 1046 256 1024 q 177 1098 199 1068 q 156 1150 156 1128 q 167 1180 156 1168 q 196 1192 179 1192 q 229 1165 221 1192 q 274 1088 242 1122 q 291 1064 286 1072 q 296 1043 296 1056 q 289 1030 296 1036 q 272 1024 282 1024 z "},"Ī":{"ha":453,"x_min":42,"x_max":411,"o":"m 208 0 q 79 33 117 1 q 42 125 42 64 q 56 201 42 160 q 99 311 69 242 q 162 478 139 406 q 185 624 185 550 q 167 724 185 679 q 115 829 149 769 q 88 877 97 858 q 79 911 79 896 q 108 960 79 944 q 208 975 136 975 l 244 975 q 345 960 317 975 q 374 911 374 944 q 365 877 374 896 q 338 829 356 858 q 286 724 304 769 q 268 624 268 679 q 291 478 268 550 q 354 311 314 406 q 397 201 383 242 q 411 125 411 160 q 374 33 411 64 q 244 0 336 1 l 208 0 m 101 1022 q 79 1028 88 1022 q 71 1043 71 1035 q 130 1091 71 1068 q 244 1114 189 1114 q 343 1103 306 1114 q 381 1063 381 1093 q 372 1036 381 1049 q 346 1024 363 1024 q 296 1031 328 1024 q 214 1042 246 1042 q 135 1029 175 1042 q 101 1022 114 1022 z "},"Į":{"ha":453,"x_min":42,"x_max":411,"o":"m 208 0 q 79 33 117 1 q 42 125 42 64 q 56 201 42 160 q 99 311 69 242 q 162 478 139 406 q 185 624 185 550 q 167 724 185 679 q 115 829 149 769 q 88 877 97 858 q 79 911 79 896 q 108 960 79 944 q 208 975 136 975 l 244 975 q 345 960 317 975 q 374 911 374 944 q 365 877 374 896 q 338 829 356 858 q 286 724 304 769 q 268 624 268 679 q 291 478 268 550 q 354 311 314 406 q 397 201 383 242 q 411 125 411 160 q 375 33 411 65 q 253 0 339 1 q 219 -87 219 -57 q 231 -113 219 -104 q 271 -122 242 -122 q 292 -131 283 -122 q 300 -151 300 -139 q 284 -181 300 -168 q 236 -193 268 -193 q 154 -133 154 -193 q 177 -64 154 -101 q 226 0 200 -26 l 208 0 z "},"Ĩ":{"ha":453,"x_min":42,"x_max":411,"o":"m 208 0 q 79 33 117 1 q 42 125 42 64 q 56 201 42 160 q 99 311 69 242 q 162 478 139 406 q 185 624 185 550 q 167 724 185 679 q 115 829 149 769 q 88 877 97 858 q 79 911 79 896 q 108 960 79 944 q 208 975 136 975 l 244 975 q 345 960 317 975 q 374 911 374 944 q 365 877 374 896 q 338 829 356 858 q 286 724 304 769 q 268 624 268 679 q 291 478 268 550 q 354 311 314 406 q 397 201 383 242 q 411 125 411 160 q 374 33 411 64 q 244 0 336 1 l 208 0 m 299 1024 q 263 1034 276 1024 q 232 1067 250 1044 q 203 1097 215 1088 q 171 1107 190 1107 q 150 1099 158 1107 q 135 1078 142 1092 q 117 1054 125 1061 q 96 1047 110 1047 q 76 1057 83 1047 q 69 1081 69 1067 q 90 1139 69 1111 q 142 1167 110 1167 q 177 1156 161 1167 q 215 1122 193 1144 q 250 1092 236 1101 q 281 1082 264 1082 q 308 1090 299 1082 q 328 1114 318 1099 q 340 1131 335 1125 q 356 1138 346 1138 q 375 1129 368 1138 q 382 1107 382 1121 q 359 1050 382 1076 q 299 1024 336 1024 z "},"J":{"ha":583,"x_min":21,"x_max":542,"o":"m 375 975 q 476 960 447 975 q 504 911 504 944 q 495 877 504 896 q 468 829 486 858 q 417 724 435 769 q 399 624 399 679 q 422 478 399 550 q 485 311 444 406 q 528 201 514 242 q 542 125 542 160 q 504 33 542 64 q 375 0 467 1 l 197 0 q 66 47 108 0 q 21 167 24 94 l 21 171 l 21 174 q 47 290 22 249 q 106 332 71 332 q 157 324 121 332 q 203 317 196 317 q 256 374 231 317 q 315 624 315 519 q 301 727 315 688 q 267 787 286 767 q 217 826 247 807 q 174 860 188 844 q 161 906 161 876 q 210 958 161 940 q 339 975 258 975 l 375 975 z "},"K":{"ha":840,"x_min":42,"x_max":826,"o":"m 208 0 q 79 33 117 1 q 42 125 42 64 q 56 201 42 160 q 99 311 69 242 q 162 478 139 406 q 185 624 185 550 q 167 724 185 679 q 115 829 149 769 q 88 877 97 858 q 79 911 79 896 q 108 960 79 944 q 208 975 136 975 l 244 975 q 345 960 317 975 q 374 911 374 944 q 365 877 374 896 q 338 829 356 858 q 286 724 304 769 q 268 624 268 679 q 274 551 268 599 q 362 589 311 561 q 451 660 413 617 q 489 756 489 703 q 483 797 489 776 q 464 843 476 817 q 443 910 443 888 q 492 954 443 933 q 597 975 542 975 q 690 949 653 975 q 726 865 726 922 q 695 738 726 786 q 620 664 664 689 q 503 611 576 639 q 451 592 479 603 q 490 563 475 585 q 525 500 506 542 q 574 414 550 447 q 643 356 597 381 q 763 332 689 332 q 806 282 786 332 q 826 172 826 232 q 790 50 826 100 q 672 0 753 0 q 526 46 575 0 q 462 158 476 92 q 447 317 447 225 q 436 472 447 418 q 389 526 425 526 q 334 497 356 526 q 313 432 313 468 q 321 390 313 415 q 354 310 343 335 q 397 199 383 240 q 411 125 411 158 q 374 33 411 64 q 244 0 336 1 l 208 0 z "},"Ķ":{"ha":840,"x_min":42,"x_max":826,"o":"m 208 0 q 79 33 117 1 q 42 125 42 64 q 56 201 42 160 q 99 311 69 242 q 162 478 139 406 q 185 624 185 550 q 167 724 185 679 q 115 829 149 769 q 88 877 97 858 q 79 911 79 896 q 108 960 79 944 q 208 975 136 975 l 244 975 q 345 960 317 975 q 374 911 374 944 q 365 877 374 896 q 338 829 356 858 q 286 724 304 769 q 268 624 268 679 q 274 551 268 599 q 362 589 311 561 q 451 660 413 617 q 489 756 489 703 q 483 797 489 776 q 464 843 476 817 q 443 910 443 888 q 492 954 443 933 q 597 975 542 975 q 690 949 653 975 q 726 865 726 922 q 695 738 726 786 q 620 664 664 689 q 503 611 576 639 q 451 592 479 603 q 490 563 475 585 q 525 500 506 542 q 574 414 550 447 q 643 356 597 381 q 763 332 689 332 q 806 282 786 332 q 826 172 826 232 q 790 50 826 100 q 672 0 753 0 q 526 46 575 0 q 462 158 476 92 q 447 317 447 225 q 436 472 447 418 q 389 526 425 526 q 334 497 356 526 q 313 432 313 468 q 321 390 313 415 q 354 310 343 335 q 397 199 383 240 q 411 125 411 158 q 374 33 411 64 q 244 0 336 1 l 208 0 m 397 -269 q 368 -237 368 -269 q 375 -194 368 -218 q 381 -164 376 -190 q 386 -87 386 -137 q 395 -62 386 -71 q 418 -53 404 -53 q 456 -68 439 -53 q 472 -107 472 -83 q 449 -213 472 -157 q 397 -269 425 -269 z "},"L":{"ha":667,"x_min":42,"x_max":646,"o":"m 208 0 q 79 33 117 1 q 42 125 42 64 q 56 201 42 160 q 99 311 69 242 q 162 478 139 406 q 185 624 185 550 q 167 724 185 679 q 115 829 149 769 q 88 877 97 858 q 79 911 79 896 q 108 960 79 944 q 208 975 136 975 l 244 975 q 345 960 317 975 q 374 911 374 944 q 365 877 374 896 q 338 829 356 858 q 286 724 304 769 q 268 624 268 679 q 328 374 268 519 q 365 306 347 326 q 400 286 382 286 q 438 309 401 286 q 521 332 474 332 q 613 295 582 332 q 646 171 644 258 l 646 165 l 646 161 q 613 37 644 74 q 521 0 582 0 l 208 0 z "},"Ĺ":{"ha":667,"x_min":42,"x_max":646,"o":"m 208 0 q 79 33 117 1 q 42 125 42 64 q 56 201 42 160 q 99 311 69 242 q 162 478 139 406 q 185 624 185 550 q 167 724 185 679 q 115 829 149 769 q 88 877 97 858 q 79 911 79 896 q 108 960 79 944 q 208 975 136 975 l 244 975 q 345 960 317 975 q 374 911 374 944 q 365 877 374 896 q 338 829 356 858 q 286 724 304 769 q 268 624 268 679 q 328 374 268 519 q 365 306 347 326 q 400 286 382 286 q 438 309 401 286 q 521 332 474 332 q 613 295 582 332 q 646 171 644 258 l 646 165 l 646 161 q 613 37 644 74 q 521 0 582 0 l 208 0 m 208 1024 q 192 1030 199 1024 q 185 1043 185 1036 q 190 1064 185 1056 q 207 1088 194 1072 q 251 1165 239 1122 q 285 1192 260 1192 q 313 1180 301 1192 q 325 1150 325 1168 q 303 1098 325 1128 q 253 1046 282 1068 q 208 1024 225 1024 z "},"Ľ":{"ha":667,"x_min":42,"x_max":646,"o":"m 208 0 q 79 33 117 1 q 42 125 42 64 q 56 201 42 160 q 99 311 69 242 q 162 478 139 406 q 185 624 185 550 q 167 724 185 679 q 115 829 149 769 q 88 877 97 858 q 79 911 79 896 q 108 960 79 944 q 208 975 136 975 l 244 975 q 345 960 317 975 q 374 911 374 944 q 365 877 374 896 q 338 829 356 858 q 286 724 304 769 q 268 624 268 679 q 328 374 268 519 q 365 306 347 326 q 400 286 382 286 q 438 309 401 286 q 521 332 474 332 q 613 295 582 332 q 646 171 644 258 l 646 165 l 646 161 q 613 37 644 74 q 521 0 582 0 l 208 0 m 425 522 q 399 547 399 522 q 404 581 399 558 q 415 664 415 614 q 423 683 415 676 q 443 690 431 690 q 476 678 461 690 q 492 649 492 667 q 471 566 492 610 q 425 522 450 522 z "},"Ļ":{"ha":667,"x_min":42,"x_max":646,"o":"m 208 0 q 79 33 117 1 q 42 125 42 64 q 56 201 42 160 q 99 311 69 242 q 162 478 139 406 q 185 624 185 550 q 167 724 185 679 q 115 829 149 769 q 88 877 97 858 q 79 911 79 896 q 108 960 79 944 q 208 975 136 975 l 244 975 q 345 960 317 975 q 374 911 374 944 q 365 877 374 896 q 338 829 356 858 q 286 724 304 769 q 268 624 268 679 q 328 374 268 519 q 365 306 347 326 q 400 286 382 286 q 438 309 401 286 q 521 332 474 332 q 613 295 582 332 q 646 171 644 258 l 646 165 l 646 161 q 613 37 644 74 q 521 0 582 0 l 208 0 m 310 -269 q 281 -237 281 -269 q 288 -194 281 -218 q 294 -164 289 -190 q 299 -87 299 -137 q 308 -62 299 -71 q 331 -53 317 -53 q 368 -68 351 -53 q 385 -107 385 -83 q 361 -213 385 -157 q 310 -269 338 -269 z "},"Ł":{"ha":667,"x_min":42,"x_max":646,"o":"m 208 0 q 79 33 117 1 q 42 125 42 64 q 56 201 42 158 q 99 311 69 243 q 143 422 126 378 q 171 514 160 467 l 97 499 q 89 497 94 497 q 72 507 78 497 q 65 529 65 517 q 74 556 65 543 q 97 572 82 569 l 183 590 q 185 624 185 601 q 167 724 185 679 q 115 829 149 769 q 88 877 97 858 q 79 911 79 896 q 108 960 79 944 q 208 975 136 975 l 244 975 q 345 960 317 975 q 374 911 374 944 q 365 877 374 896 q 338 829 356 858 q 286 724 304 769 q 268 624 268 679 l 268 607 l 422 639 l 432 640 q 453 610 453 640 q 445 581 453 593 q 422 565 438 568 l 276 536 q 328 374 290 467 q 365 306 347 326 q 400 286 382 286 q 438 309 401 286 q 521 332 474 332 q 613 295 582 332 q 646 171 644 258 l 646 165 l 646 161 q 613 37 644 74 q 521 0 582 0 l 208 0 z "},"M":{"ha":1068,"x_min":42,"x_max":1026,"o":"m 208 0 q 79 33 117 1 q 42 125 42 64 q 56 201 42 160 q 99 311 69 242 q 162 478 139 406 q 185 624 185 550 q 167 724 185 679 q 115 829 149 769 q 88 877 97 858 q 79 911 79 896 q 108 960 79 944 q 208 975 136 975 l 244 975 q 345 960 317 975 q 374 911 374 944 l 374 910 l 374 910 q 398 744 374 832 q 460 597 422 657 q 535 535 497 536 q 608 597 571 536 q 670 744 646 657 q 694 910 694 832 l 694 911 q 723 960 694 944 q 824 975 751 975 l 860 975 q 960 960 932 975 q 989 911 989 944 q 980 877 989 896 q 953 829 971 858 q 901 724 919 769 q 883 624 883 679 q 906 478 883 550 q 969 311 929 406 q 1013 201 999 242 q 1026 125 1026 160 q 989 33 1026 64 q 860 0 951 1 l 828 0 l 824 0 q 672 125 672 1 q 685 203 672 160 q 724 313 697 246 q 778 473 758 403 q 800 614 799 543 q 782 632 799 632 q 702 597 747 632 q 624 488 657 563 q 590 303 590 414 q 608 200 590 267 q 621 136 621 156 q 602 97 621 110 q 536 83 583 85 l 535 83 l 532 83 q 466 97 485 85 q 447 136 447 110 q 460 200 447 156 q 478 303 478 267 q 444 488 478 414 q 366 597 411 563 q 286 632 321 632 q 268 614 269 632 q 290 473 269 543 q 344 313 310 403 q 383 203 371 246 q 396 125 396 160 q 244 0 396 1 l 208 0 z "},"N":{"ha":901,"x_min":42,"x_max":860,"o":"m 208 0 q 79 33 117 1 q 42 125 42 64 q 56 201 42 160 q 99 311 69 242 q 162 478 139 406 q 185 624 185 550 q 167 724 185 679 q 115 829 149 769 q 88 877 97 858 q 79 911 79 896 q 108 960 79 944 q 208 975 136 975 l 244 975 q 345 960 317 975 q 374 911 374 944 q 365 878 374 897 q 339 829 357 860 l 321 797 q 314 767 314 788 q 356 669 314 724 q 458 574 399 614 q 564 535 518 535 q 633 626 633 535 q 614 726 632 681 q 564 828 596 771 q 536 878 544 861 q 528 911 528 896 q 556 960 528 944 q 657 975 585 975 l 693 975 q 794 960 765 975 q 822 911 822 944 q 813 877 822 896 q 786 829 804 858 q 735 724 753 769 q 717 624 717 679 q 740 478 717 550 q 803 311 763 406 q 846 201 832 242 q 860 125 860 160 q 822 33 860 64 q 693 0 785 1 l 657 0 q 528 33 565 1 q 490 125 490 64 q 522 250 490 167 q 533 308 533 274 q 486 451 533 376 q 378 579 439 526 q 286 632 317 632 q 268 614 269 632 q 290 478 269 543 q 353 311 311 413 q 397 201 383 242 q 411 125 411 160 q 374 33 411 64 q 244 0 336 1 l 208 0 z "},"Ń":{"ha":901,"x_min":42,"x_max":860,"o":"m 208 0 q 79 33 117 1 q 42 125 42 64 q 56 201 42 160 q 99 311 69 242 q 162 478 139 406 q 185 624 185 550 q 167 724 185 679 q 115 829 149 769 q 88 877 97 858 q 79 911 79 896 q 108 960 79 944 q 208 975 136 975 l 244 975 q 345 960 317 975 q 374 911 374 944 q 365 878 374 897 q 339 829 357 860 l 321 797 q 314 767 314 788 q 356 669 314 724 q 458 574 399 614 q 564 535 518 535 q 633 626 633 535 q 614 726 632 681 q 564 828 596 771 q 536 878 544 861 q 528 911 528 896 q 556 960 528 944 q 657 975 585 975 l 693 975 q 794 960 765 975 q 822 911 822 944 q 813 877 822 896 q 786 829 804 858 q 735 724 753 769 q 717 624 717 679 q 740 478 717 550 q 803 311 763 406 q 846 201 832 242 q 860 125 860 160 q 822 33 860 64 q 693 0 785 1 l 657 0 q 528 33 565 1 q 490 125 490 64 q 522 250 490 167 q 533 308 533 274 q 486 451 533 376 q 378 579 439 526 q 286 632 317 632 q 268 614 269 632 q 290 478 269 543 q 353 311 311 413 q 397 201 383 242 q 411 125 411 160 q 374 33 411 64 q 244 0 336 1 l 208 0 m 399 1024 q 382 1030 389 1024 q 375 1043 375 1036 q 380 1064 375 1056 q 397 1088 385 1072 q 442 1165 429 1122 q 475 1192 450 1192 q 503 1180 492 1192 q 515 1150 515 1168 q 494 1098 515 1128 q 444 1046 472 1068 q 399 1024 415 1024 z "},"Ň":{"ha":901,"x_min":42,"x_max":860,"o":"m 208 0 q 79 33 117 1 q 42 125 42 64 q 56 201 42 160 q 99 311 69 242 q 162 478 139 406 q 185 624 185 550 q 167 724 185 679 q 115 829 149 769 q 88 877 97 858 q 79 911 79 896 q 108 960 79 944 q 208 975 136 975 l 244 975 q 345 960 317 975 q 374 911 374 944 q 365 878 374 897 q 339 829 357 860 l 321 797 q 314 767 314 788 q 356 669 314 724 q 458 574 399 614 q 564 535 518 535 q 633 626 633 535 q 614 726 632 681 q 564 828 596 771 q 536 878 544 861 q 528 911 528 896 q 556 960 528 944 q 657 975 585 975 l 693 975 q 794 960 765 975 q 822 911 822 944 q 813 877 822 896 q 786 829 804 858 q 735 724 753 769 q 717 624 717 679 q 740 478 717 550 q 803 311 763 406 q 846 201 832 242 q 860 125 860 160 q 822 33 860 64 q 693 0 785 1 l 657 0 q 528 33 565 1 q 490 125 490 64 q 522 250 490 167 q 533 308 533 274 q 486 451 533 376 q 378 579 439 526 q 286 632 317 632 q 268 614 269 632 q 290 478 269 543 q 353 311 311 413 q 397 201 383 242 q 411 125 411 160 q 374 33 411 64 q 244 0 336 1 l 208 0 m 431 1024 q 411 1031 419 1024 q 403 1049 403 1038 q 392 1101 403 1081 q 364 1143 382 1122 q 353 1158 358 1151 q 349 1171 349 1165 q 355 1185 349 1179 q 372 1192 361 1192 q 425 1155 411 1192 q 439 1069 439 1118 q 463 1093 451 1069 q 474 1157 474 1117 q 485 1182 474 1172 q 513 1192 497 1192 q 541 1181 529 1192 q 553 1149 553 1169 q 531 1097 553 1126 q 481 1045 510 1067 q 431 1024 451 1024 z "},"Ņ":{"ha":901,"x_min":42,"x_max":860,"o":"m 208 0 q 79 33 117 1 q 42 125 42 64 q 56 201 42 160 q 99 311 69 242 q 162 478 139 406 q 185 624 185 550 q 167 724 185 679 q 115 829 149 769 q 88 877 97 858 q 79 911 79 896 q 108 960 79 944 q 208 975 136 975 l 244 975 q 345 960 317 975 q 374 911 374 944 q 365 878 374 897 q 339 829 357 860 l 321 797 q 314 767 314 788 q 356 669 314 724 q 458 574 399 614 q 564 535 518 535 q 633 626 633 535 q 614 726 632 681 q 564 828 596 771 q 536 878 544 861 q 528 911 528 896 q 556 960 528 944 q 657 975 585 975 l 693 975 q 794 960 765 975 q 822 911 822 944 q 813 877 822 896 q 786 829 804 858 q 735 724 753 769 q 717 624 717 679 q 740 478 717 550 q 803 311 763 406 q 846 201 832 242 q 860 125 860 160 q 822 33 860 64 q 693 0 785 1 l 657 0 q 528 33 565 1 q 490 125 490 64 q 522 250 490 167 q 533 308 533 274 q 486 451 533 376 q 378 579 439 526 q 286 632 317 632 q 268 614 269 632 q 290 478 269 543 q 353 311 311 413 q 397 201 383 242 q 411 125 411 160 q 374 33 411 64 q 244 0 336 1 l 208 0 m 428 -269 q 399 -237 399 -269 q 406 -194 399 -218 q 412 -164 407 -190 q 417 -87 417 -137 q 426 -62 417 -71 q 449 -53 435 -53 q 486 -68 469 -53 q 503 -107 503 -83 q 479 -213 503 -157 q 428 -269 456 -269 z "},"Ñ":{"ha":901,"x_min":42,"x_max":860,"o":"m 208 0 q 79 33 117 1 q 42 125 42 64 q 56 201 42 160 q 99 311 69 242 q 162 478 139 406 q 185 624 185 550 q 167 724 185 679 q 115 829 149 769 q 88 877 97 858 q 79 911 79 896 q 108 960 79 944 q 208 975 136 975 l 244 975 q 345 960 317 975 q 374 911 374 944 q 365 878 374 897 q 339 829 357 860 l 321 797 q 314 767 314 788 q 356 669 314 724 q 458 574 399 614 q 564 535 518 535 q 633 626 633 535 q 614 726 632 681 q 564 828 596 771 q 536 878 544 861 q 528 911 528 896 q 556 960 528 944 q 657 975 585 975 l 693 975 q 794 960 765 975 q 822 911 822 944 q 813 877 822 896 q 786 829 804 858 q 735 724 753 769 q 717 624 717 679 q 740 478 717 550 q 803 311 763 406 q 846 201 832 242 q 860 125 860 160 q 822 33 860 64 q 693 0 785 1 l 657 0 q 528 33 565 1 q 490 125 490 64 q 522 250 490 167 q 533 308 533 274 q 486 451 533 376 q 378 579 439 526 q 286 632 317 632 q 268 614 269 632 q 290 478 269 543 q 353 311 311 413 q 397 201 383 242 q 411 125 411 160 q 374 33 411 64 q 244 0 336 1 l 208 0 m 524 1024 q 488 1034 501 1024 q 457 1067 475 1044 q 428 1097 440 1088 q 396 1107 415 1107 q 375 1099 383 1107 q 360 1078 367 1092 q 342 1054 350 1061 q 321 1047 335 1047 q 301 1057 308 1047 q 294 1081 294 1067 q 315 1139 294 1111 q 367 1167 335 1167 q 402 1156 386 1167 q 440 1122 418 1144 q 475 1092 461 1101 q 506 1082 489 1082 q 533 1090 524 1082 q 553 1114 543 1099 q 565 1131 560 1125 q 581 1138 571 1138 q 600 1129 593 1138 q 607 1107 607 1121 q 584 1050 607 1076 q 524 1024 561 1024 z "},"O":{"ha":719,"x_min":21,"x_max":699,"o":"m 361 0 q 167 50 243 0 q 56 181 92 100 q 21 358 21 263 q 31 447 21 404 q 60 546 40 489 q 83 626 75 593 q 92 690 92 660 q 130 840 92 775 q 230 940 168 906 q 360 975 292 975 q 494 940 432 975 q 595 841 557 906 q 633 690 633 776 q 641 628 633 660 q 663 550 649 596 q 690 444 682 483 q 699 358 699 406 q 664 183 699 264 q 553 51 629 101 q 361 0 478 0 m 154 574 q 209 359 154 443 q 361 275 264 275 q 514 359 458 275 q 569 574 569 443 q 543 690 569 633 q 469 783 517 747 q 360 819 421 819 q 253 783 300 819 q 180 690 206 747 q 154 574 154 633 z "},"Ó":{"ha":719,"x_min":21,"x_max":699,"o":"m 361 0 q 167 50 243 0 q 56 181 92 100 q 21 358 21 263 q 31 447 21 404 q 60 546 40 489 q 83 626 75 593 q 92 690 92 660 q 130 840 92 775 q 230 940 168 906 q 360 975 292 975 q 494 940 432 975 q 595 841 557 906 q 633 690 633 776 q 641 628 633 660 q 663 550 649 596 q 690 444 682 483 q 699 358 699 406 q 664 183 699 264 q 553 51 629 101 q 361 0 478 0 m 154 574 q 209 359 154 443 q 361 275 264 275 q 514 359 458 275 q 569 574 569 443 q 543 690 569 633 q 469 783 517 747 q 360 819 421 819 q 253 783 300 819 q 180 690 206 747 q 154 574 154 633 m 307 1024 q 290 1030 297 1024 q 283 1043 283 1036 q 288 1064 283 1056 q 306 1088 293 1072 q 350 1165 338 1122 q 383 1192 358 1192 q 412 1180 400 1192 q 424 1150 424 1168 q 402 1098 424 1128 q 352 1046 381 1068 q 307 1024 324 1024 z "},"Ô":{"ha":719,"x_min":21,"x_max":699,"o":"m 361 0 q 167 50 243 0 q 56 181 92 100 q 21 358 21 263 q 31 447 21 404 q 60 546 40 489 q 83 626 75 593 q 92 690 92 660 q 130 840 92 775 q 230 940 168 906 q 360 975 292 975 q 494 940 432 975 q 595 841 557 906 q 633 690 633 776 q 641 628 633 660 q 663 550 649 596 q 690 444 682 483 q 699 358 699 406 q 664 183 699 264 q 553 51 629 101 q 361 0 478 0 m 154 574 q 209 359 154 443 q 361 275 264 275 q 514 359 458 275 q 569 574 569 443 q 543 690 569 633 q 469 783 517 747 q 360 819 421 819 q 253 783 300 819 q 180 690 206 747 q 154 574 154 633 m 438 1024 q 385 1060 399 1024 q 371 1146 371 1097 q 347 1122 358 1146 q 336 1058 336 1099 q 324 1033 336 1043 q 297 1024 313 1024 q 269 1035 281 1024 q 257 1067 257 1046 q 278 1119 257 1089 q 329 1170 300 1149 q 379 1192 358 1192 q 399 1185 390 1192 q 407 1167 407 1178 q 417 1115 407 1136 q 446 1072 428 1093 q 456 1057 451 1064 q 461 1044 461 1050 q 455 1030 461 1036 q 438 1024 449 1024 z "},"Ö":{"ha":719,"x_min":21,"x_max":699,"o":"m 361 0 q 167 50 243 0 q 56 181 92 100 q 21 358 21 263 q 31 447 21 404 q 60 546 40 489 q 83 626 75 593 q 92 690 92 660 q 130 840 92 775 q 230 940 168 906 q 360 975 292 975 q 494 940 432 975 q 595 841 557 906 q 633 690 633 776 q 641 628 633 660 q 663 550 649 596 q 690 444 682 483 q 699 358 699 406 q 664 183 699 264 q 553 51 629 101 q 361 0 478 0 m 154 574 q 209 359 154 443 q 361 275 264 275 q 514 359 458 275 q 569 574 569 443 q 543 690 569 633 q 469 783 517 747 q 360 819 421 819 q 253 783 300 819 q 180 690 206 747 q 154 574 154 633 m 274 1024 q 224 1044 244 1024 q 204 1093 204 1064 q 224 1142 204 1122 q 274 1163 244 1163 q 323 1142 303 1163 q 343 1093 343 1122 q 323 1044 343 1064 q 274 1024 303 1024 m 375 1093 q 395 1142 375 1122 q 444 1163 415 1163 q 494 1142 474 1163 q 514 1093 514 1122 q 494 1044 514 1064 q 444 1024 474 1024 q 395 1044 415 1024 q 375 1093 375 1064 z "},"Ò":{"ha":719,"x_min":21,"x_max":699,"o":"m 361 0 q 167 50 243 0 q 56 181 92 100 q 21 358 21 263 q 31 447 21 404 q 60 546 40 489 q 83 626 75 593 q 92 690 92 660 q 130 840 92 775 q 230 940 168 906 q 360 975 292 975 q 494 940 432 975 q 595 841 557 906 q 633 690 633 776 q 641 628 633 660 q 663 550 649 596 q 690 444 682 483 q 699 358 699 406 q 664 183 699 264 q 553 51 629 101 q 361 0 478 0 m 154 574 q 209 359 154 443 q 361 275 264 275 q 514 359 458 275 q 569 574 569 443 q 543 690 569 633 q 469 783 517 747 q 360 819 421 819 q 253 783 300 819 q 180 690 206 747 q 154 574 154 633 m 406 1024 q 360 1046 389 1024 q 310 1098 332 1068 q 289 1150 289 1128 q 301 1180 289 1168 q 329 1192 313 1192 q 363 1165 354 1192 q 407 1088 375 1122 q 424 1064 419 1072 q 429 1043 429 1056 q 422 1030 429 1036 q 406 1024 415 1024 z "},"Ő":{"ha":719,"x_min":21,"x_max":699,"o":"m 361 0 q 167 50 243 0 q 56 181 92 100 q 21 358 21 263 q 31 447 21 404 q 60 546 40 489 q 83 626 75 593 q 92 690 92 660 q 130 840 92 775 q 230 940 168 906 q 360 975 292 975 q 494 940 432 975 q 595 841 557 906 q 633 690 633 776 q 641 628 633 660 q 663 550 649 596 q 690 444 682 483 q 699 358 699 406 q 664 183 699 264 q 553 51 629 101 q 361 0 478 0 m 154 574 q 209 359 154 443 q 361 275 264 275 q 514 359 458 275 q 569 574 569 443 q 543 690 569 633 q 469 783 517 747 q 360 819 421 819 q 253 783 300 819 q 180 690 206 747 q 154 574 154 633 m 254 1024 q 238 1030 244 1024 q 231 1043 231 1036 q 235 1064 231 1056 q 253 1088 240 1072 q 297 1165 285 1122 q 331 1192 306 1192 q 359 1180 347 1192 q 371 1150 371 1168 q 349 1098 371 1128 q 299 1046 328 1068 q 254 1024 271 1024 m 349 1043 q 353 1064 349 1056 q 371 1088 358 1072 q 415 1165 403 1122 q 449 1192 424 1192 q 477 1180 465 1192 q 489 1150 489 1168 q 467 1098 489 1128 q 417 1046 446 1068 q 372 1024 389 1024 q 356 1030 363 1024 q 349 1043 349 1036 z "},"Ō":{"ha":719,"x_min":21,"x_max":699,"o":"m 361 0 q 167 50 243 0 q 56 181 92 100 q 21 358 21 263 q 31 447 21 404 q 60 546 40 489 q 83 626 75 593 q 92 690 92 660 q 130 840 92 775 q 230 940 168 906 q 360 975 292 975 q 494 940 432 975 q 595 841 557 906 q 633 690 633 776 q 641 628 633 660 q 663 550 649 596 q 690 444 682 483 q 699 358 699 406 q 664 183 699 264 q 553 51 629 101 q 361 0 478 0 m 154 574 q 209 359 154 443 q 361 275 264 275 q 514 359 458 275 q 569 574 569 443 q 543 690 569 633 q 469 783 517 747 q 360 819 421 819 q 253 783 300 819 q 180 690 206 747 q 154 574 154 633 m 235 1022 q 213 1028 221 1022 q 204 1043 204 1035 q 263 1091 204 1068 q 378 1114 322 1114 q 476 1103 439 1114 q 514 1063 514 1093 q 505 1036 514 1049 q 479 1024 496 1024 q 429 1031 461 1024 q 347 1042 379 1042 q 268 1029 308 1042 q 235 1022 247 1022 z "},"Ø":{"ha":719,"x_min":21,"x_max":699,"o":"m 361 0 q 199 33 269 0 q 172 2 185 10 q 140 -6 158 -6 q 120 3 128 -6 q 113 25 113 11 q 119 53 113 35 l 131 78 q 48 201 75 128 q 21 358 21 275 q 31 447 21 404 q 60 546 40 489 q 83 626 75 593 q 92 690 92 660 q 130 840 92 775 q 230 940 168 906 q 360 975 292 975 q 511 931 443 975 l 522 956 q 571 985 536 985 q 585 981 579 985 q 592 968 592 976 q 589 956 592 964 l 561 889 q 633 690 633 810 q 641 628 633 660 q 663 550 649 596 q 690 444 682 483 q 699 358 699 406 q 664 183 699 264 q 553 51 629 101 q 361 0 478 0 m 154 574 q 176 426 154 492 q 240 322 199 361 l 451 796 q 360 819 408 819 q 253 783 300 819 q 180 690 206 747 q 154 574 154 633 m 306 283 q 361 275 331 275 q 514 359 458 275 q 569 574 569 443 q 552 669 569 622 q 503 753 535 717 l 306 283 z "},"Õ":{"ha":719,"x_min":21,"x_max":699,"o":"m 361 0 q 167 50 243 0 q 56 181 92 100 q 21 358 21 263 q 31 447 21 404 q 60 546 40 489 q 83 626 75 593 q 92 690 92 660 q 130 840 92 775 q 230 940 168 906 q 360 975 292 975 q 494 940 432 975 q 595 841 557 906 q 633 690 633 776 q 641 628 633 660 q 663 550 649 596 q 690 444 682 483 q 699 358 699 406 q 664 183 699 264 q 553 51 629 101 q 361 0 478 0 m 154 574 q 209 359 154 443 q 361 275 264 275 q 514 359 458 275 q 569 574 569 443 q 543 690 569 633 q 469 783 517 747 q 360 819 421 819 q 253 783 300 819 q 180 690 206 747 q 154 574 154 633 m 432 1024 q 397 1034 410 1024 q 365 1067 383 1044 q 336 1097 349 1088 q 304 1107 324 1107 q 283 1099 292 1107 q 268 1078 275 1092 q 251 1054 258 1061 q 229 1047 243 1047 q 210 1057 217 1047 q 203 1081 203 1067 q 223 1139 203 1111 q 275 1167 243 1167 q 310 1156 294 1167 q 349 1122 326 1144 q 383 1092 369 1101 q 414 1082 397 1082 q 442 1090 432 1082 q 461 1114 451 1099 q 474 1131 468 1125 q 489 1138 479 1138 q 508 1129 501 1138 q 515 1107 515 1121 q 492 1050 515 1076 q 432 1024 469 1024 z "},"Œ":{"ha":1111,"x_min":21,"x_max":1083,"o":"m 361 0 q 167 50 243 0 q 56 181 92 100 q 21 358 21 263 q 31 447 21 404 q 60 546 40 489 q 83 626 75 593 q 92 690 92 660 q 130 840 92 775 q 230 940 168 906 q 360 975 292 975 q 518 925 450 975 q 553 963 524 951 q 646 975 582 975 l 682 975 l 688 975 l 688 975 q 749 976 719 975 q 799 979 778 978 q 885 983 849 983 q 960 967 933 983 q 988 911 988 951 q 965 825 988 857 q 904 793 943 793 q 838 810 874 793 q 801 819 814 819 q 767 801 783 819 q 728 733 750 782 q 721 714 722 718 q 715 676 715 696 q 735 633 715 643 q 792 622 756 622 q 828 628 806 622 q 857 635 850 633 q 924 649 904 649 q 957 617 957 649 q 934 551 957 579 q 874 522 911 522 q 826 532 858 522 q 796 539 808 539 q 749 525 767 539 q 731 485 731 511 q 733 463 731 471 q 765 374 744 424 q 802 306 785 326 q 838 286 819 286 q 875 309 839 286 q 958 332 911 332 q 1051 295 1019 332 q 1083 171 1082 258 l 1083 165 l 1083 161 q 1051 37 1082 74 q 958 0 1019 0 l 646 0 q 518 32 558 0 q 361 0 451 0 m 154 574 q 209 359 154 443 q 361 275 264 275 q 514 359 458 275 q 569 574 569 443 q 543 690 569 633 q 469 783 517 747 q 360 819 421 819 q 253 783 300 819 q 180 690 206 747 q 154 574 154 633 z "},"P":{"ha":651,"x_min":42,"x_max":638,"o":"m 208 0 q 79 33 117 1 q 42 125 42 64 q 56 201 42 160 q 99 311 69 242 q 162 478 139 406 q 185 624 185 550 q 167 724 185 679 q 115 829 149 769 q 88 877 97 858 q 79 911 79 896 q 104 958 79 943 q 190 975 129 974 l 428 975 q 584 898 531 975 q 638 710 638 821 q 611 556 638 631 q 537 435 585 482 q 426 389 489 389 q 303 442 360 389 q 356 308 318 396 q 398 198 385 238 q 411 125 411 158 q 374 33 411 64 q 244 0 336 1 l 208 0 m 315 668 q 329 569 315 618 q 367 488 343 519 q 418 457 390 457 q 469 488 446 457 q 508 569 493 519 q 522 668 522 618 q 497 777 522 735 q 418 819 471 819 q 340 777 365 819 q 315 668 315 735 z "},"Þ":{"ha":651,"x_min":42,"x_max":638,"o":"m 208 0 q 79 33 117 1 q 42 125 42 64 q 56 201 42 160 q 99 311 69 242 q 162 478 139 406 q 185 624 185 550 q 167 724 185 679 q 115 829 149 769 q 88 877 97 858 q 79 911 79 896 q 108 960 79 944 q 208 975 136 975 l 244 975 q 345 960 317 975 q 374 911 374 944 q 365 877 374 896 q 335 822 356 858 l 428 822 q 584 745 531 822 q 638 557 638 668 q 611 403 638 478 q 537 283 585 329 q 426 236 489 236 q 349 256 388 236 q 374 125 374 168 q 340 35 374 68 q 244 0 306 1 l 208 0 m 315 515 q 329 416 315 465 q 367 335 343 367 q 418 304 390 304 q 469 335 446 304 q 508 416 493 367 q 522 515 522 465 q 497 624 522 582 q 418 667 471 667 q 340 624 365 667 q 315 515 315 582 z "},"Q":{"ha":719,"x_min":21,"x_max":699,"o":"m 96 -135 q 58 -119 72 -135 q 44 -81 44 -104 q 84 -8 44 -37 q 215 25 124 21 q 69 156 117 65 q 21 358 21 246 q 31 447 21 404 q 60 546 40 489 q 83 626 75 593 q 92 690 92 660 q 130 840 92 775 q 230 940 168 906 q 360 975 292 975 q 494 940 432 975 q 595 841 557 906 q 633 690 633 776 q 641 628 633 660 q 663 550 649 596 q 690 444 682 483 q 699 358 699 406 q 668 193 699 271 q 571 63 638 115 q 403 1 504 11 q 482 -15 444 -10 q 572 -21 519 -21 q 598 -35 589 -21 q 607 -72 607 -50 q 577 -145 607 -112 q 490 -178 547 -178 q 424 -157 456 -178 q 353 -97 393 -136 q 295 -48 318 -64 q 249 -32 272 -32 q 203 -47 222 -32 q 160 -89 183 -61 q 127 -123 142 -111 q 96 -135 113 -135 m 154 574 q 209 359 154 443 q 361 275 264 275 q 514 359 458 275 q 569 574 569 443 q 543 690 569 633 q 469 783 517 747 q 360 819 421 819 q 253 783 300 819 q 180 690 206 747 q 154 574 154 633 z "},"R":{"ha":840,"x_min":42,"x_max":826,"o":"m 208 0 q 79 33 117 1 q 42 125 42 64 q 56 201 42 160 q 99 311 69 242 q 162 478 139 406 q 185 624 185 550 q 167 724 185 679 q 115 829 149 769 q 88 877 97 858 q 79 911 79 896 q 104 958 79 943 q 190 975 129 974 l 451 975 q 623 915 564 975 q 682 769 682 856 q 656 656 682 711 q 581 563 629 600 q 468 519 532 525 q 500 476 481 510 q 551 405 525 433 q 628 354 576 376 q 763 332 681 332 q 806 282 786 332 q 826 172 826 232 q 790 50 826 100 q 672 0 753 0 q 530 42 576 0 q 469 142 483 83 q 451 293 456 200 q 440 408 447 367 q 410 476 433 449 q 336 503 386 503 q 300 465 303 503 q 308 424 300 449 q 354 308 321 386 q 397 200 383 242 q 411 125 411 158 q 374 33 411 64 q 244 0 336 1 l 208 0 m 328 715 q 361 617 328 663 q 440 572 394 572 q 520 617 486 572 q 554 715 554 663 q 526 790 554 761 q 440 819 499 819 q 355 790 382 819 q 328 715 328 761 z "},"Ŕ":{"ha":840,"x_min":42,"x_max":826,"o":"m 208 0 q 79 33 117 1 q 42 125 42 64 q 56 201 42 160 q 99 311 69 242 q 162 478 139 406 q 185 624 185 550 q 167 724 185 679 q 115 829 149 769 q 88 877 97 858 q 79 911 79 896 q 104 958 79 943 q 190 975 129 974 l 451 975 q 623 915 564 975 q 682 769 682 856 q 656 656 682 711 q 581 563 629 600 q 468 519 532 525 q 500 476 481 510 q 551 405 525 433 q 628 354 576 376 q 763 332 681 332 q 806 282 786 332 q 826 172 826 232 q 790 50 826 100 q 672 0 753 0 q 530 42 576 0 q 469 142 483 83 q 451 293 456 200 q 440 408 447 367 q 410 476 433 449 q 336 503 386 503 q 300 465 303 503 q 308 424 300 449 q 354 308 321 386 q 397 200 383 242 q 411 125 411 158 q 374 33 411 64 q 244 0 336 1 l 208 0 m 328 715 q 361 617 328 663 q 440 572 394 572 q 520 617 486 572 q 554 715 554 663 q 526 790 554 761 q 440 819 499 819 q 355 790 382 819 q 328 715 328 761 m 368 1024 q 351 1030 358 1024 q 344 1043 344 1036 q 349 1064 344 1056 q 367 1088 354 1072 q 411 1165 399 1122 q 444 1192 419 1192 q 473 1180 461 1192 q 485 1150 485 1168 q 463 1098 485 1128 q 413 1046 442 1068 q 368 1024 385 1024 z "},"Ř":{"ha":840,"x_min":42,"x_max":826,"o":"m 208 0 q 79 33 117 1 q 42 125 42 64 q 56 201 42 160 q 99 311 69 242 q 162 478 139 406 q 185 624 185 550 q 167 724 185 679 q 115 829 149 769 q 88 877 97 858 q 79 911 79 896 q 104 958 79 943 q 190 975 129 974 l 451 975 q 623 915 564 975 q 682 769 682 856 q 656 656 682 711 q 581 563 629 600 q 468 519 532 525 q 500 476 481 510 q 551 405 525 433 q 628 354 576 376 q 763 332 681 332 q 806 282 786 332 q 826 172 826 232 q 790 50 826 100 q 672 0 753 0 q 530 42 576 0 q 469 142 483 83 q 451 293 456 200 q 440 408 447 367 q 410 476 433 449 q 336 503 386 503 q 300 465 303 503 q 308 424 300 449 q 354 308 321 386 q 397 200 383 242 q 411 125 411 158 q 374 33 411 64 q 244 0 336 1 l 208 0 m 328 715 q 361 617 328 663 q 440 572 394 572 q 520 617 486 572 q 554 715 554 663 q 526 790 554 761 q 440 819 499 819 q 355 790 382 819 q 328 715 328 761 m 400 1024 q 381 1031 389 1024 q 372 1049 372 1038 q 362 1101 372 1081 q 333 1143 351 1122 q 323 1158 328 1151 q 318 1171 318 1165 q 324 1185 318 1179 q 342 1192 331 1192 q 394 1155 381 1192 q 408 1069 408 1118 q 432 1093 421 1069 q 443 1157 443 1117 q 455 1182 443 1172 q 482 1192 467 1192 q 510 1181 499 1192 q 522 1149 522 1169 q 501 1097 522 1126 q 450 1045 479 1067 q 400 1024 421 1024 z "},"Ŗ":{"ha":840,"x_min":42,"x_max":826,"o":"m 208 0 q 79 33 117 1 q 42 125 42 64 q 56 201 42 160 q 99 311 69 242 q 162 478 139 406 q 185 624 185 550 q 167 724 185 679 q 115 829 149 769 q 88 877 97 858 q 79 911 79 896 q 104 958 79 943 q 190 975 129 974 l 451 975 q 623 915 564 975 q 682 769 682 856 q 656 656 682 711 q 581 563 629 600 q 468 519 532 525 q 500 476 481 510 q 551 405 525 433 q 628 354 576 376 q 763 332 681 332 q 806 282 786 332 q 826 172 826 232 q 790 50 826 100 q 672 0 753 0 q 530 42 576 0 q 469 142 483 83 q 451 293 456 200 q 440 408 447 367 q 410 476 433 449 q 336 503 386 503 q 300 465 303 503 q 308 424 300 449 q 354 308 321 386 q 397 200 383 242 q 411 125 411 158 q 374 33 411 64 q 244 0 336 1 l 208 0 m 328 715 q 361 617 328 663 q 440 572 394 572 q 520 617 486 572 q 554 715 554 663 q 526 790 554 761 q 440 819 499 819 q 355 790 382 819 q 328 715 328 761 m 397 -269 q 368 -237 368 -269 q 375 -194 368 -218 q 381 -164 376 -190 q 386 -87 386 -137 q 395 -62 386 -71 q 418 -53 404 -53 q 456 -68 439 -53 q 472 -107 472 -83 q 449 -213 472 -157 q 397 -269 425 -269 z "},"S":{"ha":743,"x_min":21,"x_max":722,"o":"m 399 0 q 216 40 303 0 q 75 160 129 81 q 21 351 21 239 q 42 430 21 404 q 99 463 64 456 q 197 469 135 469 q 217 459 210 469 q 238 422 225 449 q 285 348 258 375 q 367 321 311 321 q 444 349 418 321 q 469 426 469 378 q 434 498 469 471 q 325 557 399 525 q 217 612 258 586 q 145 681 175 638 q 115 789 115 725 q 197 929 115 883 q 400 975 279 975 q 554 936 485 975 q 624 819 624 897 q 608 732 624 760 q 542 704 592 704 q 460 715 488 704 q 433 764 433 726 q 426 817 433 803 q 401 831 419 831 q 347 803 367 831 q 328 742 328 776 q 351 666 328 700 q 409 607 375 632 q 504 544 443 582 q 618 469 575 501 q 692 388 661 436 q 722 276 722 340 q 677 126 722 189 q 558 32 632 64 q 399 0 485 0 z "},"Ś":{"ha":743,"x_min":21,"x_max":722,"o":"m 399 0 q 216 40 303 0 q 75 160 129 81 q 21 351 21 239 q 42 430 21 404 q 99 463 64 456 q 197 469 135 469 q 217 459 210 469 q 238 422 225 449 q 285 348 258 375 q 367 321 311 321 q 444 349 418 321 q 469 426 469 378 q 434 498 469 471 q 325 557 399 525 q 217 612 258 586 q 145 681 175 638 q 115 789 115 725 q 197 929 115 883 q 400 975 279 975 q 554 936 485 975 q 624 819 624 897 q 608 732 624 760 q 542 704 592 704 q 460 715 488 704 q 433 764 433 726 q 426 817 433 803 q 401 831 419 831 q 347 803 367 831 q 328 742 328 776 q 351 666 328 700 q 409 607 375 632 q 504 544 443 582 q 618 469 575 501 q 692 388 661 436 q 722 276 722 340 q 677 126 722 189 q 558 32 632 64 q 399 0 485 0 m 319 1024 q 303 1030 310 1024 q 296 1043 296 1036 q 301 1064 296 1056 q 318 1088 306 1072 q 363 1165 350 1122 q 396 1192 371 1192 q 424 1180 413 1192 q 436 1150 436 1168 q 415 1098 436 1128 q 365 1046 393 1068 q 319 1024 336 1024 z "},"Š":{"ha":743,"x_min":21,"x_max":722,"o":"m 399 0 q 216 40 303 0 q 75 160 129 81 q 21 351 21 239 q 42 430 21 404 q 99 463 64 456 q 197 469 135 469 q 217 459 210 469 q 238 422 225 449 q 285 348 258 375 q 367 321 311 321 q 444 349 418 321 q 469 426 469 378 q 434 498 469 471 q 325 557 399 525 q 217 612 258 586 q 145 681 175 638 q 115 789 115 725 q 197 929 115 883 q 400 975 279 975 q 554 936 485 975 q 624 819 624 897 q 608 732 624 760 q 542 704 592 704 q 460 715 488 704 q 433 764 433 726 q 426 817 433 803 q 401 831 419 831 q 347 803 367 831 q 328 742 328 776 q 351 666 328 700 q 409 607 375 632 q 504 544 443 582 q 618 469 575 501 q 692 388 661 436 q 722 276 722 340 q 677 126 722 189 q 558 32 632 64 q 399 0 485 0 m 351 1024 q 332 1031 340 1024 q 324 1049 324 1038 q 313 1101 324 1081 q 285 1143 303 1122 q 274 1158 279 1151 q 269 1171 269 1165 q 276 1185 269 1179 q 293 1192 282 1192 q 346 1155 332 1192 q 360 1069 360 1118 q 383 1093 372 1069 q 394 1157 394 1117 q 406 1182 394 1172 q 433 1192 418 1192 q 462 1181 450 1192 q 474 1149 474 1169 q 452 1097 474 1126 q 401 1045 431 1067 q 351 1024 372 1024 z "},"Ş":{"ha":743,"x_min":21,"x_max":722,"o":"m 378 0 q 344 -51 344 -24 q 433 -69 404 -51 q 463 -114 463 -86 q 429 -169 463 -144 q 344 -193 396 -193 q 311 -183 324 -193 q 299 -158 299 -172 q 310 -134 299 -144 q 344 -124 322 -124 q 372 -125 360 -124 q 396 -126 385 -126 q 422 -110 422 -126 q 401 -87 422 -97 q 344 -76 381 -76 q 311 -49 311 -76 q 356 3 311 -25 q 190 53 267 11 q 67 172 114 96 q 21 351 21 247 q 42 430 21 404 q 99 463 64 456 q 197 469 135 469 q 217 459 210 469 q 238 422 225 449 q 285 348 258 375 q 367 321 311 321 q 444 349 418 321 q 469 426 469 378 q 434 498 469 471 q 325 557 399 525 q 217 612 258 586 q 145 681 175 638 q 115 789 115 725 q 197 929 115 883 q 400 975 279 975 q 554 936 485 975 q 624 819 624 897 q 608 732 624 760 q 542 704 592 704 q 460 715 488 704 q 433 764 433 726 q 426 817 433 803 q 401 831 419 831 q 347 803 367 831 q 328 742 328 776 q 351 666 328 700 q 409 607 375 632 q 504 544 443 582 q 618 469 575 501 q 692 388 661 436 q 722 276 722 340 q 677 126 722 189 q 558 32 632 64 q 399 0 485 0 l 378 0 z "},"Ș":{"ha":743,"x_min":21,"x_max":722,"o":"m 399 0 q 216 40 303 0 q 75 160 129 81 q 21 351 21 239 q 42 430 21 404 q 99 463 64 456 q 197 469 135 469 q 217 459 210 469 q 238 422 225 449 q 285 348 258 375 q 367 321 311 321 q 444 349 418 321 q 469 426 469 378 q 434 498 469 471 q 325 557 399 525 q 217 612 258 586 q 145 681 175 638 q 115 789 115 725 q 197 929 115 883 q 400 975 279 975 q 554 936 485 975 q 624 819 624 897 q 608 732 624 760 q 542 704 592 704 q 460 715 488 704 q 433 764 433 726 q 426 817 433 803 q 401 831 419 831 q 347 803 367 831 q 328 742 328 776 q 351 666 328 700 q 409 607 375 632 q 504 544 443 582 q 618 469 575 501 q 692 388 661 436 q 722 276 722 340 q 677 126 722 189 q 558 32 632 64 q 399 0 485 0 m 351 -276 q 322 -244 322 -276 q 329 -201 322 -225 q 335 -171 331 -197 q 340 -94 340 -144 q 349 -69 340 -78 q 372 -60 358 -60 q 410 -75 393 -60 q 426 -114 426 -90 q 403 -220 426 -164 q 351 -276 379 -276 z "},"ẞ":{"ha":800,"x_min":42,"x_max":779,"o":"m 208 0 q 79 32 117 0 q 42 125 42 64 q 56 201 42 160 q 99 311 69 242 q 162 478 139 406 q 185 624 185 550 l 185 704 q 241 898 185 821 q 397 975 297 975 l 550 975 q 663 853 663 975 q 628 717 663 783 q 525 614 593 650 q 656 564 597 614 q 747 434 714 514 q 779 271 779 354 q 713 78 779 156 q 517 0 647 0 q 417 51 446 0 q 388 164 388 101 q 411 270 388 238 q 464 303 435 303 q 572 336 536 303 q 607 419 607 369 q 588 493 607 457 q 536 552 569 529 q 464 575 503 575 q 416 585 429 575 q 403 614 403 596 q 442 651 403 651 q 515 683 485 651 q 546 750 546 714 q 522 799 546 779 q 451 819 499 819 q 376 803 400 819 q 342 738 351 786 q 332 585 332 690 q 328 190 332 308 q 314 35 324 71 q 281 0 304 0 l 208 0 z "},"T":{"ha":600,"x_min":14,"x_max":586,"o":"m 282 0 q 153 33 190 1 q 115 125 115 64 q 129 201 115 160 q 172 311 143 242 q 235 478 213 406 q 258 624 258 550 q 239 756 258 690 q 186 821 219 821 q 147 815 161 821 q 118 801 132 810 q 97 793 104 793 q 36 825 58 793 q 14 911 14 857 q 41 967 14 951 q 117 983 68 983 q 190 979 149 983 q 286 975 282 975 l 314 975 q 410 979 318 975 q 483 983 451 983 q 559 967 532 983 q 586 911 586 951 q 564 825 586 857 q 503 793 542 793 q 483 801 496 793 q 454 815 469 810 q 414 821 439 821 q 361 756 381 821 q 342 624 342 690 q 365 478 342 550 q 428 311 388 406 q 471 201 457 242 q 485 125 485 160 q 447 33 485 64 q 318 0 410 1 l 282 0 z "},"Ť":{"ha":600,"x_min":14,"x_max":586,"o":"m 282 0 q 153 33 190 1 q 115 125 115 64 q 129 201 115 160 q 172 311 143 242 q 235 478 213 406 q 258 624 258 550 q 239 756 258 690 q 186 821 219 821 q 147 815 161 821 q 118 801 132 810 q 97 793 104 793 q 36 825 58 793 q 14 911 14 857 q 41 967 14 951 q 117 983 68 983 q 190 979 149 983 q 286 975 282 975 l 314 975 q 410 979 318 975 q 483 983 451 983 q 559 967 532 983 q 586 911 586 951 q 564 825 586 857 q 503 793 542 793 q 483 801 496 793 q 454 815 469 810 q 414 821 439 821 q 361 756 381 821 q 342 624 342 690 q 365 478 342 550 q 428 311 388 406 q 471 201 457 242 q 485 125 485 160 q 447 33 485 64 q 318 0 410 1 l 282 0 m 279 1024 q 260 1031 268 1024 q 251 1049 251 1038 q 241 1101 251 1081 q 213 1143 231 1122 q 202 1158 207 1151 q 197 1171 197 1165 q 203 1185 197 1179 q 221 1192 210 1192 q 274 1155 260 1192 q 288 1069 288 1118 q 311 1093 300 1069 q 322 1157 322 1117 q 334 1182 322 1172 q 361 1192 346 1192 q 390 1181 378 1192 q 401 1149 401 1169 q 380 1097 401 1126 q 329 1045 358 1067 q 279 1024 300 1024 z "},"Ţ":{"ha":600,"x_min":14,"x_max":586,"o":"m 314 975 q 410 979 318 975 q 483 983 451 983 q 559 967 532 983 q 586 911 586 951 q 564 825 586 857 q 503 793 542 793 q 483 801 496 793 q 454 815 469 810 q 414 821 439 821 q 361 756 381 821 q 342 624 342 690 q 365 478 342 550 q 428 311 388 406 q 471 201 457 242 q 485 125 485 160 q 447 33 485 64 q 318 0 410 1 l 304 0 q 269 -53 269 -25 q 358 -70 329 -53 q 388 -115 388 -87 q 354 -170 388 -146 q 269 -194 321 -194 q 236 -184 249 -194 q 224 -160 224 -174 q 235 -135 224 -146 q 269 -125 247 -125 q 297 -126 285 -125 q 321 -128 310 -128 q 347 -111 347 -128 q 326 -88 347 -99 q 269 -78 306 -78 q 236 -50 236 -78 q 249 -24 236 -37 q 279 0 261 -11 q 153 33 190 1 q 115 125 115 64 q 129 201 115 160 q 172 311 143 242 q 235 478 213 406 q 258 624 258 550 q 239 756 258 690 q 186 821 219 821 q 147 815 161 821 q 118 801 132 810 q 97 793 104 793 q 36 825 58 793 q 14 911 14 857 q 41 967 14 951 q 117 983 68 983 q 190 979 149 983 q 286 975 282 975 l 314 975 z "},"Ț":{"ha":600,"x_min":14,"x_max":586,"o":"m 282 0 q 153 33 190 1 q 115 125 115 64 q 129 201 115 160 q 172 311 143 242 q 235 478 213 406 q 258 624 258 550 q 239 756 258 690 q 186 821 219 821 q 147 815 161 821 q 118 801 132 810 q 97 793 104 793 q 36 825 58 793 q 14 911 14 857 q 41 967 14 951 q 117 983 68 983 q 190 979 149 983 q 286 975 282 975 l 314 975 q 410 979 318 975 q 483 983 451 983 q 559 967 532 983 q 586 911 586 951 q 564 825 586 857 q 503 793 542 793 q 483 801 496 793 q 454 815 469 810 q 414 821 439 821 q 361 756 381 821 q 342 624 342 690 q 365 478 342 550 q 428 311 388 406 q 471 201 457 242 q 485 125 485 160 q 447 33 485 64 q 318 0 410 1 l 282 0 m 276 -278 q 247 -246 247 -278 q 254 -203 247 -226 q 260 -172 256 -199 q 265 -96 265 -146 q 274 -70 265 -79 q 297 -61 283 -61 q 335 -76 318 -61 q 351 -115 351 -92 q 328 -222 351 -165 q 276 -278 304 -278 z "},"U":{"ha":808,"x_min":42,"x_max":767,"o":"m 592 0 l 589 0 l 589 0 l 219 0 l 217 0 l 217 0 l 185 0 l 181 0 q 42 125 42 1 q 52 196 42 158 q 88 311 63 233 q 139 479 121 408 q 157 624 157 550 q 139 724 157 679 q 88 829 121 769 q 60 877 69 858 q 51 911 51 896 q 80 960 51 944 q 181 975 108 975 l 217 975 q 317 960 289 975 q 346 911 346 944 q 336 874 346 897 q 314 825 326 851 q 260 701 281 760 q 240 572 240 642 l 240 550 q 284 325 242 390 q 404 256 326 260 q 525 326 483 260 q 568 558 567 393 l 568 572 q 548 701 568 642 q 494 825 528 760 q 472 874 482 851 q 463 911 463 897 q 491 960 463 944 q 592 975 519 975 l 628 975 q 728 960 700 975 q 757 911 757 944 q 748 877 757 896 q 721 829 739 858 q 669 724 688 769 q 651 624 651 679 q 669 479 651 550 q 721 311 688 408 q 756 196 746 233 q 767 125 767 158 q 628 0 767 1 l 596 0 l 592 0 z "},"Ú":{"ha":808,"x_min":42,"x_max":767,"o":"m 592 0 l 589 0 l 589 0 l 219 0 l 217 0 l 217 0 l 185 0 l 181 0 q 42 125 42 1 q 52 196 42 158 q 88 311 63 233 q 139 479 121 408 q 157 624 157 550 q 139 724 157 679 q 88 829 121 769 q 60 877 69 858 q 51 911 51 896 q 80 960 51 944 q 181 975 108 975 l 217 975 q 317 960 289 975 q 346 911 346 944 q 336 874 346 897 q 314 825 326 851 q 260 701 281 760 q 240 572 240 642 l 240 550 q 284 325 242 390 q 404 256 326 260 q 525 326 483 260 q 568 558 567 393 l 568 572 q 548 701 568 642 q 494 825 528 760 q 472 874 482 851 q 463 911 463 897 q 491 960 463 944 q 592 975 519 975 l 628 975 q 728 960 700 975 q 757 911 757 944 q 748 877 757 896 q 721 829 739 858 q 669 724 688 769 q 651 624 651 679 q 669 479 651 550 q 721 311 688 408 q 756 196 746 233 q 767 125 767 158 q 628 0 767 1 l 596 0 l 592 0 m 351 1024 q 335 1030 342 1024 q 328 1043 328 1036 q 333 1064 328 1056 q 350 1088 338 1072 q 394 1165 382 1122 q 428 1192 403 1192 q 456 1180 444 1192 q 468 1150 468 1168 q 447 1098 468 1128 q 397 1046 425 1068 q 351 1024 368 1024 z "},"Û":{"ha":808,"x_min":42,"x_max":767,"o":"m 592 0 l 589 0 l 589 0 l 219 0 l 217 0 l 217 0 l 185 0 l 181 0 q 42 125 42 1 q 52 196 42 158 q 88 311 63 233 q 139 479 121 408 q 157 624 157 550 q 139 724 157 679 q 88 829 121 769 q 60 877 69 858 q 51 911 51 896 q 80 960 51 944 q 181 975 108 975 l 217 975 q 317 960 289 975 q 346 911 346 944 q 336 874 346 897 q 314 825 326 851 q 260 701 281 760 q 240 572 240 642 l 240 550 q 284 325 242 390 q 404 256 326 260 q 525 326 483 260 q 568 558 567 393 l 568 572 q 548 701 568 642 q 494 825 528 760 q 472 874 482 851 q 463 911 463 897 q 491 960 463 944 q 592 975 519 975 l 628 975 q 728 960 700 975 q 757 911 757 944 q 748 877 757 896 q 721 829 739 858 q 669 724 688 769 q 651 624 651 679 q 669 479 651 550 q 721 311 688 408 q 756 196 746 233 q 767 125 767 158 q 628 0 767 1 l 596 0 l 592 0 m 482 1024 q 429 1060 443 1024 q 415 1146 415 1097 q 392 1122 403 1146 q 381 1058 381 1099 q 369 1033 381 1043 q 342 1024 357 1024 q 313 1035 325 1024 q 301 1067 301 1046 q 323 1119 301 1089 q 374 1170 344 1149 q 424 1192 403 1192 q 443 1185 435 1192 q 451 1167 451 1178 q 462 1115 451 1136 q 490 1072 472 1093 q 501 1057 496 1064 q 506 1044 506 1050 q 499 1030 506 1036 q 482 1024 493 1024 z "},"Ü":{"ha":808,"x_min":42,"x_max":767,"o":"m 592 0 l 589 0 l 589 0 l 219 0 l 217 0 l 217 0 l 185 0 l 181 0 q 42 125 42 1 q 52 196 42 158 q 88 311 63 233 q 139 479 121 408 q 157 624 157 550 q 139 724 157 679 q 88 829 121 769 q 60 877 69 858 q 51 911 51 896 q 80 960 51 944 q 181 975 108 975 l 217 975 q 317 960 289 975 q 346 911 346 944 q 336 874 346 897 q 314 825 326 851 q 260 701 281 760 q 240 572 240 642 l 240 550 q 284 325 242 390 q 404 256 326 260 q 525 326 483 260 q 568 558 567 393 l 568 572 q 548 701 568 642 q 494 825 528 760 q 472 874 482 851 q 463 911 463 897 q 491 960 463 944 q 592 975 519 975 l 628 975 q 728 960 700 975 q 757 911 757 944 q 748 877 757 896 q 721 829 739 858 q 669 724 688 769 q 651 624 651 679 q 669 479 651 550 q 721 311 688 408 q 756 196 746 233 q 767 125 767 158 q 628 0 767 1 l 596 0 l 592 0 m 318 1024 q 269 1044 289 1024 q 249 1093 249 1064 q 269 1142 249 1122 q 318 1163 289 1163 q 367 1142 347 1163 q 388 1093 388 1122 q 367 1044 388 1064 q 318 1024 347 1024 m 419 1093 q 440 1142 419 1122 q 489 1163 460 1163 q 538 1142 518 1163 q 558 1093 558 1122 q 538 1044 558 1064 q 489 1024 518 1024 q 440 1044 460 1024 q 419 1093 419 1064 z "},"Ù":{"ha":808,"x_min":42,"x_max":767,"o":"m 592 0 l 589 0 l 589 0 l 219 0 l 217 0 l 217 0 l 185 0 l 181 0 q 42 125 42 1 q 52 196 42 158 q 88 311 63 233 q 139 479 121 408 q 157 624 157 550 q 139 724 157 679 q 88 829 121 769 q 60 877 69 858 q 51 911 51 896 q 80 960 51 944 q 181 975 108 975 l 217 975 q 317 960 289 975 q 346 911 346 944 q 336 874 346 897 q 314 825 326 851 q 260 701 281 760 q 240 572 240 642 l 240 550 q 284 325 242 390 q 404 256 326 260 q 525 326 483 260 q 568 558 567 393 l 568 572 q 548 701 568 642 q 494 825 528 760 q 472 874 482 851 q 463 911 463 897 q 491 960 463 944 q 592 975 519 975 l 628 975 q 728 960 700 975 q 757 911 757 944 q 748 877 757 896 q 721 829 739 858 q 669 724 688 769 q 651 624 651 679 q 669 479 651 550 q 721 311 688 408 q 756 196 746 233 q 767 125 767 158 q 628 0 767 1 l 596 0 l 592 0 m 450 1024 q 405 1046 433 1024 q 355 1098 376 1068 q 333 1150 333 1128 q 345 1180 333 1168 q 374 1192 357 1192 q 407 1165 399 1192 q 451 1088 419 1122 q 469 1064 464 1072 q 474 1043 474 1056 q 467 1030 474 1036 q 450 1024 460 1024 z "},"Ű":{"ha":808,"x_min":42,"x_max":767,"o":"m 592 0 l 589 0 l 589 0 l 219 0 l 217 0 l 217 0 l 185 0 l 181 0 q 42 125 42 1 q 52 196 42 158 q 88 311 63 233 q 139 479 121 408 q 157 624 157 550 q 139 724 157 679 q 88 829 121 769 q 60 877 69 858 q 51 911 51 896 q 80 960 51 944 q 181 975 108 975 l 217 975 q 317 960 289 975 q 346 911 346 944 q 336 874 346 897 q 314 825 326 851 q 260 701 281 760 q 240 572 240 642 l 240 550 q 284 325 242 390 q 404 256 326 260 q 525 326 483 260 q 568 558 567 393 l 568 572 q 548 701 568 642 q 494 825 528 760 q 472 874 482 851 q 463 911 463 897 q 491 960 463 944 q 592 975 519 975 l 628 975 q 728 960 700 975 q 757 911 757 944 q 748 877 757 896 q 721 829 739 858 q 669 724 688 769 q 651 624 651 679 q 669 479 651 550 q 721 311 688 408 q 756 196 746 233 q 767 125 767 158 q 628 0 767 1 l 596 0 l 592 0 m 299 1024 q 282 1030 289 1024 q 275 1043 275 1036 q 280 1064 275 1056 q 297 1088 285 1072 q 342 1165 329 1122 q 375 1192 350 1192 q 403 1180 392 1192 q 415 1150 415 1168 q 394 1098 415 1128 q 344 1046 372 1068 q 299 1024 315 1024 m 393 1043 q 398 1064 393 1056 q 415 1088 403 1072 q 460 1165 447 1122 q 493 1192 468 1192 q 522 1180 510 1192 q 533 1150 533 1168 q 512 1098 533 1128 q 462 1046 490 1068 q 417 1024 433 1024 q 400 1030 407 1024 q 393 1043 393 1036 z "},"Ū":{"ha":808,"x_min":42,"x_max":767,"o":"m 592 0 l 589 0 l 589 0 l 219 0 l 217 0 l 217 0 l 185 0 l 181 0 q 42 125 42 1 q 52 196 42 158 q 88 311 63 233 q 139 479 121 408 q 157 624 157 550 q 139 724 157 679 q 88 829 121 769 q 60 877 69 858 q 51 911 51 896 q 80 960 51 944 q 181 975 108 975 l 217 975 q 317 960 289 975 q 346 911 346 944 q 336 874 346 897 q 314 825 326 851 q 260 701 281 760 q 240 572 240 642 l 240 550 q 284 325 242 390 q 404 256 326 260 q 525 326 483 260 q 568 558 567 393 l 568 572 q 548 701 568 642 q 494 825 528 760 q 472 874 482 851 q 463 911 463 897 q 491 960 463 944 q 592 975 519 975 l 628 975 q 728 960 700 975 q 757 911 757 944 q 748 877 757 896 q 721 829 739 858 q 669 724 688 769 q 651 624 651 679 q 669 479 651 550 q 721 311 688 408 q 756 196 746 233 q 767 125 767 158 q 628 0 767 1 l 596 0 l 592 0 m 279 1022 q 257 1028 265 1022 q 249 1043 249 1035 q 308 1091 249 1068 q 422 1114 367 1114 q 521 1103 483 1114 q 558 1063 558 1093 q 549 1036 558 1049 q 524 1024 540 1024 q 474 1031 506 1024 q 392 1042 424 1042 q 313 1029 353 1042 q 279 1022 292 1022 z "},"Ų":{"ha":808,"x_min":42,"x_max":767,"o":"m 592 0 l 589 0 l 589 0 l 424 0 q 390 -87 390 -57 q 401 -113 390 -104 q 442 -122 413 -122 q 463 -131 454 -122 q 471 -151 471 -139 q 455 -181 471 -168 q 407 -193 439 -193 q 325 -133 325 -193 q 348 -64 325 -101 q 397 0 371 -26 l 219 0 l 217 0 l 217 0 l 185 0 l 181 0 q 42 125 42 1 q 52 196 42 158 q 88 311 63 233 q 139 479 121 408 q 157 624 157 550 q 139 724 157 679 q 88 829 121 769 q 60 877 69 858 q 51 911 51 896 q 80 960 51 944 q 181 975 108 975 l 217 975 q 317 960 289 975 q 346 911 346 944 q 336 874 346 897 q 314 825 326 851 q 260 701 281 760 q 240 572 240 642 l 240 550 q 284 325 242 390 q 404 256 326 260 q 525 326 483 260 q 568 558 567 393 l 568 572 q 548 701 568 642 q 494 825 528 760 q 472 874 482 851 q 463 911 463 897 q 491 960 463 944 q 592 975 519 975 l 628 975 q 728 960 700 975 q 757 911 757 944 q 748 877 757 896 q 721 829 739 858 q 669 724 688 769 q 651 624 651 679 q 669 479 651 550 q 721 311 688 408 q 756 196 746 233 q 767 125 767 158 q 628 0 767 1 l 596 0 l 592 0 z "},"Ů":{"ha":808,"x_min":42,"x_max":767,"o":"m 592 0 l 589 0 l 589 0 l 219 0 l 217 0 l 217 0 l 185 0 l 181 0 q 42 125 42 1 q 52 196 42 158 q 88 311 63 233 q 139 479 121 408 q 157 624 157 550 q 139 724 157 679 q 88 829 121 769 q 60 877 69 858 q 51 911 51 896 q 80 960 51 944 q 181 975 108 975 l 217 975 q 317 960 289 975 q 346 911 346 944 q 336 874 346 897 q 314 825 326 851 q 260 701 281 760 q 240 572 240 642 l 240 550 q 284 325 242 390 q 404 256 326 260 q 525 326 483 260 q 568 558 567 393 l 568 572 q 548 701 568 642 q 494 825 528 760 q 472 874 482 851 q 463 911 463 897 q 491 960 463 944 q 592 975 519 975 l 628 975 q 728 960 700 975 q 757 911 757 944 q 748 877 757 896 q 721 829 739 858 q 669 724 688 769 q 651 624 651 679 q 669 479 651 550 q 721 311 688 408 q 756 196 746 233 q 767 125 767 158 q 628 0 767 1 l 596 0 l 592 0 m 404 1024 q 335 1052 364 1024 q 307 1121 307 1081 q 335 1189 307 1161 q 404 1217 364 1217 q 472 1189 444 1217 q 500 1121 500 1161 q 472 1052 500 1081 q 404 1024 444 1024 m 356 1138 q 370 1099 356 1115 q 404 1082 385 1082 q 438 1099 424 1082 q 451 1138 451 1115 q 437 1174 451 1158 q 404 1190 422 1190 q 370 1174 385 1190 q 356 1138 356 1158 z "},"Ũ":{"ha":808,"x_min":42,"x_max":767,"o":"m 592 0 l 589 0 l 589 0 l 219 0 l 217 0 l 217 0 l 185 0 l 181 0 q 42 125 42 1 q 52 196 42 158 q 88 311 63 233 q 139 479 121 408 q 157 624 157 550 q 139 724 157 679 q 88 829 121 769 q 60 877 69 858 q 51 911 51 896 q 80 960 51 944 q 181 975 108 975 l 217 975 q 317 960 289 975 q 346 911 346 944 q 336 874 346 897 q 314 825 326 851 q 260 701 281 760 q 240 572 240 642 l 240 550 q 284 325 242 390 q 404 256 326 260 q 525 326 483 260 q 568 558 567 393 l 568 572 q 548 701 568 642 q 494 825 528 760 q 472 874 482 851 q 463 911 463 897 q 491 960 463 944 q 592 975 519 975 l 628 975 q 728 960 700 975 q 757 911 757 944 q 748 877 757 896 q 721 829 739 858 q 669 724 688 769 q 651 624 651 679 q 669 479 651 550 q 721 311 688 408 q 756 196 746 233 q 767 125 767 158 q 628 0 767 1 l 596 0 l 592 0 m 476 1024 q 441 1034 454 1024 q 410 1067 428 1044 q 381 1097 393 1088 q 349 1107 368 1107 q 328 1099 336 1107 q 313 1078 319 1092 q 295 1054 303 1061 q 274 1047 288 1047 q 254 1057 261 1047 q 247 1081 247 1067 q 267 1139 247 1111 q 319 1167 288 1167 q 355 1156 339 1167 q 393 1122 371 1144 q 428 1092 414 1101 q 458 1082 442 1082 q 486 1090 476 1082 q 506 1114 496 1099 q 518 1131 513 1125 q 533 1138 524 1138 q 553 1129 546 1138 q 560 1107 560 1121 q 537 1050 560 1076 q 476 1024 514 1024 z "},"V":{"ha":758,"x_min":14,"x_max":744,"o":"m 343 0 q 201 55 246 1 q 156 213 156 108 q 172 344 156 253 q 189 475 189 436 q 162 606 189 544 q 85 744 135 667 q 31 838 49 801 q 14 907 14 874 q 35 957 14 940 q 101 975 56 974 l 138 975 q 285 903 285 975 q 278 860 285 885 q 271 828 272 835 q 253 748 260 783 q 246 671 246 713 q 265 538 246 615 q 314 403 283 460 q 379 346 344 347 q 444 403 414 347 q 494 538 475 460 q 513 671 513 615 q 506 748 513 713 q 488 828 499 783 q 480 860 486 835 q 474 903 474 885 q 621 975 474 975 l 657 975 q 724 957 703 974 q 744 907 744 940 q 727 838 744 874 q 674 744 710 801 q 597 606 624 667 q 569 475 569 544 q 586 344 569 436 q 603 213 603 253 q 556 55 603 108 q 401 0 508 1 l 347 0 l 343 0 z "},"W":{"ha":1140,"x_min":14,"x_max":1126,"o":"m 739 0 q 632 58 671 3 q 593 213 593 113 q 610 344 593 253 q 626 475 626 436 l 626 478 q 608 524 625 507 q 569 540 592 540 q 532 524 549 540 q 514 478 515 507 l 514 475 q 531 344 514 436 q 547 213 547 253 q 508 58 547 113 q 401 0 469 3 l 347 0 l 343 0 q 201 55 246 1 q 156 213 156 108 q 172 344 156 253 q 189 475 189 436 q 162 606 189 544 q 85 744 135 667 q 31 838 49 801 q 14 907 14 874 q 35 957 14 940 q 101 975 56 974 l 138 975 q 285 903 285 975 q 278 860 285 885 q 271 828 272 835 q 253 748 260 783 q 246 671 246 713 q 264 539 246 617 q 309 404 282 461 q 365 346 336 347 q 414 403 393 347 q 446 535 435 458 q 457 671 457 613 q 450 748 457 713 q 432 828 443 783 q 424 860 431 835 q 418 903 418 885 q 445 960 418 944 q 515 975 472 975 l 625 975 q 695 960 668 975 q 722 903 722 944 q 716 860 722 885 q 708 828 710 835 q 690 748 697 783 q 683 671 683 713 q 694 535 683 613 q 726 403 706 458 q 775 346 747 347 q 831 404 804 347 q 876 539 858 461 q 894 671 894 617 q 888 748 894 713 q 869 828 881 783 q 862 860 868 835 q 856 903 856 885 q 1003 975 856 975 l 1039 975 q 1106 957 1085 974 q 1126 907 1126 940 q 1109 838 1126 874 q 1056 744 1092 801 q 978 606 1006 667 q 951 475 951 544 q 968 344 951 436 q 985 213 985 253 q 940 55 985 108 q 797 0 894 1 l 743 0 l 739 0 z "},"Ẃ":{"ha":1140,"x_min":14,"x_max":1126,"o":"m 739 0 q 632 58 671 3 q 593 213 593 113 q 610 344 593 253 q 626 475 626 436 l 626 478 q 608 524 625 507 q 569 540 592 540 q 532 524 549 540 q 514 478 515 507 l 514 475 q 531 344 514 436 q 547 213 547 253 q 508 58 547 113 q 401 0 469 3 l 347 0 l 343 0 q 201 55 246 1 q 156 213 156 108 q 172 344 156 253 q 189 475 189 436 q 162 606 189 544 q 85 744 135 667 q 31 838 49 801 q 14 907 14 874 q 35 957 14 940 q 101 975 56 974 l 138 975 q 285 903 285 975 q 278 860 285 885 q 271 828 272 835 q 253 748 260 783 q 246 671 246 713 q 264 539 246 617 q 309 404 282 461 q 365 346 336 347 q 414 403 393 347 q 446 535 435 458 q 457 671 457 613 q 450 748 457 713 q 432 828 443 783 q 424 860 431 835 q 418 903 418 885 q 445 960 418 944 q 515 975 472 975 l 625 975 q 695 960 668 975 q 722 903 722 944 q 716 860 722 885 q 708 828 710 835 q 690 748 697 783 q 683 671 683 713 q 694 535 683 613 q 726 403 706 458 q 775 346 747 347 q 831 404 804 347 q 876 539 858 461 q 894 671 894 617 q 888 748 894 713 q 869 828 881 783 q 862 860 868 835 q 856 903 856 885 q 1003 975 856 975 l 1039 975 q 1106 957 1085 974 q 1126 907 1126 940 q 1109 838 1126 874 q 1056 744 1092 801 q 978 606 1006 667 q 951 475 951 544 q 968 344 951 436 q 985 213 985 253 q 940 55 985 108 q 797 0 894 1 l 743 0 l 739 0 m 518 1024 q 501 1030 508 1024 q 494 1043 494 1036 q 499 1064 494 1056 q 517 1088 504 1072 q 561 1165 549 1122 q 594 1192 569 1192 q 623 1180 611 1192 q 635 1150 635 1168 q 613 1098 635 1128 q 563 1046 592 1068 q 518 1024 535 1024 z "},"Ŵ":{"ha":1140,"x_min":14,"x_max":1126,"o":"m 739 0 q 632 58 671 3 q 593 213 593 113 q 610 344 593 253 q 626 475 626 436 l 626 478 q 608 524 625 507 q 569 540 592 540 q 532 524 549 540 q 514 478 515 507 l 514 475 q 531 344 514 436 q 547 213 547 253 q 508 58 547 113 q 401 0 469 3 l 347 0 l 343 0 q 201 55 246 1 q 156 213 156 108 q 172 344 156 253 q 189 475 189 436 q 162 606 189 544 q 85 744 135 667 q 31 838 49 801 q 14 907 14 874 q 35 957 14 940 q 101 975 56 974 l 138 975 q 285 903 285 975 q 278 860 285 885 q 271 828 272 835 q 253 748 260 783 q 246 671 246 713 q 264 539 246 617 q 309 404 282 461 q 365 346 336 347 q 414 403 393 347 q 446 535 435 458 q 457 671 457 613 q 450 748 457 713 q 432 828 443 783 q 424 860 431 835 q 418 903 418 885 q 445 960 418 944 q 515 975 472 975 l 625 975 q 695 960 668 975 q 722 903 722 944 q 716 860 722 885 q 708 828 710 835 q 690 748 697 783 q 683 671 683 713 q 694 535 683 613 q 726 403 706 458 q 775 346 747 347 q 831 404 804 347 q 876 539 858 461 q 894 671 894 617 q 888 748 894 713 q 869 828 881 783 q 862 860 868 835 q 856 903 856 885 q 1003 975 856 975 l 1039 975 q 1106 957 1085 974 q 1126 907 1126 940 q 1109 838 1126 874 q 1056 744 1092 801 q 978 606 1006 667 q 951 475 951 544 q 968 344 951 436 q 985 213 985 253 q 940 55 985 108 q 797 0 894 1 l 743 0 l 739 0 m 649 1024 q 596 1060 610 1024 q 582 1146 582 1097 q 558 1122 569 1146 q 547 1058 547 1099 q 535 1033 547 1043 q 508 1024 524 1024 q 480 1035 492 1024 q 468 1067 468 1046 q 490 1119 468 1089 q 540 1170 511 1149 q 590 1192 569 1192 q 610 1185 601 1192 q 618 1167 618 1178 q 628 1115 618 1136 q 657 1072 639 1093 q 667 1057 663 1064 q 672 1044 672 1050 q 666 1030 672 1036 q 649 1024 660 1024 z "},"Ẅ":{"ha":1140,"x_min":14,"x_max":1126,"o":"m 739 0 q 632 58 671 3 q 593 213 593 113 q 610 344 593 253 q 626 475 626 436 l 626 478 q 608 524 625 507 q 569 540 592 540 q 532 524 549 540 q 514 478 515 507 l 514 475 q 531 344 514 436 q 547 213 547 253 q 508 58 547 113 q 401 0 469 3 l 347 0 l 343 0 q 201 55 246 1 q 156 213 156 108 q 172 344 156 253 q 189 475 189 436 q 162 606 189 544 q 85 744 135 667 q 31 838 49 801 q 14 907 14 874 q 35 957 14 940 q 101 975 56 974 l 138 975 q 285 903 285 975 q 278 860 285 885 q 271 828 272 835 q 253 748 260 783 q 246 671 246 713 q 264 539 246 617 q 309 404 282 461 q 365 346 336 347 q 414 403 393 347 q 446 535 435 458 q 457 671 457 613 q 450 748 457 713 q 432 828 443 783 q 424 860 431 835 q 418 903 418 885 q 445 960 418 944 q 515 975 472 975 l 625 975 q 695 960 668 975 q 722 903 722 944 q 716 860 722 885 q 708 828 710 835 q 690 748 697 783 q 683 671 683 713 q 694 535 683 613 q 726 403 706 458 q 775 346 747 347 q 831 404 804 347 q 876 539 858 461 q 894 671 894 617 q 888 748 894 713 q 869 828 881 783 q 862 860 868 835 q 856 903 856 885 q 1003 975 856 975 l 1039 975 q 1106 957 1085 974 q 1126 907 1126 940 q 1109 838 1126 874 q 1056 744 1092 801 q 978 606 1006 667 q 951 475 951 544 q 968 344 951 436 q 985 213 985 253 q 940 55 985 108 q 797 0 894 1 l 743 0 l 739 0 m 485 1024 q 435 1044 456 1024 q 415 1093 415 1064 q 435 1142 415 1122 q 485 1163 456 1163 q 534 1142 514 1163 q 554 1093 554 1122 q 534 1044 554 1064 q 485 1024 514 1024 m 586 1093 q 606 1142 586 1122 q 656 1163 626 1163 q 705 1142 685 1163 q 725 1093 725 1122 q 705 1044 725 1064 q 656 1024 685 1024 q 606 1044 626 1024 q 586 1093 586 1064 z "},"Ẁ":{"ha":1140,"x_min":14,"x_max":1126,"o":"m 739 0 q 632 58 671 3 q 593 213 593 113 q 610 344 593 253 q 626 475 626 436 l 626 478 q 608 524 625 507 q 569 540 592 540 q 532 524 549 540 q 514 478 515 507 l 514 475 q 531 344 514 436 q 547 213 547 253 q 508 58 547 113 q 401 0 469 3 l 347 0 l 343 0 q 201 55 246 1 q 156 213 156 108 q 172 344 156 253 q 189 475 189 436 q 162 606 189 544 q 85 744 135 667 q 31 838 49 801 q 14 907 14 874 q 35 957 14 940 q 101 975 56 974 l 138 975 q 285 903 285 975 q 278 860 285 885 q 271 828 272 835 q 253 748 260 783 q 246 671 246 713 q 264 539 246 617 q 309 404 282 461 q 365 346 336 347 q 414 403 393 347 q 446 535 435 458 q 457 671 457 613 q 450 748 457 713 q 432 828 443 783 q 424 860 431 835 q 418 903 418 885 q 445 960 418 944 q 515 975 472 975 l 625 975 q 695 960 668 975 q 722 903 722 944 q 716 860 722 885 q 708 828 710 835 q 690 748 697 783 q 683 671 683 713 q 694 535 683 613 q 726 403 706 458 q 775 346 747 347 q 831 404 804 347 q 876 539 858 461 q 894 671 894 617 q 888 748 894 713 q 869 828 881 783 q 862 860 868 835 q 856 903 856 885 q 1003 975 856 975 l 1039 975 q 1106 957 1085 974 q 1126 907 1126 940 q 1109 838 1126 874 q 1056 744 1092 801 q 978 606 1006 667 q 951 475 951 544 q 968 344 951 436 q 985 213 985 253 q 940 55 985 108 q 797 0 894 1 l 743 0 l 739 0 m 617 1024 q 572 1046 600 1024 q 522 1098 543 1068 q 500 1150 500 1128 q 512 1180 500 1168 q 540 1192 524 1192 q 574 1165 565 1192 q 618 1088 586 1122 q 635 1064 631 1072 q 640 1043 640 1056 q 633 1030 640 1036 q 617 1024 626 1024 z "},"X":{"ha":843,"x_min":28,"x_max":815,"o":"m 676 0 q 544 46 589 0 q 487 158 500 92 q 474 317 474 225 q 465 467 474 418 q 422 525 457 515 q 378 467 388 515 q 369 317 369 418 q 356 158 369 225 q 299 46 343 92 q 167 0 254 0 q 61 50 94 0 q 28 172 28 100 q 47 282 28 232 q 86 332 65 332 q 190 356 150 332 q 251 413 231 379 q 293 497 272 446 q 332 571 317 553 q 163 673 232 600 q 94 865 94 746 q 131 949 94 922 q 221 975 167 975 q 322 954 275 975 q 369 910 369 933 q 362 878 369 894 q 353 858 354 861 q 333 812 340 833 q 325 758 325 790 q 355 652 325 696 q 422 597 385 608 q 489 652 460 608 q 518 758 518 696 q 510 812 518 790 q 490 858 503 833 q 481 878 489 861 q 474 910 474 894 q 521 954 474 933 q 622 975 568 975 q 713 949 676 975 q 749 865 749 922 q 680 673 749 746 q 511 571 611 600 q 550 497 526 553 q 592 413 571 446 q 653 356 613 379 q 757 332 693 332 q 797 282 778 332 q 815 172 815 232 q 782 50 815 100 q 676 0 749 0 z "},"Y":{"ha":682,"x_min":14,"x_max":668,"o":"m 325 0 q 193 33 231 0 q 156 125 156 65 q 174 213 156 165 q 232 335 193 260 q 281 438 264 396 q 299 510 299 479 q 288 542 299 524 q 256 569 278 561 q 84 672 154 599 q 14 865 14 746 q 50 949 14 922 q 140 975 86 975 q 242 954 194 975 q 289 910 289 933 q 281 878 289 894 q 272 858 274 861 q 252 812 260 833 q 244 758 244 790 q 274 652 244 696 q 342 597 304 608 q 408 652 379 608 q 438 758 438 696 q 430 812 438 790 q 410 858 422 833 q 401 878 408 861 q 393 910 393 894 q 440 954 393 933 q 542 975 488 975 q 632 949 596 975 q 668 865 668 922 q 597 671 668 744 q 424 568 526 597 q 382 510 382 553 q 399 438 382 479 q 449 335 417 396 q 506 213 488 260 q 525 125 525 165 q 488 33 525 65 q 356 0 450 0 l 325 0 z "},"Ý":{"ha":682,"x_min":14,"x_max":668,"o":"m 325 0 q 193 33 231 0 q 156 125 156 65 q 174 213 156 165 q 232 335 193 260 q 281 438 264 396 q 299 510 299 479 q 288 542 299 524 q 256 569 278 561 q 84 672 154 599 q 14 865 14 746 q 50 949 14 922 q 140 975 86 975 q 242 954 194 975 q 289 910 289 933 q 281 878 289 894 q 272 858 274 861 q 252 812 260 833 q 244 758 244 790 q 274 652 244 696 q 342 597 304 608 q 408 652 379 608 q 438 758 438 696 q 430 812 438 790 q 410 858 422 833 q 401 878 408 861 q 393 910 393 894 q 440 954 393 933 q 542 975 488 975 q 632 949 596 975 q 668 865 668 922 q 597 671 668 744 q 424 568 526 597 q 382 510 382 553 q 399 438 382 479 q 449 335 417 396 q 506 213 488 260 q 525 125 525 165 q 488 33 525 65 q 356 0 450 0 l 325 0 m 289 1024 q 272 1030 279 1024 q 265 1043 265 1036 q 270 1064 265 1056 q 288 1088 275 1072 q 332 1165 319 1122 q 365 1192 340 1192 q 394 1180 382 1192 q 406 1150 406 1168 q 384 1098 406 1128 q 334 1046 363 1068 q 289 1024 306 1024 z "},"Ŷ":{"ha":682,"x_min":14,"x_max":668,"o":"m 325 0 q 193 33 231 0 q 156 125 156 65 q 174 213 156 165 q 232 335 193 260 q 281 438 264 396 q 299 510 299 479 q 288 542 299 524 q 256 569 278 561 q 84 672 154 599 q 14 865 14 746 q 50 949 14 922 q 140 975 86 975 q 242 954 194 975 q 289 910 289 933 q 281 878 289 894 q 272 858 274 861 q 252 812 260 833 q 244 758 244 790 q 274 652 244 696 q 342 597 304 608 q 408 652 379 608 q 438 758 438 696 q 430 812 438 790 q 410 858 422 833 q 401 878 408 861 q 393 910 393 894 q 440 954 393 933 q 542 975 488 975 q 632 949 596 975 q 668 865 668 922 q 597 671 668 744 q 424 568 526 597 q 382 510 382 553 q 399 438 382 479 q 449 335 417 396 q 506 213 488 260 q 525 125 525 165 q 488 33 525 65 q 356 0 450 0 l 325 0 m 419 1024 q 367 1060 381 1024 q 353 1146 353 1097 q 329 1122 340 1146 q 318 1058 318 1099 q 306 1033 318 1043 q 279 1024 294 1024 q 251 1035 263 1024 q 239 1067 239 1046 q 260 1119 239 1089 q 311 1170 282 1149 q 361 1192 340 1192 q 381 1185 372 1192 q 389 1167 389 1178 q 399 1115 389 1136 q 428 1072 410 1093 q 438 1057 433 1064 q 443 1044 443 1050 q 437 1030 443 1036 q 419 1024 431 1024 z "},"Ÿ":{"ha":682,"x_min":14,"x_max":668,"o":"m 325 0 q 193 33 231 0 q 156 125 156 65 q 174 213 156 165 q 232 335 193 260 q 281 438 264 396 q 299 510 299 479 q 288 542 299 524 q 256 569 278 561 q 84 672 154 599 q 14 865 14 746 q 50 949 14 922 q 140 975 86 975 q 242 954 194 975 q 289 910 289 933 q 281 878 289 894 q 272 858 274 861 q 252 812 260 833 q 244 758 244 790 q 274 652 244 696 q 342 597 304 608 q 408 652 379 608 q 438 758 438 696 q 430 812 438 790 q 410 858 422 833 q 401 878 408 861 q 393 910 393 894 q 440 954 393 933 q 542 975 488 975 q 632 949 596 975 q 668 865 668 922 q 597 671 668 744 q 424 568 526 597 q 382 510 382 553 q 399 438 382 479 q 449 335 417 396 q 506 213 488 260 q 525 125 525 165 q 488 33 525 65 q 356 0 450 0 l 325 0 m 256 1024 q 206 1044 226 1024 q 186 1093 186 1064 q 206 1142 186 1122 q 256 1163 226 1163 q 305 1142 285 1163 q 325 1093 325 1122 q 305 1044 325 1064 q 256 1024 285 1024 m 357 1093 q 377 1142 357 1122 q 426 1163 397 1163 q 476 1142 456 1163 q 496 1093 496 1122 q 476 1044 496 1064 q 426 1024 456 1024 q 377 1044 397 1024 q 357 1093 357 1064 z "},"Ỳ":{"ha":682,"x_min":14,"x_max":668,"o":"m 325 0 q 193 33 231 0 q 156 125 156 65 q 174 213 156 165 q 232 335 193 260 q 281 438 264 396 q 299 510 299 479 q 288 542 299 524 q 256 569 278 561 q 84 672 154 599 q 14 865 14 746 q 50 949 14 922 q 140 975 86 975 q 242 954 194 975 q 289 910 289 933 q 281 878 289 894 q 272 858 274 861 q 252 812 260 833 q 244 758 244 790 q 274 652 244 696 q 342 597 304 608 q 408 652 379 608 q 438 758 438 696 q 430 812 438 790 q 410 858 422 833 q 401 878 408 861 q 393 910 393 894 q 440 954 393 933 q 542 975 488 975 q 632 949 596 975 q 668 865 668 922 q 597 671 668 744 q 424 568 526 597 q 382 510 382 553 q 399 438 382 479 q 449 335 417 396 q 506 213 488 260 q 525 125 525 165 q 488 33 525 65 q 356 0 450 0 l 325 0 m 388 1024 q 342 1046 371 1024 q 292 1098 314 1068 q 271 1150 271 1128 q 283 1180 271 1168 q 311 1192 294 1192 q 344 1165 336 1192 q 389 1088 357 1122 q 406 1064 401 1072 q 411 1043 411 1056 q 404 1030 411 1036 q 388 1024 397 1024 z "},"Ỹ":{"ha":682,"x_min":14,"x_max":668,"o":"m 325 0 q 193 33 231 0 q 156 125 156 65 q 174 213 156 165 q 232 335 193 260 q 281 438 264 396 q 299 510 299 479 q 288 542 299 524 q 256 569 278 561 q 84 672 154 599 q 14 865 14 746 q 50 949 14 922 q 140 975 86 975 q 242 954 194 975 q 289 910 289 933 q 281 878 289 894 q 272 858 274 861 q 252 812 260 833 q 244 758 244 790 q 274 652 244 696 q 342 597 304 608 q 408 652 379 608 q 438 758 438 696 q 430 812 438 790 q 410 858 422 833 q 401 878 408 861 q 393 910 393 894 q 440 954 393 933 q 542 975 488 975 q 632 949 596 975 q 668 865 668 922 q 597 671 668 744 q 424 568 526 597 q 382 510 382 553 q 399 438 382 479 q 449 335 417 396 q 506 213 488 260 q 525 125 525 165 q 488 33 525 65 q 356 0 450 0 l 325 0 m 414 1024 q 378 1034 392 1024 q 347 1067 365 1044 q 318 1097 331 1088 q 286 1107 306 1107 q 265 1099 274 1107 q 250 1078 257 1092 q 233 1054 240 1061 q 211 1047 225 1047 q 192 1057 199 1047 q 185 1081 185 1067 q 205 1139 185 1111 q 257 1167 225 1167 q 292 1156 276 1167 q 331 1122 308 1144 q 365 1092 351 1101 q 396 1082 379 1082 q 424 1090 414 1082 q 443 1114 433 1099 q 456 1131 450 1125 q 471 1138 461 1138 q 490 1129 483 1138 q 497 1107 497 1121 q 474 1050 497 1076 q 414 1024 451 1024 z "},"Z":{"ha":711,"x_min":28,"x_max":690,"o":"m 167 0 q 61 41 94 1 q 28 139 28 81 q 64 255 28 199 q 174 396 100 311 q 292 549 251 483 q 336 688 333 615 q 317 793 335 765 q 267 821 299 821 q 197 807 229 821 q 157 793 164 793 q 96 825 118 793 q 74 911 74 857 q 101 967 74 951 q 176 983 128 983 q 250 979 208 983 q 346 975 342 975 l 458 975 q 531 969 507 975 q 563 949 554 963 q 571 911 571 935 q 555 853 571 882 q 501 772 539 825 q 410 619 443 690 q 375 456 376 549 q 387 372 375 411 q 416 310 399 333 q 444 286 433 286 q 505 322 472 308 q 568 335 538 335 q 655 295 621 335 q 690 171 689 256 l 690 165 l 690 161 q 658 37 689 74 q 565 0 626 0 l 171 0 l 167 0 z "},"Ź":{"ha":711,"x_min":28,"x_max":690,"o":"m 167 0 q 61 41 94 1 q 28 139 28 81 q 64 255 28 199 q 174 396 100 311 q 292 549 251 483 q 336 688 333 615 q 317 793 335 765 q 267 821 299 821 q 197 807 229 821 q 157 793 164 793 q 96 825 118 793 q 74 911 74 857 q 101 967 74 951 q 176 983 128 983 q 250 979 208 983 q 346 975 342 975 l 458 975 q 531 969 507 975 q 563 949 554 963 q 571 911 571 935 q 555 853 571 882 q 501 772 539 825 q 410 619 443 690 q 375 456 376 549 q 387 372 375 411 q 416 310 399 333 q 444 286 433 286 q 505 322 472 308 q 568 335 538 335 q 655 295 621 335 q 690 171 689 256 l 690 165 l 690 161 q 658 37 689 74 q 565 0 626 0 l 171 0 l 167 0 m 303 1024 q 286 1030 293 1024 q 279 1043 279 1036 q 284 1064 279 1056 q 301 1088 289 1072 q 346 1165 333 1122 q 379 1192 354 1192 q 408 1180 396 1192 q 419 1150 419 1168 q 398 1098 419 1128 q 348 1046 376 1068 q 303 1024 319 1024 z "},"Ž":{"ha":711,"x_min":28,"x_max":690,"o":"m 167 0 q 61 41 94 1 q 28 139 28 81 q 64 255 28 199 q 174 396 100 311 q 292 549 251 483 q 336 688 333 615 q 317 793 335 765 q 267 821 299 821 q 197 807 229 821 q 157 793 164 793 q 96 825 118 793 q 74 911 74 857 q 101 967 74 951 q 176 983 128 983 q 250 979 208 983 q 346 975 342 975 l 458 975 q 531 969 507 975 q 563 949 554 963 q 571 911 571 935 q 555 853 571 882 q 501 772 539 825 q 410 619 443 690 q 375 456 376 549 q 387 372 375 411 q 416 310 399 333 q 444 286 433 286 q 505 322 472 308 q 568 335 538 335 q 655 295 621 335 q 690 171 689 256 l 690 165 l 690 161 q 658 37 689 74 q 565 0 626 0 l 171 0 l 167 0 m 335 1024 q 315 1031 324 1024 q 307 1049 307 1038 q 297 1101 307 1081 q 268 1143 286 1122 q 258 1158 263 1151 q 253 1171 253 1165 q 259 1185 253 1179 q 276 1192 265 1192 q 329 1155 315 1192 q 343 1069 343 1118 q 367 1093 356 1069 q 378 1157 378 1117 q 390 1182 378 1172 q 417 1192 401 1192 q 445 1181 433 1192 q 457 1149 457 1169 q 435 1097 457 1126 q 385 1045 414 1067 q 335 1024 356 1024 z "},"Ż":{"ha":711,"x_min":28,"x_max":690,"o":"m 167 0 q 61 41 94 1 q 28 139 28 81 q 64 255 28 199 q 174 396 100 311 q 292 549 251 483 q 336 688 333 615 q 317 793 335 765 q 267 821 299 821 q 197 807 229 821 q 157 793 164 793 q 96 825 118 793 q 74 911 74 857 q 101 967 74 951 q 176 983 128 983 q 250 979 208 983 q 346 975 342 975 l 458 975 q 531 969 507 975 q 563 949 554 963 q 571 911 571 935 q 555 853 571 882 q 501 772 539 825 q 410 619 443 690 q 375 456 376 549 q 387 372 375 411 q 416 310 399 333 q 444 286 433 286 q 505 322 472 308 q 568 335 538 335 q 655 295 621 335 q 690 171 689 256 l 690 165 l 690 161 q 658 37 689 74 q 565 0 626 0 l 171 0 l 167 0 m 356 1024 q 306 1044 326 1024 q 286 1093 286 1064 q 306 1142 286 1122 q 356 1163 326 1163 q 405 1142 385 1163 q 425 1093 425 1122 q 405 1044 425 1064 q 356 1024 385 1024 z "},"a":{"ha":651,"x_min":21,"x_max":650,"o":"m 490 754 q 587 738 560 754 q 614 683 614 721 q 606 647 614 667 q 581 590 599 628 q 532 476 550 529 q 514 361 514 424 q 526 272 514 303 q 553 231 538 242 q 596 213 569 219 q 637 191 624 204 q 650 140 650 178 q 614 37 650 72 q 490 0 578 1 l 460 0 l 456 0 l 239 0 q 74 81 128 0 q 21 290 21 163 q 56 506 21 397 q 152 684 92 614 q 282 754 213 754 l 490 754 m 144 392 q 177 269 144 318 q 276 221 210 221 q 374 269 342 221 q 407 392 407 318 q 373 551 407 481 q 276 621 339 621 q 179 551 214 621 q 144 392 144 482 z "},"á":{"ha":651,"x_min":21,"x_max":650,"o":"m 490 754 q 587 738 560 754 q 614 683 614 721 q 606 647 614 667 q 581 590 599 628 q 532 476 550 529 q 514 361 514 424 q 526 272 514 303 q 553 231 538 242 q 596 213 569 219 q 637 191 624 204 q 650 140 650 178 q 614 37 650 72 q 490 0 578 1 l 460 0 l 456 0 l 239 0 q 74 81 128 0 q 21 290 21 163 q 56 506 21 397 q 152 684 92 614 q 282 754 213 754 l 490 754 m 144 392 q 177 269 144 318 q 276 221 210 221 q 374 269 342 221 q 407 392 407 318 q 373 551 407 481 q 276 621 339 621 q 179 551 214 621 q 144 392 144 482 m 332 803 q 315 809 322 803 q 308 822 308 815 q 313 843 308 835 q 331 867 318 851 q 375 944 363 901 q 408 971 383 971 q 437 959 425 971 q 449 929 449 947 q 427 877 449 907 q 377 825 406 847 q 332 803 349 803 z "},"ă":{"ha":651,"x_min":21,"x_max":650,"o":"m 490 754 q 587 738 560 754 q 614 683 614 721 q 606 647 614 667 q 581 590 599 628 q 532 476 550 529 q 514 361 514 424 q 526 272 514 303 q 553 231 538 242 q 596 213 569 219 q 637 191 624 204 q 650 140 650 178 q 614 37 650 72 q 490 0 578 1 l 460 0 l 456 0 l 239 0 q 74 81 128 0 q 21 290 21 163 q 56 506 21 397 q 152 684 92 614 q 282 754 213 754 l 490 754 m 144 392 q 177 269 144 318 q 276 221 210 221 q 374 269 342 221 q 407 392 407 318 q 373 551 407 481 q 276 621 339 621 q 179 551 214 621 q 144 392 144 482 m 385 803 q 313 820 342 803 q 269 862 283 838 q 254 907 254 886 q 267 935 254 925 q 294 944 279 944 q 322 936 310 944 q 333 914 333 928 q 383 842 333 842 q 435 914 435 842 q 447 936 435 928 q 474 944 458 944 q 502 935 490 944 q 514 907 514 925 q 500 862 514 886 q 457 820 486 838 q 385 803 428 803 z "},"â":{"ha":651,"x_min":21,"x_max":650,"o":"m 490 754 q 587 738 560 754 q 614 683 614 721 q 606 647 614 667 q 581 590 599 628 q 532 476 550 529 q 514 361 514 424 q 526 272 514 303 q 553 231 538 242 q 596 213 569 219 q 637 191 624 204 q 650 140 650 178 q 614 37 650 72 q 490 0 578 1 l 460 0 l 456 0 l 239 0 q 74 81 128 0 q 21 290 21 163 q 56 506 21 397 q 152 684 92 614 q 282 754 213 754 l 490 754 m 144 392 q 177 269 144 318 q 276 221 210 221 q 374 269 342 221 q 407 392 407 318 q 373 551 407 481 q 276 621 339 621 q 179 551 214 621 q 144 392 144 482 m 463 803 q 410 840 424 803 q 396 925 396 876 q 372 901 383 925 q 361 838 361 878 q 349 813 361 822 q 322 803 338 803 q 294 814 306 803 q 282 846 282 825 q 303 898 282 868 q 354 949 325 928 q 404 971 383 971 q 424 964 415 971 q 432 946 432 957 q 442 894 432 915 q 471 851 453 872 q 481 836 476 843 q 486 824 486 829 q 480 809 486 815 q 463 803 474 803 z "},"ä":{"ha":651,"x_min":21,"x_max":650,"o":"m 490 754 q 587 738 560 754 q 614 683 614 721 q 606 647 614 667 q 581 590 599 628 q 532 476 550 529 q 514 361 514 424 q 526 272 514 303 q 553 231 538 242 q 596 213 569 219 q 637 191 624 204 q 650 140 650 178 q 614 37 650 72 q 490 0 578 1 l 460 0 l 456 0 l 239 0 q 74 81 128 0 q 21 290 21 163 q 56 506 21 397 q 152 684 92 614 q 282 754 213 754 l 490 754 m 144 392 q 177 269 144 318 q 276 221 210 221 q 374 269 342 221 q 407 392 407 318 q 373 551 407 481 q 276 621 339 621 q 179 551 214 621 q 144 392 144 482 m 299 803 q 249 823 269 803 q 229 872 229 843 q 249 922 229 901 q 299 942 269 942 q 348 922 328 942 q 368 872 368 901 q 348 823 368 843 q 299 803 328 803 m 400 872 q 420 922 400 901 q 469 942 440 942 q 519 922 499 942 q 539 872 539 901 q 519 823 539 843 q 469 803 499 803 q 420 823 440 803 q 400 872 400 843 z "},"à":{"ha":651,"x_min":21,"x_max":650,"o":"m 490 754 q 587 738 560 754 q 614 683 614 721 q 606 647 614 667 q 581 590 599 628 q 532 476 550 529 q 514 361 514 424 q 526 272 514 303 q 553 231 538 242 q 596 213 569 219 q 637 191 624 204 q 650 140 650 178 q 614 37 650 72 q 490 0 578 1 l 460 0 l 456 0 l 239 0 q 74 81 128 0 q 21 290 21 163 q 56 506 21 397 q 152 684 92 614 q 282 754 213 754 l 490 754 m 144 392 q 177 269 144 318 q 276 221 210 221 q 374 269 342 221 q 407 392 407 318 q 373 551 407 481 q 276 621 339 621 q 179 551 214 621 q 144 392 144 482 m 431 803 q 385 825 414 803 q 335 877 357 847 q 314 929 314 907 q 326 959 314 947 q 354 971 338 971 q 388 944 379 971 q 432 867 400 901 q 449 843 444 851 q 454 822 454 835 q 447 809 454 815 q 431 803 440 803 z "},"ā":{"ha":651,"x_min":21,"x_max":650,"o":"m 490 754 q 587 738 560 754 q 614 683 614 721 q 606 647 614 667 q 581 590 599 628 q 532 476 550 529 q 514 361 514 424 q 526 272 514 303 q 553 231 538 242 q 596 213 569 219 q 637 191 624 204 q 650 140 650 178 q 614 37 650 72 q 490 0 578 1 l 460 0 l 456 0 l 239 0 q 74 81 128 0 q 21 290 21 163 q 56 506 21 397 q 152 684 92 614 q 282 754 213 754 l 490 754 m 144 392 q 177 269 144 318 q 276 221 210 221 q 374 269 342 221 q 407 392 407 318 q 373 551 407 481 q 276 621 339 621 q 179 551 214 621 q 144 392 144 482 m 260 801 q 238 808 246 801 q 229 822 229 814 q 288 870 229 847 q 403 893 347 893 q 501 883 464 893 q 539 842 539 872 q 530 815 539 828 q 504 803 521 803 q 454 810 486 803 q 372 821 404 821 q 293 808 333 821 q 260 801 272 801 z "},"ą":{"ha":651,"x_min":21,"x_max":650,"o":"m 490 754 q 587 738 560 754 q 614 683 614 721 q 606 647 614 667 q 581 590 599 628 q 532 476 550 529 q 514 361 514 424 q 526 272 514 303 q 553 231 538 242 q 596 213 569 219 q 637 191 624 204 q 650 140 650 178 q 614 37 650 72 q 490 0 578 1 l 463 0 q 429 -87 429 -57 q 440 -113 429 -104 q 481 -122 451 -122 q 501 -131 493 -122 q 510 -151 510 -139 q 494 -181 510 -168 q 446 -193 478 -193 q 364 -133 364 -193 q 387 -64 364 -101 q 436 0 410 -26 l 239 0 q 74 81 128 0 q 21 290 21 163 q 56 506 21 397 q 152 684 92 614 q 282 754 213 754 l 490 754 m 144 392 q 177 269 144 318 q 276 221 210 221 q 374 269 342 221 q 407 392 407 318 q 373 551 407 481 q 276 621 339 621 q 179 551 214 621 q 144 392 144 482 z "},"å":{"ha":651,"x_min":21,"x_max":650,"o":"m 490 754 q 587 738 560 754 q 614 683 614 721 q 606 647 614 667 q 581 590 599 628 q 532 476 550 529 q 514 361 514 424 q 526 272 514 303 q 553 231 538 242 q 596 213 569 219 q 637 191 624 204 q 650 140 650 178 q 614 37 650 72 q 490 0 578 1 l 460 0 l 456 0 l 239 0 q 74 81 128 0 q 21 290 21 163 q 56 506 21 397 q 152 684 92 614 q 282 754 213 754 l 490 754 m 144 392 q 177 269 144 318 q 276 221 210 221 q 374 269 342 221 q 407 392 407 318 q 373 551 407 481 q 276 621 339 621 q 179 551 214 621 q 144 392 144 482 m 385 803 q 316 831 344 803 q 288 900 288 860 q 316 968 288 940 q 385 996 344 996 q 453 968 425 996 q 481 900 481 940 q 453 831 481 860 q 385 803 425 803 m 336 917 q 351 878 336 894 q 385 861 365 861 q 418 878 404 861 q 432 917 432 894 q 417 953 432 938 q 385 969 403 969 q 351 953 365 969 q 336 917 336 938 z "},"ã":{"ha":651,"x_min":21,"x_max":650,"o":"m 490 754 q 587 738 560 754 q 614 683 614 721 q 606 647 614 667 q 581 590 599 628 q 532 476 550 529 q 514 361 514 424 q 526 272 514 303 q 553 231 538 242 q 596 213 569 219 q 637 191 624 204 q 650 140 650 178 q 614 37 650 72 q 490 0 578 1 l 460 0 l 456 0 l 239 0 q 74 81 128 0 q 21 290 21 163 q 56 506 21 397 q 152 684 92 614 q 282 754 213 754 l 490 754 m 144 392 q 177 269 144 318 q 276 221 210 221 q 374 269 342 221 q 407 392 407 318 q 373 551 407 481 q 276 621 339 621 q 179 551 214 621 q 144 392 144 482 m 457 803 q 422 813 435 803 q 390 846 408 824 q 361 876 374 867 q 329 886 349 886 q 308 878 317 886 q 293 857 300 871 q 276 833 283 840 q 254 826 268 826 q 235 836 242 826 q 228 860 228 846 q 248 918 228 890 q 300 946 268 946 q 335 935 319 946 q 374 901 351 924 q 408 871 394 881 q 439 861 422 861 q 467 869 457 861 q 486 893 476 878 q 499 910 493 904 q 514 917 504 917 q 533 908 526 917 q 540 886 540 900 q 517 829 540 856 q 457 803 494 803 z "},"æ":{"ha":1042,"x_min":21,"x_max":1021,"o":"m 490 754 q 586 738 558 754 q 614 685 614 721 q 698 737 653 719 q 788 754 743 754 q 897 719 853 754 q 940 625 940 685 q 914 542 940 576 q 851 486 888 507 q 756 440 814 465 q 665 393 693 413 q 636 344 636 374 q 646 307 636 326 q 739 268 681 268 q 798 282 778 268 q 839 322 818 296 q 868 353 856 343 q 901 363 881 363 q 990 347 960 363 q 1021 272 1021 331 q 980 128 1021 190 q 874 33 939 67 q 738 0 808 0 q 608 32 667 0 q 490 0 567 0 l 460 0 l 456 0 l 239 0 q 74 81 128 0 q 21 290 21 163 q 56 506 21 397 q 152 684 92 614 q 282 754 213 754 l 490 754 m 144 392 q 177 269 144 318 q 276 221 210 221 q 374 269 342 221 q 407 392 407 318 q 373 551 407 481 q 276 621 339 621 q 179 551 214 621 q 144 392 144 482 m 608 450 q 626 438 611 438 q 693 463 650 438 q 769 522 736 488 q 803 582 803 556 q 787 622 803 608 q 746 636 771 636 q 685 615 717 636 q 632 552 654 594 q 608 450 610 510 z "},"b":{"ha":668,"x_min":42,"x_max":647,"o":"m 192 0 q 76 33 110 1 q 42 125 42 64 q 54 201 42 160 q 93 311 67 243 q 149 477 129 404 q 169 624 169 550 q 153 725 169 679 q 107 829 136 771 q 83 878 90 860 q 75 911 75 896 q 101 960 75 944 q 192 975 126 975 l 224 975 q 314 960 289 975 q 339 911 339 944 q 331 878 339 896 q 307 828 324 861 q 263 731 279 775 q 244 635 246 688 q 407 754 311 754 q 537 688 482 754 q 619 517 592 621 q 647 303 647 413 q 589 85 647 171 q 407 0 531 0 l 192 0 m 286 401 q 318 277 286 326 q 415 228 350 228 q 511 277 479 228 q 543 401 543 326 q 509 561 543 490 q 415 632 475 632 q 320 561 354 632 q 286 401 286 490 z "},"c":{"ha":585,"x_min":21,"x_max":564,"o":"m 281 0 q 152 32 211 0 q 57 131 93 64 q 21 297 21 197 q 68 557 21 454 q 186 707 115 660 q 331 754 257 754 q 440 722 396 754 q 483 638 483 689 q 448 549 483 582 q 368 515 413 515 q 327 526 340 515 q 314 556 314 538 q 319 588 314 568 q 324 613 324 607 q 313 628 324 622 q 283 635 301 635 q 224 616 254 635 q 172 553 193 597 q 151 442 151 510 q 183 316 151 364 q 282 268 214 268 q 341 282 321 268 q 382 322 361 296 q 411 353 399 343 q 444 363 424 363 q 533 347 503 363 q 564 272 564 331 q 523 128 564 190 q 417 33 482 67 q 281 0 351 0 z "},"ć":{"ha":585,"x_min":21,"x_max":564,"o":"m 281 0 q 152 32 211 0 q 57 131 93 64 q 21 297 21 197 q 68 557 21 454 q 186 707 115 660 q 331 754 257 754 q 440 722 396 754 q 483 638 483 689 q 448 549 483 582 q 368 515 413 515 q 327 526 340 515 q 314 556 314 538 q 319 588 314 568 q 324 613 324 607 q 313 628 324 622 q 283 635 301 635 q 224 616 254 635 q 172 553 193 597 q 151 442 151 510 q 183 316 151 364 q 282 268 214 268 q 341 282 321 268 q 382 322 361 296 q 411 353 399 343 q 444 363 424 363 q 533 347 503 363 q 564 272 564 331 q 523 128 564 190 q 417 33 482 67 q 281 0 351 0 m 289 803 q 272 809 279 803 q 265 822 265 815 q 270 843 265 835 q 288 867 275 851 q 332 944 319 901 q 365 971 340 971 q 394 959 382 971 q 406 929 406 947 q 384 877 406 907 q 334 825 363 847 q 289 803 306 803 z "},"č":{"ha":585,"x_min":21,"x_max":564,"o":"m 281 0 q 152 32 211 0 q 57 131 93 64 q 21 297 21 197 q 68 557 21 454 q 186 707 115 660 q 331 754 257 754 q 440 722 396 754 q 483 638 483 689 q 448 549 483 582 q 368 515 413 515 q 327 526 340 515 q 314 556 314 538 q 319 588 314 568 q 324 613 324 607 q 313 628 324 622 q 283 635 301 635 q 224 616 254 635 q 172 553 193 597 q 151 442 151 510 q 183 316 151 364 q 282 268 214 268 q 341 282 321 268 q 382 322 361 296 q 411 353 399 343 q 444 363 424 363 q 533 347 503 363 q 564 272 564 331 q 523 128 564 190 q 417 33 482 67 q 281 0 351 0 m 321 803 q 301 810 310 803 q 293 828 293 817 q 283 881 293 860 q 254 922 272 901 q 244 938 249 931 q 239 950 239 944 q 245 965 239 958 q 263 971 251 971 q 315 934 301 971 q 329 849 329 897 q 353 872 342 849 q 364 936 364 896 q 376 961 364 951 q 403 971 388 971 q 431 960 419 971 q 443 928 443 949 q 422 876 443 906 q 371 824 400 846 q 321 803 342 803 z "},"ç":{"ha":585,"x_min":21,"x_max":564,"o":"m 263 -197 q 229 -187 242 -197 q 217 -162 217 -176 q 228 -138 217 -149 q 263 -128 240 -128 q 290 -129 278 -128 q 314 -131 303 -131 q 340 -114 340 -131 q 319 -91 340 -101 q 263 -81 299 -81 q 229 -53 229 -81 q 278 0 229 -29 q 151 33 210 1 q 57 132 93 65 q 21 297 21 199 q 68 557 21 454 q 186 707 115 660 q 331 754 257 754 q 440 722 396 754 q 483 638 483 689 q 448 549 483 582 q 368 515 413 515 q 327 526 340 515 q 314 556 314 538 q 319 588 314 568 q 324 613 324 607 q 313 628 324 622 q 283 635 301 635 q 224 616 254 635 q 172 553 193 597 q 151 442 151 510 q 183 316 151 364 q 282 268 214 268 q 341 282 321 268 q 382 322 361 296 q 411 353 399 343 q 444 363 424 363 q 533 347 503 363 q 564 272 564 331 q 527 135 564 194 q 431 41 490 75 q 303 1 371 7 q 275 -24 288 -8 q 263 -56 263 -40 q 351 -73 322 -56 q 381 -118 381 -90 q 347 -173 381 -149 q 263 -197 314 -197 z "},"ċ":{"ha":585,"x_min":21,"x_max":564,"o":"m 281 0 q 152 32 211 0 q 57 131 93 64 q 21 297 21 197 q 68 557 21 454 q 186 707 115 660 q 331 754 257 754 q 440 722 396 754 q 483 638 483 689 q 448 549 483 582 q 368 515 413 515 q 327 526 340 515 q 314 556 314 538 q 319 588 314 568 q 324 613 324 607 q 313 628 324 622 q 283 635 301 635 q 224 616 254 635 q 172 553 193 597 q 151 442 151 510 q 183 316 151 364 q 282 268 214 268 q 341 282 321 268 q 382 322 361 296 q 411 353 399 343 q 444 363 424 363 q 533 347 503 363 q 564 272 564 331 q 523 128 564 190 q 417 33 482 67 q 281 0 351 0 m 342 803 q 292 823 313 803 q 272 872 272 843 q 292 922 272 901 q 342 942 313 942 q 391 922 371 942 q 411 872 411 901 q 391 823 411 843 q 342 803 371 803 z "},"d":{"ha":668,"x_min":21,"x_max":626,"o":"m 476 975 q 567 960 542 975 q 593 911 593 944 q 585 878 593 896 q 561 829 578 860 q 515 725 532 771 q 499 624 499 679 q 519 477 499 550 q 575 311 539 404 q 614 201 601 243 q 626 125 626 160 q 592 33 626 64 q 476 0 558 1 l 261 0 q 79 85 138 0 q 21 303 21 171 q 49 517 21 413 q 131 688 76 621 q 261 754 186 754 q 424 635 357 754 q 406 731 422 688 q 361 828 389 775 q 337 878 344 861 q 329 911 329 896 q 354 960 329 944 q 444 975 379 975 l 476 975 m 125 401 q 157 277 125 326 q 253 228 189 228 q 350 277 318 228 q 382 401 382 326 q 348 561 382 490 q 253 632 314 632 q 159 561 193 632 q 125 401 125 490 z "},"ð":{"ha":592,"x_min":21,"x_max":571,"o":"m 294 0 q 88 65 156 0 q 21 222 21 129 q 28 280 21 253 q 51 342 36 307 q 75 426 75 397 q 105 520 75 479 q 182 583 135 561 q 281 604 229 604 q 442 517 383 604 q 423 608 439 564 q 381 682 407 653 l 335 660 q 308 651 318 651 q 290 668 290 651 q 314 703 290 692 l 340 715 q 288 728 315 728 q 251 722 261 728 q 242 706 242 717 q 243 692 242 699 q 244 679 244 686 q 233 660 244 667 q 193 654 222 654 q 106 676 143 654 q 68 742 68 699 q 114 824 68 796 q 232 853 160 853 q 428 757 346 853 l 476 781 q 496 786 490 786 q 513 771 508 786 l 513 767 q 488 735 513 747 l 457 719 q 542 523 513 638 q 571 306 571 408 q 505 77 571 154 q 294 0 439 0 m 146 365 q 160 308 146 339 q 209 254 175 276 q 294 232 243 232 q 381 254 347 232 q 428 308 414 276 q 443 365 443 339 q 424 432 443 399 q 372 486 406 465 q 296 507 339 507 q 217 486 251 507 q 165 433 183 465 q 146 365 146 400 z "},"ď":{"ha":668,"x_min":21,"x_max":761,"o":"m 476 975 q 567 960 542 975 q 593 911 593 944 q 585 878 593 896 q 561 829 578 860 q 515 725 532 771 q 499 624 499 679 q 519 477 499 550 q 575 311 539 404 q 614 201 601 243 q 626 125 626 160 q 592 33 626 64 q 476 0 558 1 l 261 0 q 79 85 138 0 q 21 303 21 171 q 49 517 21 413 q 131 688 76 621 q 261 754 186 754 q 424 635 357 754 q 406 731 422 688 q 361 828 389 775 q 337 878 344 861 q 329 911 329 896 q 354 960 329 944 q 444 975 379 975 l 476 975 m 125 401 q 157 277 125 326 q 253 228 189 228 q 350 277 318 228 q 382 401 382 326 q 348 561 382 490 q 253 632 314 632 q 159 561 193 632 q 125 401 125 490 m 694 803 q 668 828 668 803 q 674 861 668 839 q 685 944 685 894 q 692 964 685 957 q 713 971 700 971 q 746 959 731 971 q 761 929 761 947 q 740 847 761 890 q 694 803 719 803 z "},"đ":{"ha":668,"x_min":21,"x_max":626,"o":"m 476 975 q 567 960 542 975 q 593 911 593 944 q 576 858 593 894 l 592 858 q 619 826 619 858 q 613 803 619 813 q 592 793 606 793 l 543 793 q 510 710 522 750 q 499 624 499 669 q 519 477 499 550 q 575 311 539 404 q 614 201 601 243 q 626 125 626 160 q 592 33 626 64 q 476 0 558 1 l 261 0 q 79 85 138 0 q 21 303 21 171 q 49 517 21 413 q 131 688 76 621 q 261 754 186 754 q 424 635 357 754 q 379 793 421 706 l 296 793 q 274 803 282 793 q 267 826 267 813 q 274 849 267 839 q 296 858 282 858 l 346 858 q 329 911 329 894 q 354 960 329 944 q 444 975 379 975 l 476 975 m 125 401 q 157 277 125 326 q 253 228 189 228 q 350 277 318 228 q 382 401 382 326 q 348 561 382 490 q 253 632 314 632 q 159 561 193 632 q 125 401 125 490 z "},"e":{"ha":585,"x_min":21,"x_max":564,"o":"m 281 0 q 152 32 211 0 q 57 131 93 64 q 21 297 21 197 q 68 557 21 454 q 186 707 115 660 q 331 754 257 754 q 440 719 396 754 q 483 625 483 685 q 457 542 483 576 q 394 486 431 507 q 299 440 357 465 q 208 393 236 413 q 179 344 179 374 q 189 307 179 326 q 282 268 224 268 q 341 282 321 268 q 382 322 361 296 q 411 353 399 343 q 444 363 424 363 q 533 347 503 363 q 564 272 564 331 q 523 128 564 190 q 417 33 482 67 q 281 0 351 0 m 151 450 q 169 438 154 438 q 236 463 193 438 q 313 522 279 488 q 346 582 346 556 q 330 622 346 608 q 289 636 314 636 q 228 615 260 636 q 175 552 197 594 q 151 450 153 510 z "},"é":{"ha":585,"x_min":21,"x_max":564,"o":"m 281 0 q 152 32 211 0 q 57 131 93 64 q 21 297 21 197 q 68 557 21 454 q 186 707 115 660 q 331 754 257 754 q 440 719 396 754 q 483 625 483 685 q 457 542 483 576 q 394 486 431 507 q 299 440 357 465 q 208 393 236 413 q 179 344 179 374 q 189 307 179 326 q 282 268 224 268 q 341 282 321 268 q 382 322 361 296 q 411 353 399 343 q 444 363 424 363 q 533 347 503 363 q 564 272 564 331 q 523 128 564 190 q 417 33 482 67 q 281 0 351 0 m 151 450 q 169 438 154 438 q 236 463 193 438 q 313 522 279 488 q 346 582 346 556 q 330 622 346 608 q 289 636 314 636 q 228 615 260 636 q 175 552 197 594 q 151 450 153 510 m 278 803 q 261 809 268 803 q 254 822 254 815 q 259 843 254 835 q 276 867 264 851 q 321 944 308 901 q 354 971 329 971 q 383 959 371 971 q 394 929 394 947 q 373 877 394 907 q 323 825 351 847 q 278 803 294 803 z "},"ě":{"ha":585,"x_min":21,"x_max":564,"o":"m 281 0 q 152 32 211 0 q 57 131 93 64 q 21 297 21 197 q 68 557 21 454 q 186 707 115 660 q 331 754 257 754 q 440 719 396 754 q 483 625 483 685 q 457 542 483 576 q 394 486 431 507 q 299 440 357 465 q 208 393 236 413 q 179 344 179 374 q 189 307 179 326 q 282 268 224 268 q 341 282 321 268 q 382 322 361 296 q 411 353 399 343 q 444 363 424 363 q 533 347 503 363 q 564 272 564 331 q 523 128 564 190 q 417 33 482 67 q 281 0 351 0 m 151 450 q 169 438 154 438 q 236 463 193 438 q 313 522 279 488 q 346 582 346 556 q 330 622 346 608 q 289 636 314 636 q 228 615 260 636 q 175 552 197 594 q 151 450 153 510 m 310 803 q 290 810 299 803 q 282 828 282 817 q 272 881 282 860 q 243 922 261 901 q 233 938 238 931 q 228 950 228 944 q 234 965 228 958 q 251 971 240 971 q 304 934 290 971 q 318 849 318 897 q 342 872 331 849 q 353 936 353 896 q 365 961 353 951 q 392 971 376 971 q 420 960 408 971 q 432 928 432 949 q 410 876 432 906 q 360 824 389 846 q 310 803 331 803 z "},"ê":{"ha":585,"x_min":21,"x_max":564,"o":"m 281 0 q 152 32 211 0 q 57 131 93 64 q 21 297 21 197 q 68 557 21 454 q 186 707 115 660 q 331 754 257 754 q 440 719 396 754 q 483 625 483 685 q 457 542 483 576 q 394 486 431 507 q 299 440 357 465 q 208 393 236 413 q 179 344 179 374 q 189 307 179 326 q 282 268 224 268 q 341 282 321 268 q 382 322 361 296 q 411 353 399 343 q 444 363 424 363 q 533 347 503 363 q 564 272 564 331 q 523 128 564 190 q 417 33 482 67 q 281 0 351 0 m 151 450 q 169 438 154 438 q 236 463 193 438 q 313 522 279 488 q 346 582 346 556 q 330 622 346 608 q 289 636 314 636 q 228 615 260 636 q 175 552 197 594 q 151 450 153 510 m 408 803 q 356 840 369 803 q 342 925 342 876 q 318 901 329 925 q 307 838 307 878 q 295 813 307 822 q 268 803 283 803 q 240 814 251 803 q 228 846 228 825 q 249 898 228 868 q 300 949 271 928 q 350 971 329 971 q 369 964 361 971 q 378 946 378 957 q 388 894 378 915 q 417 851 399 872 q 427 836 422 843 q 432 824 432 829 q 426 809 432 815 q 408 803 419 803 z "},"ë":{"ha":585,"x_min":21,"x_max":564,"o":"m 281 0 q 152 32 211 0 q 57 131 93 64 q 21 297 21 197 q 68 557 21 454 q 186 707 115 660 q 331 754 257 754 q 440 719 396 754 q 483 625 483 685 q 457 542 483 576 q 394 486 431 507 q 299 440 357 465 q 208 393 236 413 q 179 344 179 374 q 189 307 179 326 q 282 268 224 268 q 341 282 321 268 q 382 322 361 296 q 411 353 399 343 q 444 363 424 363 q 533 347 503 363 q 564 272 564 331 q 523 128 564 190 q 417 33 482 67 q 281 0 351 0 m 151 450 q 169 438 154 438 q 236 463 193 438 q 313 522 279 488 q 346 582 346 556 q 330 622 346 608 q 289 636 314 636 q 228 615 260 636 q 175 552 197 594 q 151 450 153 510 m 244 803 q 195 823 215 803 q 175 872 175 843 q 195 922 175 901 q 244 942 215 942 q 294 922 274 942 q 314 872 314 901 q 294 823 314 843 q 244 803 274 803 m 346 872 q 366 922 346 901 q 415 942 386 942 q 465 922 444 942 q 485 872 485 901 q 465 823 485 843 q 415 803 444 803 q 366 823 386 803 q 346 872 346 843 z "},"ė":{"ha":585,"x_min":21,"x_max":564,"o":"m 281 0 q 152 32 211 0 q 57 131 93 64 q 21 297 21 197 q 68 557 21 454 q 186 707 115 660 q 331 754 257 754 q 440 719 396 754 q 483 625 483 685 q 457 542 483 576 q 394 486 431 507 q 299 440 357 465 q 208 393 236 413 q 179 344 179 374 q 189 307 179 326 q 282 268 224 268 q 341 282 321 268 q 382 322 361 296 q 411 353 399 343 q 444 363 424 363 q 533 347 503 363 q 564 272 564 331 q 523 128 564 190 q 417 33 482 67 q 281 0 351 0 m 151 450 q 169 438 154 438 q 236 463 193 438 q 313 522 279 488 q 346 582 346 556 q 330 622 346 608 q 289 636 314 636 q 228 615 260 636 q 175 552 197 594 q 151 450 153 510 m 331 803 q 281 823 301 803 q 261 872 261 843 q 281 922 261 901 q 331 942 301 942 q 380 922 360 942 q 400 872 400 901 q 380 823 400 843 q 331 803 360 803 z "},"è":{"ha":585,"x_min":21,"x_max":564,"o":"m 281 0 q 152 32 211 0 q 57 131 93 64 q 21 297 21 197 q 68 557 21 454 q 186 707 115 660 q 331 754 257 754 q 440 719 396 754 q 483 625 483 685 q 457 542 483 576 q 394 486 431 507 q 299 440 357 465 q 208 393 236 413 q 179 344 179 374 q 189 307 179 326 q 282 268 224 268 q 341 282 321 268 q 382 322 361 296 q 411 353 399 343 q 444 363 424 363 q 533 347 503 363 q 564 272 564 331 q 523 128 564 190 q 417 33 482 67 q 281 0 351 0 m 151 450 q 169 438 154 438 q 236 463 193 438 q 313 522 279 488 q 346 582 346 556 q 330 622 346 608 q 289 636 314 636 q 228 615 260 636 q 175 552 197 594 q 151 450 153 510 m 376 803 q 331 825 360 803 q 281 877 303 847 q 260 929 260 907 q 272 959 260 947 q 300 971 283 971 q 333 944 325 971 q 378 867 346 901 q 395 843 390 851 q 400 822 400 835 q 393 809 400 815 q 376 803 386 803 z "},"ē":{"ha":585,"x_min":21,"x_max":564,"o":"m 281 0 q 152 32 211 0 q 57 131 93 64 q 21 297 21 197 q 68 557 21 454 q 186 707 115 660 q 331 754 257 754 q 440 719 396 754 q 483 625 483 685 q 457 542 483 576 q 394 486 431 507 q 299 440 357 465 q 208 393 236 413 q 179 344 179 374 q 189 307 179 326 q 282 268 224 268 q 341 282 321 268 q 382 322 361 296 q 411 353 399 343 q 444 363 424 363 q 533 347 503 363 q 564 272 564 331 q 523 128 564 190 q 417 33 482 67 q 281 0 351 0 m 151 450 q 169 438 154 438 q 236 463 193 438 q 313 522 279 488 q 346 582 346 556 q 330 622 346 608 q 289 636 314 636 q 228 615 260 636 q 175 552 197 594 q 151 450 153 510 m 206 801 q 183 808 192 801 q 175 822 175 814 q 234 870 175 847 q 349 893 293 893 q 447 883 410 893 q 485 842 485 872 q 476 815 485 828 q 450 803 467 803 q 400 810 432 803 q 318 821 350 821 q 239 808 279 821 q 206 801 218 801 z "},"ę":{"ha":585,"x_min":21,"x_max":564,"o":"m 281 0 q 152 32 211 0 q 57 131 93 64 q 21 297 21 197 q 68 557 21 454 q 186 707 115 660 q 331 754 257 754 q 440 719 396 754 q 483 625 483 685 q 457 542 483 576 q 394 486 431 507 q 299 440 357 465 q 208 393 236 413 q 179 344 179 374 q 189 307 179 326 q 282 268 224 268 q 341 282 321 268 q 382 322 361 296 q 411 353 399 343 q 444 363 424 363 q 533 347 503 363 q 564 272 564 331 q 528 137 564 196 q 435 43 493 78 q 310 1 376 8 q 287 -44 297 -19 q 276 -87 276 -68 q 288 -113 276 -104 q 328 -122 299 -122 q 349 -131 340 -122 q 357 -151 357 -139 q 341 -181 357 -168 q 293 -193 325 -193 q 211 -133 211 -193 q 234 -64 211 -101 q 283 0 257 -26 l 281 0 m 151 450 q 169 438 154 438 q 236 463 193 438 q 313 522 279 488 q 346 582 346 556 q 330 622 346 608 q 289 636 314 636 q 228 615 260 636 q 175 552 197 594 q 151 450 153 510 z "},"ẽ":{"ha":585,"x_min":21,"x_max":564,"o":"m 281 0 q 152 32 211 0 q 57 131 93 64 q 21 297 21 197 q 68 557 21 454 q 186 707 115 660 q 331 754 257 754 q 440 719 396 754 q 483 625 483 685 q 457 542 483 576 q 394 486 431 507 q 299 440 357 465 q 208 393 236 413 q 179 344 179 374 q 189 307 179 326 q 282 268 224 268 q 341 282 321 268 q 382 322 361 296 q 411 353 399 343 q 444 363 424 363 q 533 347 503 363 q 564 272 564 331 q 523 128 564 190 q 417 33 482 67 q 281 0 351 0 m 151 450 q 169 438 154 438 q 236 463 193 438 q 313 522 279 488 q 346 582 346 556 q 330 622 346 608 q 289 636 314 636 q 228 615 260 636 q 175 552 197 594 q 151 450 153 510 m 403 803 q 367 813 381 803 q 336 846 354 824 q 307 876 319 867 q 275 886 294 886 q 254 878 263 886 q 239 857 246 871 q 222 833 229 840 q 200 826 214 826 q 181 836 188 826 q 174 860 174 846 q 194 918 174 890 q 246 946 214 946 q 281 935 265 946 q 319 901 297 924 q 354 871 340 881 q 385 861 368 861 q 413 869 403 861 q 432 893 422 878 q 444 910 439 904 q 460 917 450 917 q 479 908 472 917 q 486 886 486 900 q 463 829 486 856 q 403 803 440 803 z "},"ə":{"ha":585,"x_min":21,"x_max":564,"o":"m 304 754 q 433 722 374 754 q 528 624 492 690 q 564 457 564 557 q 517 197 564 300 q 399 47 469 94 q 254 0 328 0 q 145 35 189 0 q 101 129 101 69 q 128 213 101 178 q 191 268 154 247 q 286 314 228 289 q 377 361 349 342 q 406 410 406 381 q 396 447 406 428 q 303 486 361 486 q 244 472 264 486 q 203 432 224 458 q 174 401 186 411 q 140 392 161 392 q 51 408 82 392 q 21 482 21 424 q 62 626 21 564 q 168 721 103 688 q 304 754 233 754 m 239 172 q 255 132 239 146 q 296 118 271 118 q 356 139 325 118 q 410 202 388 160 q 433 304 432 244 q 415 317 432 317 q 349 292 392 317 q 272 233 306 267 q 239 172 239 199 z "},"f":{"ha":506,"x_min":14,"x_max":492,"o":"m 238 0 q 122 32 156 0 q 88 125 88 64 q 100 201 88 160 q 139 307 113 242 q 195 468 175 397 q 215 613 215 539 l 215 615 q 175 683 210 683 q 148 676 163 683 q 119 658 133 668 q 88 640 104 649 q 57 632 71 632 q 26 658 39 632 q 14 710 14 683 q 25 744 14 731 q 57 758 36 758 q 92 751 68 758 q 149 742 133 742 q 187 749 175 742 q 197 778 199 757 l 189 822 q 176 901 176 879 q 208 956 176 938 q 289 975 240 975 q 431 951 375 975 q 486 890 486 928 q 466 829 486 857 q 393 801 446 801 q 378 806 383 801 q 368 822 374 811 q 352 843 360 836 q 326 850 344 850 q 307 836 314 850 q 296 788 300 822 q 357 742 293 742 q 414 751 372 742 q 449 758 438 758 q 481 744 469 758 q 492 710 492 731 q 479 658 492 683 q 449 632 467 632 q 418 640 435 632 q 386 658 401 649 q 358 676 372 668 q 331 683 343 683 q 290 615 296 683 l 290 613 q 310 470 290 539 q 368 307 331 401 q 408 196 396 233 q 419 125 419 158 q 385 32 419 64 q 269 0 351 0 l 238 0 z "},"g":{"ha":610,"x_min":21,"x_max":596,"o":"m 251 124 q 140 149 193 124 q 53 221 86 174 q 21 332 21 268 q 28 393 21 364 q 51 461 36 422 q 70 516 64 494 q 76 558 76 538 q 106 661 76 617 q 185 730 136 706 q 286 754 233 754 l 492 754 q 570 737 544 754 q 596 674 596 719 q 585 594 596 631 q 554 507 575 558 q 507 365 524 431 q 490 199 490 299 q 504 58 490 147 q 515 -50 515 -19 q 478 -195 515 -147 q 338 -243 442 -243 q 227 -224 283 -243 q 134 -169 171 -204 q 97 -93 97 -135 q 124 -26 97 -51 q 201 0 150 0 q 300 38 257 0 q 379 160 343 76 q 251 124 322 124 m 168 474 q 203 357 168 404 q 300 310 238 310 q 397 357 363 310 q 432 474 432 404 q 395 578 432 533 q 299 624 358 624 q 205 578 242 624 q 168 474 168 533 z "},"ğ":{"ha":610,"x_min":21,"x_max":596,"o":"m 251 124 q 140 149 193 124 q 53 221 86 174 q 21 332 21 268 q 28 393 21 364 q 51 461 36 422 q 70 516 64 494 q 76 558 76 538 q 106 661 76 617 q 185 730 136 706 q 286 754 233 754 l 492 754 q 570 737 544 754 q 596 674 596 719 q 585 594 596 631 q 554 507 575 558 q 507 365 524 431 q 490 199 490 299 q 504 58 490 147 q 515 -50 515 -19 q 478 -195 515 -147 q 338 -243 442 -243 q 227 -224 283 -243 q 134 -169 171 -204 q 97 -93 97 -135 q 124 -26 97 -51 q 201 0 150 0 q 300 38 257 0 q 379 160 343 76 q 251 124 322 124 m 168 474 q 203 357 168 404 q 300 310 238 310 q 397 357 363 310 q 432 474 432 404 q 395 578 432 533 q 299 624 358 624 q 205 578 242 624 q 168 474 168 533 m 347 803 q 275 820 304 803 q 231 862 246 838 q 217 907 217 886 q 229 935 217 925 q 257 944 242 944 q 284 936 272 944 q 296 914 296 928 q 346 842 296 842 q 397 914 397 842 q 409 936 397 928 q 436 944 421 944 q 465 935 453 944 q 476 907 476 925 q 463 862 476 886 q 419 820 449 838 q 347 803 390 803 z "},"ģ":{"ha":610,"x_min":21,"x_max":596,"o":"m 251 124 q 140 149 193 124 q 53 221 86 174 q 21 332 21 268 q 28 393 21 364 q 51 461 36 422 q 70 516 64 494 q 76 558 76 538 q 106 661 76 617 q 185 730 136 706 q 286 754 233 754 l 492 754 q 570 737 544 754 q 596 674 596 719 q 585 594 596 631 q 554 507 575 558 q 507 365 524 431 q 490 199 490 299 q 504 58 490 147 q 515 -50 515 -19 q 478 -195 515 -147 q 338 -243 442 -243 q 227 -224 283 -243 q 134 -169 171 -204 q 97 -93 97 -135 q 124 -26 97 -51 q 201 0 150 0 q 300 38 257 0 q 379 160 343 76 q 251 124 322 124 m 168 474 q 203 357 168 404 q 300 310 238 310 q 397 357 363 310 q 432 474 432 404 q 395 578 432 533 q 299 624 358 624 q 205 578 242 624 q 168 474 168 533 m 315 803 q 286 829 286 803 l 286 879 q 365 990 286 990 q 392 984 383 990 q 401 968 401 978 q 396 956 401 961 q 381 951 390 951 q 334 938 347 951 q 321 900 321 925 l 381 900 q 402 895 396 900 q 408 878 408 890 l 408 826 q 378 803 408 803 l 315 803 z "},"ġ":{"ha":610,"x_min":21,"x_max":596,"o":"m 251 124 q 140 149 193 124 q 53 221 86 174 q 21 332 21 268 q 28 393 21 364 q 51 461 36 422 q 70 516 64 494 q 76 558 76 538 q 106 661 76 617 q 185 730 136 706 q 286 754 233 754 l 492 754 q 570 737 544 754 q 596 674 596 719 q 585 594 596 631 q 554 507 575 558 q 507 365 524 431 q 490 199 490 299 q 504 58 490 147 q 515 -50 515 -19 q 478 -195 515 -147 q 338 -243 442 -243 q 227 -224 283 -243 q 134 -169 171 -204 q 97 -93 97 -135 q 124 -26 97 -51 q 201 0 150 0 q 300 38 257 0 q 379 160 343 76 q 251 124 322 124 m 168 474 q 203 357 168 404 q 300 310 238 310 q 397 357 363 310 q 432 474 432 404 q 395 578 432 533 q 299 624 358 624 q 205 578 242 624 q 168 474 168 533 m 347 803 q 298 823 318 803 q 278 872 278 843 q 298 922 278 901 q 347 942 318 942 q 397 922 376 942 q 417 872 417 901 q 397 823 417 843 q 347 803 376 803 z "},"h":{"ha":800,"x_min":42,"x_max":758,"o":"m 588 0 q 463 24 499 0 q 426 97 426 49 q 440 156 426 124 q 478 239 453 189 q 535 371 515 317 q 554 482 554 425 q 513 594 554 556 q 411 632 471 632 q 306 597 349 632 q 263 506 263 561 q 265 476 263 486 q 299 372 279 424 q 322 310 318 319 q 360 201 347 244 q 374 125 374 158 q 340 33 374 64 q 224 0 306 1 l 192 0 q 76 33 110 1 q 42 125 42 64 q 54 201 42 160 q 93 311 67 243 q 149 477 129 404 q 169 624 169 550 q 153 725 169 679 q 107 829 136 771 q 83 878 90 860 q 75 911 75 896 q 101 960 75 944 q 192 975 126 975 l 224 975 q 314 960 289 975 q 339 911 339 944 q 331 876 339 896 q 307 828 324 857 q 278 767 293 800 q 254 701 263 733 l 254 694 q 283 672 254 672 q 340 683 303 672 q 415 708 376 694 q 588 754 535 753 l 589 754 q 648 737 625 754 q 671 694 671 719 q 653 608 671 665 q 635 541 640 568 q 629 482 629 514 q 649 369 629 425 q 707 239 669 313 q 745 156 732 189 q 758 97 758 124 q 721 24 758 49 q 589 0 683 0 l 588 0 z "},"i":{"ha":415,"x_min":42,"x_max":374,"o":"m 193 0 q 76 25 111 0 q 42 97 42 50 q 55 156 42 124 q 93 239 68 189 q 150 371 131 317 q 169 482 169 425 q 156 561 169 525 q 117 642 142 597 q 98 676 106 660 q 90 704 90 693 q 113 742 90 731 q 193 754 136 754 l 222 754 q 301 742 279 754 q 324 704 324 731 q 316 676 324 693 q 297 642 308 660 q 258 561 272 597 q 244 482 244 525 q 265 369 244 425 q 322 239 285 313 q 360 156 347 189 q 374 97 374 124 q 339 25 374 50 q 222 0 304 0 l 193 0 m 92 907 q 125 974 92 946 q 206 1003 158 1003 q 284 974 251 1003 q 317 907 317 946 q 284 837 317 865 q 206 808 251 808 q 124 837 157 808 q 92 907 92 865 z "},"ı":{"ha":415,"x_min":42,"x_max":374,"o":"m 193 0 q 76 25 111 0 q 42 97 42 50 q 55 156 42 124 q 93 239 68 189 q 150 371 131 317 q 169 482 169 425 q 156 561 169 525 q 117 642 142 597 q 98 676 106 660 q 90 704 90 693 q 113 742 90 731 q 193 754 136 754 l 222 754 q 301 742 279 754 q 324 704 324 731 q 316 676 324 693 q 297 642 308 660 q 258 561 272 597 q 244 482 244 525 q 265 369 244 425 q 322 239 285 313 q 360 156 347 189 q 374 97 374 124 q 339 25 374 50 q 222 0 304 0 l 193 0 z "},"í":{"ha":415,"x_min":42,"x_max":374,"o":"m 193 0 q 76 25 111 0 q 42 97 42 50 q 55 156 42 124 q 93 239 68 189 q 150 371 131 317 q 169 482 169 425 q 156 561 169 525 q 117 642 142 597 q 98 676 106 660 q 90 704 90 693 q 113 742 90 731 q 193 754 136 754 l 222 754 q 301 742 279 754 q 324 704 324 731 q 316 676 324 693 q 297 642 308 660 q 258 561 272 597 q 244 482 244 525 q 265 369 244 425 q 322 239 285 313 q 360 156 347 189 q 374 97 374 124 q 339 25 374 50 q 222 0 304 0 l 193 0 m 156 803 q 139 809 146 803 q 132 822 132 815 q 137 843 132 835 q 154 867 142 851 q 199 944 186 901 q 232 971 207 971 q 260 959 249 971 q 272 929 272 947 q 251 877 272 907 q 201 825 229 847 q 156 803 172 803 z "},"î":{"ha":415,"x_min":42,"x_max":374,"o":"m 193 0 q 76 25 111 0 q 42 97 42 50 q 55 156 42 124 q 93 239 68 189 q 150 371 131 317 q 169 482 169 425 q 156 561 169 525 q 117 642 142 597 q 98 676 106 660 q 90 704 90 693 q 113 742 90 731 q 193 754 136 754 l 222 754 q 301 742 279 754 q 324 704 324 731 q 316 676 324 693 q 297 642 308 660 q 258 561 272 597 q 244 482 244 525 q 265 369 244 425 q 322 239 285 313 q 360 156 347 189 q 374 97 374 124 q 339 25 374 50 q 222 0 304 0 l 193 0 m 286 803 q 233 840 247 803 q 219 925 219 876 q 196 901 207 925 q 185 838 185 878 q 173 813 185 822 q 146 803 161 803 q 117 814 129 803 q 106 846 106 825 q 127 898 106 868 q 178 949 149 928 q 228 971 207 971 q 247 964 239 971 q 256 946 256 957 q 266 894 256 915 q 294 851 276 872 q 305 836 300 843 q 310 824 310 829 q 303 809 310 815 q 286 803 297 803 z "},"ï":{"ha":415,"x_min":42,"x_max":374,"o":"m 193 0 q 76 25 111 0 q 42 97 42 50 q 55 156 42 124 q 93 239 68 189 q 150 371 131 317 q 169 482 169 425 q 156 561 169 525 q 117 642 142 597 q 98 676 106 660 q 90 704 90 693 q 113 742 90 731 q 193 754 136 754 l 222 754 q 301 742 279 754 q 324 704 324 731 q 316 676 324 693 q 297 642 308 660 q 258 561 272 597 q 244 482 244 525 q 265 369 244 425 q 322 239 285 313 q 360 156 347 189 q 374 97 374 124 q 339 25 374 50 q 222 0 304 0 l 193 0 m 122 803 q 73 823 93 803 q 53 872 53 843 q 73 922 53 901 q 122 942 93 942 q 172 922 151 942 q 192 872 192 901 q 172 823 192 843 q 122 803 151 803 m 224 872 q 244 922 224 901 q 293 942 264 942 q 342 922 322 942 q 363 872 363 901 q 342 823 363 843 q 293 803 322 803 q 244 823 264 803 q 224 872 224 843 z "},"ì":{"ha":415,"x_min":42,"x_max":374,"o":"m 193 0 q 76 25 111 0 q 42 97 42 50 q 55 156 42 124 q 93 239 68 189 q 150 371 131 317 q 169 482 169 425 q 156 561 169 525 q 117 642 142 597 q 98 676 106 660 q 90 704 90 693 q 113 742 90 731 q 193 754 136 754 l 222 754 q 301 742 279 754 q 324 704 324 731 q 316 676 324 693 q 297 642 308 660 q 258 561 272 597 q 244 482 244 525 q 265 369 244 425 q 322 239 285 313 q 360 156 347 189 q 374 97 374 124 q 339 25 374 50 q 222 0 304 0 l 193 0 m 254 803 q 209 825 238 803 q 159 877 181 847 q 138 929 138 907 q 149 959 138 947 q 178 971 161 971 q 211 944 203 971 q 256 867 224 901 q 273 843 268 851 q 278 822 278 835 q 271 809 278 815 q 254 803 264 803 z "},"ĳ":{"ha":879,"x_min":42,"x_max":838,"o":"m 193 0 q 76 25 111 0 q 42 97 42 50 q 55 156 42 124 q 93 239 68 189 q 150 371 131 317 q 169 482 169 425 q 156 561 169 525 q 117 642 142 597 q 98 676 106 660 q 90 704 90 693 q 113 742 90 731 q 193 754 136 754 l 222 754 q 301 742 279 754 q 324 704 324 731 q 316 676 324 693 q 297 642 308 660 q 258 561 272 597 q 244 482 244 525 q 265 369 244 425 q 322 239 285 313 q 360 156 347 189 q 374 97 374 124 q 339 25 374 50 q 222 0 304 0 l 193 0 m 92 907 q 125 974 92 946 q 206 1003 158 1003 q 284 974 251 1003 q 317 907 317 946 q 284 837 317 865 q 206 808 251 808 q 124 837 157 808 q 92 907 92 865 m 696 -243 q 570 -221 636 -243 q 460 -160 504 -199 q 415 -79 415 -122 q 436 -20 415 -40 q 496 0 457 0 q 606 70 569 0 q 642 299 642 140 q 622 478 642 406 q 571 621 603 550 q 547 690 547 671 q 573 739 547 724 q 664 754 599 754 l 696 754 q 786 739 761 754 q 811 690 811 724 q 803 657 811 675 q 779 608 796 639 q 733 504 750 550 q 717 403 717 458 q 736 240 717 321 q 790 56 756 160 q 826 -65 815 -24 q 838 -140 838 -106 q 805 -217 838 -190 q 696 -243 772 -243 m 564 907 q 597 974 564 946 q 678 1003 631 1003 q 756 974 724 1003 q 789 907 789 946 q 756 837 789 865 q 678 808 724 808 q 597 837 629 808 q 564 907 564 865 z "},"ī":{"ha":415,"x_min":42,"x_max":374,"o":"m 193 0 q 76 25 111 0 q 42 97 42 50 q 55 156 42 124 q 93 239 68 189 q 150 371 131 317 q 169 482 169 425 q 156 561 169 525 q 117 642 142 597 q 98 676 106 660 q 90 704 90 693 q 113 742 90 731 q 193 754 136 754 l 222 754 q 301 742 279 754 q 324 704 324 731 q 316 676 324 693 q 297 642 308 660 q 258 561 272 597 q 244 482 244 525 q 265 369 244 425 q 322 239 285 313 q 360 156 347 189 q 374 97 374 124 q 339 25 374 50 q 222 0 304 0 l 193 0 m 83 801 q 61 808 69 801 q 53 822 53 814 q 112 870 53 847 q 226 893 171 893 q 325 883 288 893 q 363 842 363 872 q 353 815 363 828 q 328 803 344 803 q 278 810 310 803 q 196 821 228 821 q 117 808 157 821 q 83 801 96 801 z "},"į":{"ha":415,"x_min":42,"x_max":374,"o":"m 193 0 q 76 25 111 0 q 42 97 42 50 q 55 156 42 124 q 93 239 68 189 q 150 371 131 317 q 169 482 169 425 q 156 561 169 525 q 117 642 142 597 q 98 676 106 660 q 90 704 90 693 q 113 742 90 731 q 193 754 136 754 l 222 754 q 301 742 279 754 q 324 704 324 731 q 316 676 324 693 q 297 642 308 660 q 258 561 272 597 q 244 482 244 525 q 265 369 244 425 q 322 239 285 313 q 360 156 347 189 q 374 97 374 124 q 344 28 374 53 q 243 0 314 4 q 220 -45 231 -21 q 210 -87 210 -69 q 221 -113 210 -104 q 261 -122 232 -122 q 282 -131 274 -122 q 290 -151 290 -139 q 274 -181 290 -168 q 226 -193 258 -193 q 144 -133 144 -193 q 167 -64 144 -101 q 217 0 190 -26 l 193 0 m 139 872 q 159 922 139 901 q 208 942 179 942 q 258 922 238 942 q 278 872 278 901 q 258 823 278 843 q 208 803 238 803 q 159 823 179 803 q 139 872 139 843 z "},"ĩ":{"ha":415,"x_min":42,"x_max":374,"o":"m 193 0 q 76 25 111 0 q 42 97 42 50 q 55 156 42 124 q 93 239 68 189 q 150 371 131 317 q 169 482 169 425 q 156 561 169 525 q 117 642 142 597 q 98 676 106 660 q 90 704 90 693 q 113 742 90 731 q 193 754 136 754 l 222 754 q 301 742 279 754 q 324 704 324 731 q 316 676 324 693 q 297 642 308 660 q 258 561 272 597 q 244 482 244 525 q 265 369 244 425 q 322 239 285 313 q 360 156 347 189 q 374 97 374 124 q 339 25 374 50 q 222 0 304 0 l 193 0 m 281 803 q 245 813 258 803 q 214 846 232 824 q 185 876 197 867 q 153 886 172 886 q 132 878 140 886 q 117 857 124 871 q 99 833 107 840 q 78 826 92 826 q 58 836 65 826 q 51 860 51 846 q 72 918 51 890 q 124 946 92 946 q 159 935 143 946 q 197 901 175 924 q 232 871 218 881 q 263 861 246 861 q 290 869 281 861 q 310 893 300 878 q 322 910 317 904 q 338 917 328 917 q 357 908 350 917 q 364 886 364 900 q 341 829 364 856 q 281 803 318 803 z "},"j":{"ha":464,"x_min":0,"x_max":422,"o":"m 281 -243 q 155 -221 221 -243 q 44 -160 89 -199 q 0 -79 0 -122 q 21 -20 0 -40 q 81 0 42 0 q 190 70 154 0 q 226 299 226 140 q 207 478 226 406 q 156 621 188 550 q 132 690 132 671 q 158 739 132 724 q 249 754 183 754 l 281 754 q 371 739 346 754 q 396 690 396 724 q 388 657 396 675 q 364 608 381 639 q 318 504 335 550 q 301 403 301 458 q 321 240 301 321 q 375 56 340 160 q 411 -65 400 -24 q 422 -140 422 -106 q 390 -217 422 -190 q 281 -243 357 -243 m 149 907 q 182 974 149 946 q 263 1003 215 1003 q 341 974 308 1003 q 374 907 374 946 q 341 837 374 865 q 263 808 308 808 q 181 837 214 808 q 149 907 149 865 z "},"ȷ":{"ha":464,"x_min":0,"x_max":422,"o":"m 281 -243 q 155 -221 221 -243 q 44 -160 89 -199 q 0 -79 0 -122 q 21 -20 0 -40 q 81 0 42 0 q 190 70 154 0 q 226 299 226 140 q 207 478 226 406 q 156 621 188 550 q 132 690 132 671 q 158 739 132 724 q 249 754 183 754 l 281 754 q 371 739 346 754 q 396 690 396 724 q 388 657 396 675 q 364 608 381 639 q 318 504 335 550 q 301 403 301 458 q 321 240 301 321 q 375 56 340 160 q 411 -65 400 -24 q 422 -140 422 -106 q 390 -217 422 -190 q 281 -243 357 -243 z "},"k":{"ha":763,"x_min":42,"x_max":735,"o":"m 603 0 q 482 35 521 0 q 433 122 443 71 q 422 249 422 174 q 410 369 422 328 q 354 410 399 410 q 326 395 336 410 q 315 354 315 381 q 322 308 315 336 q 361 200 349 242 q 374 125 374 158 q 340 33 374 64 q 224 0 306 1 l 192 0 q 76 33 110 1 q 42 125 42 64 q 54 201 42 160 q 93 311 67 243 q 149 477 129 404 q 169 624 169 550 q 153 725 169 679 q 107 829 136 771 q 83 878 90 860 q 75 911 75 896 q 101 960 75 944 q 192 975 126 975 l 224 975 q 314 960 289 975 q 339 911 339 944 q 331 878 339 896 q 307 829 324 860 q 261 725 278 771 q 244 624 244 679 q 278 433 244 536 q 391 492 339 453 q 443 585 443 532 q 421 653 443 611 q 403 704 403 686 q 446 738 403 722 q 538 754 489 754 q 617 734 586 754 q 649 669 649 714 q 619 566 649 604 q 550 510 589 528 q 435 467 511 492 q 460 445 450 460 q 485 403 471 431 q 521 342 503 365 q 576 302 539 319 q 674 285 613 285 q 716 241 697 285 q 735 144 735 197 q 703 42 735 83 q 603 0 672 0 z "},"ķ":{"ha":763,"x_min":42,"x_max":735,"o":"m 603 0 q 482 35 521 0 q 433 122 443 71 q 422 249 422 174 q 410 369 422 328 q 354 410 399 410 q 326 395 336 410 q 315 354 315 381 q 322 308 315 336 q 361 200 349 242 q 374 125 374 158 q 340 33 374 64 q 224 0 306 1 l 192 0 q 76 33 110 1 q 42 125 42 64 q 54 201 42 160 q 93 311 67 243 q 149 477 129 404 q 169 624 169 550 q 153 725 169 679 q 107 829 136 771 q 83 878 90 860 q 75 911 75 896 q 101 960 75 944 q 192 975 126 975 l 224 975 q 314 960 289 975 q 339 911 339 944 q 331 878 339 896 q 307 829 324 860 q 261 725 278 771 q 244 624 244 679 q 278 433 244 536 q 391 492 339 453 q 443 585 443 532 q 421 653 443 611 q 403 704 403 686 q 446 738 403 722 q 538 754 489 754 q 617 734 586 754 q 649 669 649 714 q 619 566 649 604 q 550 510 589 528 q 435 467 511 492 q 460 445 450 460 q 485 403 471 431 q 521 342 503 365 q 576 302 539 319 q 674 285 613 285 q 716 241 697 285 q 735 144 735 197 q 703 42 735 83 q 603 0 672 0 m 358 -268 q 329 -236 329 -268 q 336 -193 329 -217 q 342 -162 338 -189 q 347 -86 347 -136 q 356 -60 347 -69 q 379 -51 365 -51 q 417 -67 400 -51 q 433 -106 433 -82 q 410 -212 433 -156 q 358 -268 386 -268 z "},"l":{"ha":415,"x_min":42,"x_max":374,"o":"m 192 0 q 76 33 110 1 q 42 125 42 64 q 54 201 42 160 q 93 311 67 243 q 149 477 129 404 q 169 624 169 550 q 153 725 169 679 q 107 829 136 771 q 83 878 90 860 q 75 911 75 896 q 101 960 75 944 q 192 975 126 975 l 224 975 q 314 960 289 975 q 339 911 339 944 q 331 878 339 896 q 307 829 324 860 q 261 725 278 771 q 244 624 244 679 q 265 478 244 550 q 322 311 285 407 q 363 195 351 232 q 374 125 374 158 q 340 33 374 64 q 224 0 306 1 l 192 0 z "},"ĺ":{"ha":415,"x_min":42,"x_max":374,"o":"m 192 0 q 76 33 110 1 q 42 125 42 64 q 54 201 42 160 q 93 311 67 243 q 149 477 129 404 q 169 624 169 550 q 153 725 169 679 q 107 829 136 771 q 83 878 90 860 q 75 911 75 896 q 101 960 75 944 q 192 975 126 975 l 224 975 q 314 960 289 975 q 339 911 339 944 q 331 878 339 896 q 307 829 324 860 q 261 725 278 771 q 244 624 244 679 q 265 478 244 550 q 322 311 285 407 q 363 195 351 232 q 374 125 374 158 q 340 33 374 64 q 224 0 306 1 l 192 0 m 167 1024 q 150 1030 157 1024 q 143 1043 143 1036 q 148 1064 143 1056 q 165 1088 153 1072 q 210 1165 197 1122 q 243 1192 218 1192 q 272 1180 260 1192 q 283 1150 283 1168 q 262 1098 283 1128 q 212 1046 240 1068 q 167 1024 183 1024 z "},"ľ":{"ha":415,"x_min":42,"x_max":433,"o":"m 192 0 q 76 33 110 1 q 42 125 42 64 q 54 201 42 160 q 93 311 67 243 q 149 477 129 404 q 169 624 169 550 q 153 725 169 679 q 107 829 136 771 q 83 878 90 860 q 75 911 75 896 q 101 960 75 944 q 192 975 126 975 l 224 975 q 314 960 289 975 q 339 911 339 944 q 331 878 339 896 q 307 829 324 860 q 261 725 278 771 q 244 624 244 679 q 265 478 244 550 q 322 311 285 407 q 363 195 351 232 q 374 125 374 158 q 340 33 374 64 q 224 0 306 1 l 192 0 m 367 667 q 340 692 340 667 q 346 725 340 703 q 357 808 357 758 q 365 828 357 821 q 385 835 372 835 q 418 823 403 835 q 433 793 433 811 q 413 710 433 754 q 367 667 392 667 z "},"ļ":{"ha":415,"x_min":42,"x_max":374,"o":"m 192 0 q 76 33 110 1 q 42 125 42 64 q 54 201 42 160 q 93 311 67 243 q 149 477 129 404 q 169 624 169 550 q 153 725 169 679 q 107 829 136 771 q 83 878 90 860 q 75 911 75 896 q 101 960 75 944 q 192 975 126 975 l 224 975 q 314 960 289 975 q 339 911 339 944 q 331 878 339 896 q 307 829 324 860 q 261 725 278 771 q 244 624 244 679 q 265 478 244 550 q 322 311 285 407 q 363 195 351 232 q 374 125 374 158 q 340 33 374 64 q 224 0 306 1 l 192 0 m 199 -269 q 169 -237 169 -269 q 176 -194 169 -218 q 183 -164 178 -190 q 188 -87 188 -137 q 197 -62 188 -71 q 219 -53 206 -53 q 257 -68 240 -53 q 274 -107 274 -83 q 250 -213 274 -157 q 199 -269 226 -269 z "},"ł":{"ha":415,"x_min":42,"x_max":374,"o":"m 192 0 q 76 33 110 1 q 42 125 42 64 q 53 197 42 158 q 93 313 65 236 q 144 456 125 393 q 168 585 163 519 l 107 568 q 96 567 103 567 q 75 593 75 567 q 81 618 75 606 q 96 633 86 631 l 168 654 q 149 739 164 700 q 107 828 133 778 q 83 878 90 861 q 75 911 75 896 q 101 960 75 944 q 192 975 126 975 l 224 975 q 314 960 289 975 q 339 911 339 944 q 331 876 339 896 q 307 828 324 857 q 270 750 285 785 q 249 676 256 715 l 313 694 l 319 696 q 333 668 333 696 q 328 641 333 653 q 313 626 324 629 l 244 607 q 266 473 247 538 q 321 313 285 408 q 361 200 349 240 q 374 125 374 160 q 340 33 374 64 q 224 0 306 1 l 192 0 z "},"m":{"ha":1172,"x_min":42,"x_max":1131,"o":"m 193 0 q 76 25 111 0 q 42 97 42 50 q 55 156 42 124 q 93 239 68 189 q 150 371 131 317 q 169 482 169 425 q 156 561 169 525 q 117 642 142 597 q 98 676 106 660 q 90 704 90 693 q 113 742 90 731 q 193 754 136 754 l 222 754 q 300 743 278 754 q 324 708 322 732 q 339 690 324 690 q 400 710 354 690 q 497 742 456 731 q 588 754 539 754 l 589 754 q 647 738 624 754 q 671 697 669 721 q 674 690 671 694 q 688 685 678 685 q 722 692 700 685 q 768 708 744 699 q 871 742 828 731 q 960 754 914 754 l 961 754 q 1020 737 997 754 q 1043 694 1043 719 q 1025 608 1043 665 q 1007 541 1013 568 q 1001 482 1001 514 q 1022 369 1001 425 q 1079 239 1042 313 q 1117 156 1104 189 q 1131 97 1131 124 q 1093 24 1131 49 q 961 0 1056 0 l 960 0 q 835 24 871 0 q 799 97 799 49 q 812 156 799 124 q 850 239 825 189 q 907 371 888 317 q 926 482 926 425 q 885 594 926 556 q 785 632 844 632 q 676 591 721 632 q 629 479 631 550 q 645 366 631 422 q 686 240 660 310 q 715 156 706 188 q 725 97 725 124 q 694 25 725 50 q 589 0 664 0 l 588 0 q 485 25 515 0 q 456 97 456 50 q 465 156 456 124 q 494 239 475 188 q 538 369 522 313 q 554 482 554 425 q 513 594 554 556 q 413 632 472 632 q 297 590 347 632 q 244 479 246 549 q 266 366 246 422 q 322 240 286 310 q 361 156 349 188 q 374 97 374 124 q 339 25 374 50 q 222 0 304 0 l 193 0 z "},"n":{"ha":800,"x_min":42,"x_max":758,"o":"m 193 0 q 76 25 111 0 q 42 97 42 50 q 55 156 42 124 q 93 239 68 189 q 150 371 131 317 q 169 482 169 425 q 156 561 169 525 q 117 642 142 597 q 98 676 106 660 q 90 704 90 693 q 113 742 90 731 q 193 754 136 754 l 222 754 q 300 743 278 754 q 324 708 322 732 q 339 690 324 690 q 400 710 354 690 q 497 742 456 731 q 588 754 539 754 l 589 754 q 648 737 625 754 q 671 694 671 719 q 653 608 671 665 q 635 541 640 568 q 629 482 629 514 q 649 369 629 425 q 707 239 669 313 q 745 156 732 189 q 758 97 758 124 q 721 24 758 49 q 589 0 683 0 l 588 0 q 463 24 499 0 q 426 97 426 49 q 440 156 426 124 q 478 239 453 189 q 535 371 515 317 q 554 482 554 425 q 513 594 554 556 q 413 632 472 632 q 297 590 347 632 q 244 479 246 549 q 266 366 246 422 q 322 240 286 310 q 361 156 349 188 q 374 97 374 124 q 339 25 374 50 q 222 0 304 0 l 193 0 z "},"ń":{"ha":800,"x_min":42,"x_max":758,"o":"m 193 0 q 76 25 111 0 q 42 97 42 50 q 55 156 42 124 q 93 239 68 189 q 150 371 131 317 q 169 482 169 425 q 156 561 169 525 q 117 642 142 597 q 98 676 106 660 q 90 704 90 693 q 113 742 90 731 q 193 754 136 754 l 222 754 q 300 743 278 754 q 324 708 322 732 q 339 690 324 690 q 400 710 354 690 q 497 742 456 731 q 588 754 539 754 l 589 754 q 648 737 625 754 q 671 694 671 719 q 653 608 671 665 q 635 541 640 568 q 629 482 629 514 q 649 369 629 425 q 707 239 669 313 q 745 156 732 189 q 758 97 758 124 q 721 24 758 49 q 589 0 683 0 l 588 0 q 463 24 499 0 q 426 97 426 49 q 440 156 426 124 q 478 239 453 189 q 535 371 515 317 q 554 482 554 425 q 513 594 554 556 q 413 632 472 632 q 297 590 347 632 q 244 479 246 549 q 266 366 246 422 q 322 240 286 310 q 361 156 349 188 q 374 97 374 124 q 339 25 374 50 q 222 0 304 0 l 193 0 m 347 803 q 331 809 338 803 q 324 822 324 815 q 328 843 324 835 q 346 867 333 851 q 390 944 378 901 q 424 971 399 971 q 452 959 440 971 q 464 929 464 947 q 442 877 464 907 q 392 825 421 847 q 347 803 364 803 z "},"ň":{"ha":800,"x_min":42,"x_max":758,"o":"m 193 0 q 76 25 111 0 q 42 97 42 50 q 55 156 42 124 q 93 239 68 189 q 150 371 131 317 q 169 482 169 425 q 156 561 169 525 q 117 642 142 597 q 98 676 106 660 q 90 704 90 693 q 113 742 90 731 q 193 754 136 754 l 222 754 q 300 743 278 754 q 324 708 322 732 q 339 690 324 690 q 400 710 354 690 q 497 742 456 731 q 588 754 539 754 l 589 754 q 648 737 625 754 q 671 694 671 719 q 653 608 671 665 q 635 541 640 568 q 629 482 629 514 q 649 369 629 425 q 707 239 669 313 q 745 156 732 189 q 758 97 758 124 q 721 24 758 49 q 589 0 683 0 l 588 0 q 463 24 499 0 q 426 97 426 49 q 440 156 426 124 q 478 239 453 189 q 535 371 515 317 q 554 482 554 425 q 513 594 554 556 q 413 632 472 632 q 297 590 347 632 q 244 479 246 549 q 266 366 246 422 q 322 240 286 310 q 361 156 349 188 q 374 97 374 124 q 339 25 374 50 q 222 0 304 0 l 193 0 m 379 803 q 360 810 368 803 q 351 828 351 817 q 341 881 351 860 q 313 922 331 901 q 302 938 307 931 q 297 950 297 944 q 303 965 297 958 q 321 971 310 971 q 374 934 360 971 q 388 849 388 897 q 411 872 400 849 q 422 936 422 896 q 434 961 422 951 q 461 971 446 971 q 490 960 478 971 q 501 928 501 949 q 480 876 501 906 q 429 824 458 846 q 379 803 400 803 z "},"ņ":{"ha":800,"x_min":42,"x_max":758,"o":"m 193 0 q 76 25 111 0 q 42 97 42 50 q 55 156 42 124 q 93 239 68 189 q 150 371 131 317 q 169 482 169 425 q 156 561 169 525 q 117 642 142 597 q 98 676 106 660 q 90 704 90 693 q 113 742 90 731 q 193 754 136 754 l 222 754 q 300 743 278 754 q 324 708 322 732 q 339 690 324 690 q 400 710 354 690 q 497 742 456 731 q 588 754 539 754 l 589 754 q 648 737 625 754 q 671 694 671 719 q 653 608 671 665 q 635 541 640 568 q 629 482 629 514 q 649 369 629 425 q 707 239 669 313 q 745 156 732 189 q 758 97 758 124 q 721 24 758 49 q 589 0 683 0 l 588 0 q 463 24 499 0 q 426 97 426 49 q 440 156 426 124 q 478 239 453 189 q 535 371 515 317 q 554 482 554 425 q 513 594 554 556 q 413 632 472 632 q 297 590 347 632 q 244 479 246 549 q 266 366 246 422 q 322 240 286 310 q 361 156 349 188 q 374 97 374 124 q 339 25 374 50 q 222 0 304 0 l 193 0 m 376 -269 q 347 -237 347 -269 q 354 -194 347 -218 q 360 -164 356 -190 q 365 -87 365 -137 q 374 -62 365 -71 q 397 -53 383 -53 q 435 -68 418 -53 q 451 -107 451 -83 q 428 -213 451 -157 q 376 -269 404 -269 z "},"ñ":{"ha":800,"x_min":42,"x_max":758,"o":"m 193 0 q 76 25 111 0 q 42 97 42 50 q 55 156 42 124 q 93 239 68 189 q 150 371 131 317 q 169 482 169 425 q 156 561 169 525 q 117 642 142 597 q 98 676 106 660 q 90 704 90 693 q 113 742 90 731 q 193 754 136 754 l 222 754 q 300 743 278 754 q 324 708 322 732 q 339 690 324 690 q 400 710 354 690 q 497 742 456 731 q 588 754 539 754 l 589 754 q 648 737 625 754 q 671 694 671 719 q 653 608 671 665 q 635 541 640 568 q 629 482 629 514 q 649 369 629 425 q 707 239 669 313 q 745 156 732 189 q 758 97 758 124 q 721 24 758 49 q 589 0 683 0 l 588 0 q 463 24 499 0 q 426 97 426 49 q 440 156 426 124 q 478 239 453 189 q 535 371 515 317 q 554 482 554 425 q 513 594 554 556 q 413 632 472 632 q 297 590 347 632 q 244 479 246 549 q 266 366 246 422 q 322 240 286 310 q 361 156 349 188 q 374 97 374 124 q 339 25 374 50 q 222 0 304 0 l 193 0 m 472 803 q 437 813 450 803 q 406 846 424 824 q 376 876 389 867 q 344 886 364 886 q 324 878 332 886 q 308 857 315 871 q 291 833 299 840 q 269 826 283 826 q 250 836 257 826 q 243 860 243 846 q 263 918 243 890 q 315 946 283 946 q 351 935 335 946 q 389 901 367 924 q 424 871 410 881 q 454 861 438 861 q 482 869 472 861 q 501 893 492 878 q 514 910 508 904 q 529 917 519 917 q 549 908 542 917 q 556 886 556 900 q 533 829 556 856 q 472 803 510 803 z "},"o":{"ha":643,"x_min":21,"x_max":622,"o":"m 322 0 q 151 39 218 0 q 52 141 83 78 q 21 278 21 204 q 29 344 21 313 q 56 424 38 375 q 77 488 71 465 q 83 533 83 511 q 117 650 83 600 q 206 727 151 700 q 321 754 261 754 q 440 727 385 754 q 530 650 496 700 q 564 533 564 600 q 570 486 564 510 q 590 426 576 463 q 614 348 606 381 q 622 278 622 315 q 591 142 622 206 q 492 40 560 79 q 322 0 425 0 m 161 446 q 203 303 161 361 q 322 244 246 244 q 442 303 399 244 q 485 446 485 361 q 465 538 485 494 q 407 607 444 581 q 321 633 369 633 q 238 607 274 633 q 181 537 201 581 q 161 446 161 493 z "},"ó":{"ha":643,"x_min":21,"x_max":622,"o":"m 322 0 q 151 39 218 0 q 52 141 83 78 q 21 278 21 204 q 29 344 21 313 q 56 424 38 375 q 77 488 71 465 q 83 533 83 511 q 117 650 83 600 q 206 727 151 700 q 321 754 261 754 q 440 727 385 754 q 530 650 496 700 q 564 533 564 600 q 570 486 564 510 q 590 426 576 463 q 614 348 606 381 q 622 278 622 315 q 591 142 622 206 q 492 40 560 79 q 322 0 425 0 m 161 446 q 203 303 161 361 q 322 244 246 244 q 442 303 399 244 q 485 446 485 361 q 465 538 485 494 q 407 607 444 581 q 321 633 369 633 q 238 607 274 633 q 181 537 201 581 q 161 446 161 493 m 269 803 q 253 809 260 803 q 246 822 246 815 q 251 843 246 835 q 268 867 256 851 q 313 944 300 901 q 346 971 321 971 q 374 959 363 971 q 386 929 386 947 q 365 877 386 907 q 315 825 343 847 q 269 803 286 803 z "},"ô":{"ha":643,"x_min":21,"x_max":622,"o":"m 322 0 q 151 39 218 0 q 52 141 83 78 q 21 278 21 204 q 29 344 21 313 q 56 424 38 375 q 77 488 71 465 q 83 533 83 511 q 117 650 83 600 q 206 727 151 700 q 321 754 261 754 q 440 727 385 754 q 530 650 496 700 q 564 533 564 600 q 570 486 564 510 q 590 426 576 463 q 614 348 606 381 q 622 278 622 315 q 591 142 622 206 q 492 40 560 79 q 322 0 425 0 m 161 446 q 203 303 161 361 q 322 244 246 244 q 442 303 399 244 q 485 446 485 361 q 465 538 485 494 q 407 607 444 581 q 321 633 369 633 q 238 607 274 633 q 181 537 201 581 q 161 446 161 493 m 400 803 q 347 840 361 803 q 333 925 333 876 q 310 901 321 925 q 299 838 299 878 q 287 813 299 822 q 260 803 275 803 q 231 814 243 803 q 219 846 219 825 q 241 898 219 868 q 292 949 263 928 q 342 971 321 971 q 361 964 353 971 q 369 946 369 957 q 380 894 369 915 q 408 851 390 872 q 419 836 414 843 q 424 824 424 829 q 417 809 424 815 q 400 803 411 803 z "},"ö":{"ha":643,"x_min":21,"x_max":622,"o":"m 322 0 q 151 39 218 0 q 52 141 83 78 q 21 278 21 204 q 29 344 21 313 q 56 424 38 375 q 77 488 71 465 q 83 533 83 511 q 117 650 83 600 q 206 727 151 700 q 321 754 261 754 q 440 727 385 754 q 530 650 496 700 q 564 533 564 600 q 570 486 564 510 q 590 426 576 463 q 614 348 606 381 q 622 278 622 315 q 591 142 622 206 q 492 40 560 79 q 322 0 425 0 m 161 446 q 203 303 161 361 q 322 244 246 244 q 442 303 399 244 q 485 446 485 361 q 465 538 485 494 q 407 607 444 581 q 321 633 369 633 q 238 607 274 633 q 181 537 201 581 q 161 446 161 493 m 236 803 q 187 823 207 803 q 167 872 167 843 q 187 922 167 901 q 236 942 207 942 q 285 922 265 942 q 306 872 306 901 q 285 823 306 843 q 236 803 265 803 m 338 872 q 358 922 338 901 q 407 942 378 942 q 456 922 436 942 q 476 872 476 901 q 456 823 476 843 q 407 803 436 803 q 358 823 378 803 q 338 872 338 843 z "},"ò":{"ha":643,"x_min":21,"x_max":622,"o":"m 322 0 q 151 39 218 0 q 52 141 83 78 q 21 278 21 204 q 29 344 21 313 q 56 424 38 375 q 77 488 71 465 q 83 533 83 511 q 117 650 83 600 q 206 727 151 700 q 321 754 261 754 q 440 727 385 754 q 530 650 496 700 q 564 533 564 600 q 570 486 564 510 q 590 426 576 463 q 614 348 606 381 q 622 278 622 315 q 591 142 622 206 q 492 40 560 79 q 322 0 425 0 m 161 446 q 203 303 161 361 q 322 244 246 244 q 442 303 399 244 q 485 446 485 361 q 465 538 485 494 q 407 607 444 581 q 321 633 369 633 q 238 607 274 633 q 181 537 201 581 q 161 446 161 493 m 368 803 q 323 825 351 803 q 273 877 294 847 q 251 929 251 907 q 263 959 251 947 q 292 971 275 971 q 325 944 317 971 q 369 867 338 901 q 387 843 382 851 q 392 822 392 835 q 385 809 392 815 q 368 803 378 803 z "},"ő":{"ha":643,"x_min":21,"x_max":622,"o":"m 322 0 q 151 39 218 0 q 52 141 83 78 q 21 278 21 204 q 29 344 21 313 q 56 424 38 375 q 77 488 71 465 q 83 533 83 511 q 117 650 83 600 q 206 727 151 700 q 321 754 261 754 q 440 727 385 754 q 530 650 496 700 q 564 533 564 600 q 570 486 564 510 q 590 426 576 463 q 614 348 606 381 q 622 278 622 315 q 591 142 622 206 q 492 40 560 79 q 322 0 425 0 m 161 446 q 203 303 161 361 q 322 244 246 244 q 442 303 399 244 q 485 446 485 361 q 465 538 485 494 q 407 607 444 581 q 321 633 369 633 q 238 607 274 633 q 181 537 201 581 q 161 446 161 493 m 217 803 q 200 809 207 803 q 193 822 193 815 q 198 843 193 835 q 215 867 203 851 q 260 944 247 901 q 293 971 268 971 q 322 959 310 971 q 333 929 333 947 q 312 877 333 907 q 262 825 290 847 q 217 803 233 803 m 311 822 q 316 843 311 835 q 333 867 321 851 q 378 944 365 901 q 411 971 386 971 q 440 959 428 971 q 451 929 451 947 q 430 877 451 907 q 380 825 408 847 q 335 803 351 803 q 318 809 325 803 q 311 822 311 815 z "},"ō":{"ha":643,"x_min":21,"x_max":622,"o":"m 322 0 q 151 39 218 0 q 52 141 83 78 q 21 278 21 204 q 29 344 21 313 q 56 424 38 375 q 77 488 71 465 q 83 533 83 511 q 117 650 83 600 q 206 727 151 700 q 321 754 261 754 q 440 727 385 754 q 530 650 496 700 q 564 533 564 600 q 570 486 564 510 q 590 426 576 463 q 614 348 606 381 q 622 278 622 315 q 591 142 622 206 q 492 40 560 79 q 322 0 425 0 m 161 446 q 203 303 161 361 q 322 244 246 244 q 442 303 399 244 q 485 446 485 361 q 465 538 485 494 q 407 607 444 581 q 321 633 369 633 q 238 607 274 633 q 181 537 201 581 q 161 446 161 493 m 197 801 q 175 808 183 801 q 167 822 167 814 q 226 870 167 847 q 340 893 285 893 q 439 883 401 893 q 476 842 476 872 q 467 815 476 828 q 442 803 458 803 q 392 810 424 803 q 310 821 342 821 q 231 808 271 821 q 197 801 210 801 z "},"ø":{"ha":643,"x_min":21,"x_max":622,"o":"m 322 0 q 197 18 254 0 q 170 -19 185 -10 q 136 -28 156 -28 q 119 -21 125 -28 q 113 -3 113 -14 q 118 19 113 10 l 133 50 q 49 148 76 88 q 21 278 21 208 q 29 344 21 313 q 56 424 38 375 q 77 488 71 465 q 83 533 83 511 q 117 650 83 600 q 206 727 151 700 q 321 754 261 754 q 458 718 397 754 l 478 757 q 522 781 490 781 q 538 774 532 781 q 538 757 543 768 l 503 683 q 564 533 564 622 q 570 486 564 510 q 590 426 576 463 q 614 348 606 381 q 622 278 622 315 q 591 142 622 206 q 492 40 560 79 q 322 0 425 0 m 161 446 q 181 341 161 389 q 239 268 201 293 l 406 608 q 321 633 367 633 q 238 607 274 633 q 181 537 201 581 q 161 446 161 493 m 301 246 q 322 244 308 244 q 442 303 399 244 q 485 446 485 361 q 449 564 485 513 l 301 246 z "},"õ":{"ha":643,"x_min":21,"x_max":622,"o":"m 322 0 q 151 39 218 0 q 52 141 83 78 q 21 278 21 204 q 29 344 21 313 q 56 424 38 375 q 77 488 71 465 q 83 533 83 511 q 117 650 83 600 q 206 727 151 700 q 321 754 261 754 q 440 727 385 754 q 530 650 496 700 q 564 533 564 600 q 570 486 564 510 q 590 426 576 463 q 614 348 606 381 q 622 278 622 315 q 591 142 622 206 q 492 40 560 79 q 322 0 425 0 m 161 446 q 203 303 161 361 q 322 244 246 244 q 442 303 399 244 q 485 446 485 361 q 465 538 485 494 q 407 607 444 581 q 321 633 369 633 q 238 607 274 633 q 181 537 201 581 q 161 446 161 493 m 394 803 q 359 813 372 803 q 328 846 346 824 q 299 876 311 867 q 267 886 286 886 q 246 878 254 886 q 231 857 238 871 q 213 833 221 840 q 192 826 206 826 q 172 836 179 826 q 165 860 165 846 q 185 918 165 890 q 238 946 206 946 q 273 935 257 946 q 311 901 289 924 q 346 871 332 881 q 376 861 360 861 q 404 869 394 861 q 424 893 414 878 q 436 910 431 904 q 451 917 442 917 q 471 908 464 917 q 478 886 478 900 q 455 829 478 856 q 394 803 432 803 z "},"œ":{"ha":1061,"x_min":21,"x_max":1040,"o":"m 322 0 q 151 39 218 0 q 52 141 83 78 q 21 278 21 204 q 29 344 21 313 q 56 424 38 375 q 77 488 71 465 q 83 533 83 511 q 117 650 83 600 q 206 727 151 700 q 321 754 261 754 q 472 709 406 754 q 558 586 539 664 q 670 713 603 671 q 807 754 738 754 q 916 719 872 754 q 960 625 960 685 q 933 542 960 576 q 870 486 907 507 q 775 440 833 465 q 684 393 713 413 q 656 344 656 374 q 665 307 656 326 q 758 268 700 268 q 817 282 797 268 q 858 322 838 296 q 888 353 875 343 q 921 363 900 363 q 1010 347 979 363 q 1040 272 1040 331 q 999 128 1040 190 q 893 33 958 67 q 757 0 828 0 q 647 24 699 0 q 558 93 594 47 q 322 0 479 0 m 161 446 q 203 303 161 361 q 322 244 246 244 q 442 303 399 244 q 485 446 485 361 q 465 538 485 494 q 407 607 444 581 q 321 633 369 633 q 238 607 274 633 q 181 537 201 581 q 161 446 161 493 m 628 450 q 646 438 631 438 q 713 463 669 438 q 789 522 756 488 q 822 582 822 556 q 806 622 822 608 q 765 636 790 636 q 705 615 736 636 q 651 552 674 594 q 628 450 629 510 z "},"p":{"ha":651,"x_min":42,"x_max":631,"o":"m 192 -221 q 76 -188 110 -219 q 42 -96 42 -157 q 54 -19 42 -61 q 93 90 67 22 q 149 256 129 183 q 169 403 169 329 q 153 504 169 458 q 107 608 136 550 q 83 657 90 639 q 75 690 75 675 q 101 739 75 724 q 192 754 126 754 l 386 754 q 508 692 451 754 q 597 532 564 629 q 631 339 631 435 q 581 152 631 225 q 426 79 531 79 q 317 103 372 79 q 339 44 321 90 q 365 -37 357 -3 q 374 -96 374 -71 q 340 -188 374 -157 q 224 -221 306 -219 l 192 -221 m 260 413 q 292 298 260 343 q 389 253 324 253 q 486 298 454 253 q 518 413 518 343 q 484 561 518 496 q 389 626 450 626 q 294 561 328 626 q 260 413 260 496 z "},"þ":{"ha":651,"x_min":42,"x_max":631,"o":"m 192 -221 q 76 -183 110 -219 q 42 -76 42 -147 q 54 13 42 -36 q 93 140 67 63 q 149 333 129 249 q 169 503 169 417 q 153 622 169 567 q 107 740 136 676 q 75 838 75 810 q 101 894 75 876 q 192 911 126 911 l 224 911 q 314 892 289 910 q 339 838 339 875 q 331 797 339 819 q 307 740 324 775 q 301 727 304 735 q 293 710 297 719 l 386 710 q 508 647 451 710 q 597 488 564 585 q 631 294 631 390 q 581 108 631 181 q 426 35 531 35 q 351 46 392 35 q 374 -76 374 -28 q 340 -183 374 -147 q 224 -221 306 -219 l 192 -221 m 260 357 q 281 272 268 315 q 389 208 313 208 q 486 253 454 208 q 518 368 518 299 q 484 517 518 451 q 389 582 450 582 q 294 517 328 582 q 260 368 260 451 l 260 357 z "},"q":{"ha":651,"x_min":21,"x_max":610,"o":"m 460 754 q 551 739 525 754 q 576 690 576 724 q 569 657 576 675 q 544 608 561 639 q 499 504 515 550 q 482 403 482 458 q 502 256 482 329 q 558 90 522 183 q 597 -19 585 22 q 610 -96 610 -61 q 576 -188 610 -157 q 460 -221 542 -219 l 432 -221 l 428 -221 q 312 -188 346 -219 q 278 -96 278 -157 q 289 -26 278 -64 q 315 51 300 13 q 335 103 331 90 q 225 79 279 79 q 71 152 121 79 q 21 339 21 225 q 54 532 21 435 q 144 692 88 629 q 265 754 200 754 l 460 754 m 133 413 q 165 298 133 343 q 263 253 197 253 q 360 298 328 253 q 392 413 392 343 q 358 561 392 496 q 263 626 324 626 q 167 561 201 626 q 133 413 133 496 z "},"r":{"ha":556,"x_min":42,"x_max":542,"o":"m 193 0 q 76 25 111 0 q 42 97 42 50 q 55 156 42 124 q 93 239 68 189 q 150 371 131 317 q 169 482 169 425 q 156 561 169 525 q 117 642 142 597 q 98 676 106 660 q 90 704 90 693 q 113 742 90 731 q 193 754 136 754 l 222 754 q 300 743 278 754 q 324 708 322 732 q 339 690 324 690 q 375 710 351 690 q 428 742 401 729 q 494 754 454 754 q 542 703 542 754 q 519 631 542 668 q 475 594 497 594 q 451 602 458 594 q 438 624 443 610 q 424 644 431 638 q 401 651 417 651 q 325 628 361 651 q 267 566 289 606 q 244 479 244 526 q 266 366 246 422 q 322 240 286 310 q 361 156 349 188 q 374 97 374 124 q 339 25 374 50 q 222 0 304 0 l 193 0 z "},"ŕ":{"ha":556,"x_min":42,"x_max":542,"o":"m 193 0 q 76 25 111 0 q 42 97 42 50 q 55 156 42 124 q 93 239 68 189 q 150 371 131 317 q 169 482 169 425 q 156 561 169 525 q 117 642 142 597 q 98 676 106 660 q 90 704 90 693 q 113 742 90 731 q 193 754 136 754 l 222 754 q 300 743 278 754 q 324 708 322 732 q 339 690 324 690 q 375 710 351 690 q 428 742 401 729 q 494 754 454 754 q 542 703 542 754 q 519 631 542 668 q 475 594 497 594 q 451 602 458 594 q 438 624 443 610 q 424 644 431 638 q 401 651 417 651 q 325 628 361 651 q 267 566 289 606 q 244 479 244 526 q 266 366 246 422 q 322 240 286 310 q 361 156 349 188 q 374 97 374 124 q 339 25 374 50 q 222 0 304 0 l 193 0 m 249 803 q 232 809 239 803 q 225 822 225 815 q 230 843 225 835 q 247 867 235 851 q 292 944 279 901 q 325 971 300 971 q 353 959 342 971 q 365 929 365 947 q 344 877 365 907 q 294 825 322 847 q 249 803 265 803 z "},"ř":{"ha":556,"x_min":42,"x_max":542,"o":"m 193 0 q 76 25 111 0 q 42 97 42 50 q 55 156 42 124 q 93 239 68 189 q 150 371 131 317 q 169 482 169 425 q 156 561 169 525 q 117 642 142 597 q 98 676 106 660 q 90 704 90 693 q 113 742 90 731 q 193 754 136 754 l 222 754 q 300 743 278 754 q 324 708 322 732 q 339 690 324 690 q 375 710 351 690 q 428 742 401 729 q 494 754 454 754 q 542 703 542 754 q 519 631 542 668 q 475 594 497 594 q 451 602 458 594 q 438 624 443 610 q 424 644 431 638 q 401 651 417 651 q 325 628 361 651 q 267 566 289 606 q 244 479 244 526 q 266 366 246 422 q 322 240 286 310 q 361 156 349 188 q 374 97 374 124 q 339 25 374 50 q 222 0 304 0 l 193 0 m 281 803 q 261 810 269 803 q 253 828 253 817 q 242 881 253 860 q 214 922 232 901 q 203 938 208 931 q 199 950 199 944 q 205 965 199 958 q 222 971 211 971 q 275 934 261 971 q 289 849 289 897 q 313 872 301 849 q 324 936 324 896 q 335 961 324 951 q 363 971 347 971 q 391 960 379 971 q 403 928 403 949 q 381 876 403 906 q 331 824 360 846 q 281 803 301 803 z "},"ŗ":{"ha":556,"x_min":42,"x_max":542,"o":"m 193 0 q 76 25 111 0 q 42 97 42 50 q 55 156 42 124 q 93 239 68 189 q 150 371 131 317 q 169 482 169 425 q 156 561 169 525 q 117 642 142 597 q 98 676 106 660 q 90 704 90 693 q 113 742 90 731 q 193 754 136 754 l 222 754 q 300 743 278 754 q 324 708 322 732 q 339 690 324 690 q 375 710 351 690 q 428 742 401 729 q 494 754 454 754 q 542 703 542 754 q 519 631 542 668 q 475 594 497 594 q 451 602 458 594 q 438 624 443 610 q 424 644 431 638 q 401 651 417 651 q 325 628 361 651 q 267 566 289 606 q 244 479 244 526 q 266 366 246 422 q 322 240 286 310 q 361 156 349 188 q 374 97 374 124 q 339 25 374 50 q 222 0 304 0 l 193 0 m 185 -268 q 156 -236 156 -268 q 163 -193 156 -217 q 169 -162 164 -189 q 174 -86 174 -136 q 183 -60 174 -69 q 206 -51 192 -51 q 243 -67 226 -51 q 260 -106 260 -82 q 236 -212 260 -156 q 185 -268 213 -268 z "},"s":{"ha":615,"x_min":21,"x_max":594,"o":"m 329 0 q 181 31 251 0 q 65 123 110 61 q 21 272 21 185 q 38 333 21 314 q 85 358 56 353 q 164 364 114 364 q 181 356 174 364 q 197 333 188 349 q 237 285 215 303 q 304 268 258 268 q 366 287 344 268 q 388 331 388 306 q 359 386 388 365 q 269 432 331 407 q 181 474 215 454 q 123 526 147 493 q 99 610 99 560 q 165 719 99 683 q 331 754 232 754 q 457 724 400 754 q 514 635 514 694 q 500 567 514 589 q 446 544 486 544 q 381 553 403 544 q 358 592 358 563 q 353 632 358 621 q 332 643 347 643 q 288 622 303 643 q 272 574 272 601 q 307 497 272 528 q 417 422 342 465 q 510 363 475 389 q 570 300 546 338 q 594 214 594 263 q 558 97 594 146 q 460 24 521 49 q 329 0 400 0 z "},"ś":{"ha":615,"x_min":21,"x_max":594,"o":"m 329 0 q 181 31 251 0 q 65 123 110 61 q 21 272 21 185 q 38 333 21 314 q 85 358 56 353 q 164 364 114 364 q 181 356 174 364 q 197 333 188 349 q 237 285 215 303 q 304 268 258 268 q 366 287 344 268 q 388 331 388 306 q 359 386 388 365 q 269 432 331 407 q 181 474 215 454 q 123 526 147 493 q 99 610 99 560 q 165 719 99 683 q 331 754 232 754 q 457 724 400 754 q 514 635 514 694 q 500 567 514 589 q 446 544 486 544 q 381 553 403 544 q 358 592 358 563 q 353 632 358 621 q 332 643 347 643 q 288 622 303 643 q 272 574 272 601 q 307 497 272 528 q 417 422 342 465 q 510 363 475 389 q 570 300 546 338 q 594 214 594 263 q 558 97 594 146 q 460 24 521 49 q 329 0 400 0 m 299 803 q 282 809 289 803 q 275 822 275 815 q 280 843 275 835 q 297 867 285 851 q 342 944 329 901 q 375 971 350 971 q 403 959 392 971 q 415 929 415 947 q 394 877 415 907 q 344 825 372 847 q 299 803 315 803 z "},"š":{"ha":615,"x_min":21,"x_max":594,"o":"m 329 0 q 181 31 251 0 q 65 123 110 61 q 21 272 21 185 q 38 333 21 314 q 85 358 56 353 q 164 364 114 364 q 181 356 174 364 q 197 333 188 349 q 237 285 215 303 q 304 268 258 268 q 366 287 344 268 q 388 331 388 306 q 359 386 388 365 q 269 432 331 407 q 181 474 215 454 q 123 526 147 493 q 99 610 99 560 q 165 719 99 683 q 331 754 232 754 q 457 724 400 754 q 514 635 514 694 q 500 567 514 589 q 446 544 486 544 q 381 553 403 544 q 358 592 358 563 q 353 632 358 621 q 332 643 347 643 q 288 622 303 643 q 272 574 272 601 q 307 497 272 528 q 417 422 342 465 q 510 363 475 389 q 570 300 546 338 q 594 214 594 263 q 558 97 594 146 q 460 24 521 49 q 329 0 400 0 m 331 803 q 311 810 319 803 q 303 828 303 817 q 292 881 303 860 q 264 922 282 901 q 253 938 258 931 q 249 950 249 944 q 255 965 249 958 q 272 971 261 971 q 325 934 311 971 q 339 849 339 897 q 363 872 351 849 q 374 936 374 896 q 385 961 374 951 q 413 971 397 971 q 441 960 429 971 q 453 928 453 949 q 431 876 453 906 q 381 824 410 846 q 331 803 351 803 z "},"ş":{"ha":615,"x_min":21,"x_max":594,"o":"m 318 0 q 290 -25 303 -10 q 278 -57 278 -40 q 367 -74 338 -57 q 396 -119 396 -92 q 363 -174 396 -150 q 278 -199 329 -199 q 244 -188 257 -199 q 232 -164 232 -178 q 244 -140 232 -150 q 278 -129 256 -129 q 306 -131 293 -129 q 329 -132 318 -132 q 356 -115 356 -132 q 335 -92 356 -103 q 278 -82 314 -82 q 244 -54 244 -82 q 297 1 244 -29 q 162 40 225 7 q 60 131 99 72 q 21 272 21 190 q 38 333 21 314 q 85 358 56 353 q 164 364 114 364 q 181 356 174 364 q 197 333 188 349 q 237 285 215 303 q 304 268 258 268 q 366 287 344 268 q 388 331 388 306 q 359 386 388 365 q 269 432 331 407 q 181 474 215 454 q 123 526 147 493 q 99 610 99 560 q 165 719 99 683 q 331 754 232 754 q 457 724 400 754 q 514 635 514 694 q 500 567 514 589 q 446 544 486 544 q 381 553 403 544 q 358 592 358 563 q 353 632 358 621 q 332 643 347 643 q 288 622 303 643 q 272 574 272 601 q 307 497 272 528 q 417 422 342 465 q 510 363 475 389 q 570 300 546 338 q 594 214 594 263 q 558 97 594 146 q 460 24 521 49 q 329 0 400 0 l 318 0 z "},"ș":{"ha":615,"x_min":21,"x_max":594,"o":"m 329 0 q 181 31 251 0 q 65 123 110 61 q 21 272 21 185 q 38 333 21 314 q 85 358 56 353 q 164 364 114 364 q 181 356 174 364 q 197 333 188 349 q 237 285 215 303 q 304 268 258 268 q 366 287 344 268 q 388 331 388 306 q 359 386 388 365 q 269 432 331 407 q 181 474 215 454 q 123 526 147 493 q 99 610 99 560 q 165 719 99 683 q 331 754 232 754 q 457 724 400 754 q 514 635 514 694 q 500 567 514 589 q 446 544 486 544 q 381 553 403 544 q 358 592 358 563 q 353 632 358 621 q 332 643 347 643 q 288 622 303 643 q 272 574 272 601 q 307 497 272 528 q 417 422 342 465 q 510 363 475 389 q 570 300 546 338 q 594 214 594 263 q 558 97 594 146 q 460 24 521 49 q 329 0 400 0 m 285 -282 q 256 -250 256 -282 q 263 -207 256 -231 q 269 -176 264 -203 q 274 -100 274 -150 q 283 -74 274 -83 q 306 -65 292 -65 q 343 -81 326 -65 q 360 -119 360 -96 q 336 -226 360 -169 q 285 -282 313 -282 z "},"ß":{"ha":608,"x_min":21,"x_max":588,"o":"m 149 0 q 50 24 79 0 q 21 96 21 49 q 32 155 21 122 q 65 240 43 188 q 113 367 96 313 q 131 479 131 422 l 131 542 q 174 690 131 631 q 294 750 218 750 l 411 750 q 478 724 457 750 q 499 656 499 699 q 472 551 499 603 q 393 472 444 500 q 493 433 449 472 q 563 333 538 394 q 588 208 588 272 q 538 60 588 119 q 386 0 488 0 q 309 39 332 0 q 286 126 286 78 q 305 208 286 183 q 346 233 324 233 q 428 258 401 233 q 456 322 456 283 q 424 404 456 367 q 346 442 392 442 q 299 472 299 442 q 328 501 299 501 q 385 525 361 501 q 408 576 408 549 q 391 615 408 600 q 336 631 374 631 q 278 618 296 631 q 252 568 260 606 q 244 450 244 531 q 242 146 244 238 q 231 27 239 54 q 204 0 222 0 l 149 0 z "},"t":{"ha":533,"x_min":14,"x_max":519,"o":"m 251 0 q 135 33 169 1 q 101 125 101 64 q 114 201 101 160 q 153 307 126 242 q 209 468 189 397 q 229 613 229 539 l 229 615 q 189 683 224 683 q 160 676 176 683 q 126 658 143 668 q 90 640 108 649 q 57 632 71 632 q 26 658 39 632 q 14 710 14 683 q 25 744 14 731 q 57 758 36 758 q 97 751 69 758 q 163 742 146 742 q 191 748 182 742 q 200 769 200 754 l 197 788 l 183 828 q 172 863 182 833 q 163 911 163 893 q 182 960 163 944 q 251 975 201 975 l 283 975 q 351 958 332 974 q 371 911 371 943 q 361 863 371 893 q 350 828 351 833 l 336 788 l 333 769 q 342 748 333 754 q 371 742 351 742 q 436 751 388 742 q 476 758 464 758 q 508 744 497 758 q 519 710 519 731 q 507 658 519 683 q 476 632 494 632 q 444 640 463 632 q 407 658 425 649 q 374 676 390 668 q 344 683 357 683 q 304 615 310 683 l 304 613 q 324 470 304 539 q 382 307 344 401 q 422 196 410 233 q 433 125 433 158 q 399 33 433 64 q 283 0 365 1 l 251 0 z "},"ť":{"ha":533,"x_min":14,"x_max":526,"o":"m 251 0 q 135 33 169 1 q 101 125 101 64 q 114 201 101 160 q 153 307 126 242 q 209 468 189 397 q 229 613 229 539 l 229 615 q 189 683 224 683 q 160 676 176 683 q 126 658 143 668 q 90 640 108 649 q 57 632 71 632 q 26 658 39 632 q 14 710 14 683 q 25 744 14 731 q 57 758 36 758 q 97 751 69 758 q 163 742 146 742 q 191 748 182 742 q 200 769 200 754 l 197 788 l 183 828 q 172 863 182 833 q 163 911 163 893 q 182 960 163 944 q 251 975 201 975 l 283 975 q 351 958 332 974 q 371 911 371 943 q 361 863 371 893 q 350 828 351 833 l 336 788 l 333 769 q 342 748 333 754 q 371 742 351 742 q 436 751 388 742 q 476 758 464 758 q 508 744 497 758 q 519 710 519 731 q 507 658 519 683 q 476 632 494 632 q 444 640 463 632 q 407 658 425 649 q 374 676 390 668 q 344 683 357 683 q 304 615 310 683 l 304 613 q 324 470 304 539 q 382 307 344 401 q 422 196 410 233 q 433 125 433 158 q 399 33 433 64 q 283 0 365 1 l 251 0 m 460 803 q 433 828 433 803 q 439 861 433 839 q 450 944 450 894 q 458 964 450 957 q 478 971 465 971 q 511 959 496 971 q 526 929 526 947 q 506 847 526 890 q 460 803 485 803 z "},"ţ":{"ha":533,"x_min":14,"x_max":519,"o":"m 251 0 q 135 33 169 1 q 101 125 101 64 q 114 201 101 160 q 153 307 126 242 q 209 468 189 397 q 229 613 229 539 l 229 615 q 189 683 224 683 q 160 676 176 683 q 126 658 143 668 q 90 640 108 649 q 57 632 71 632 q 26 658 39 632 q 14 710 14 683 q 25 744 14 731 q 57 758 36 758 q 97 751 69 758 q 163 742 146 742 q 191 748 182 742 q 200 769 200 754 l 197 788 l 183 828 q 172 863 182 833 q 163 911 163 893 q 182 960 163 944 q 251 975 201 975 l 283 975 q 351 958 332 974 q 371 911 371 943 q 361 863 371 893 q 350 828 351 833 l 336 788 l 333 769 q 342 748 333 754 q 371 742 351 742 q 436 751 388 742 q 476 758 464 758 q 508 744 497 758 q 519 710 519 731 q 507 658 519 683 q 476 632 494 632 q 444 640 463 632 q 407 658 425 649 q 374 676 390 668 q 344 683 357 683 q 304 615 310 683 l 304 613 q 324 470 304 539 q 382 307 344 401 q 422 196 410 233 q 433 125 433 158 q 399 33 433 64 q 283 0 365 1 l 279 0 q 250 -26 264 -10 q 236 -58 236 -42 q 325 -76 296 -58 q 354 -121 354 -93 q 321 -176 354 -151 q 236 -200 288 -200 q 203 -190 215 -200 q 190 -165 190 -179 q 202 -141 190 -151 q 236 -131 214 -131 q 264 -132 251 -131 q 288 -133 276 -133 q 314 -117 314 -133 q 293 -94 314 -104 q 236 -83 272 -83 q 203 -56 203 -83 q 219 -26 203 -42 q 256 0 235 -11 l 251 0 z "},"ț":{"ha":533,"x_min":14,"x_max":519,"o":"m 251 0 q 135 33 169 1 q 101 125 101 64 q 114 201 101 160 q 153 307 126 242 q 209 468 189 397 q 229 613 229 539 l 229 615 q 189 683 224 683 q 160 676 176 683 q 126 658 143 668 q 90 640 108 649 q 57 632 71 632 q 26 658 39 632 q 14 710 14 683 q 25 744 14 731 q 57 758 36 758 q 97 751 69 758 q 163 742 146 742 q 191 748 182 742 q 200 769 200 754 l 197 788 l 183 828 q 172 863 182 833 q 163 911 163 893 q 182 960 163 944 q 251 975 201 975 l 283 975 q 351 958 332 974 q 371 911 371 943 q 361 863 371 893 q 350 828 351 833 l 336 788 l 333 769 q 342 748 333 754 q 371 742 351 742 q 436 751 388 742 q 476 758 464 758 q 508 744 497 758 q 519 710 519 731 q 507 658 519 683 q 476 632 494 632 q 444 640 463 632 q 407 658 425 649 q 374 676 390 668 q 344 683 357 683 q 304 615 310 683 l 304 613 q 324 470 304 539 q 382 307 344 401 q 422 196 410 233 q 433 125 433 158 q 399 33 433 64 q 283 0 365 1 l 251 0 m 243 -283 q 214 -251 214 -283 q 221 -208 214 -232 q 227 -178 222 -204 q 232 -101 232 -151 q 241 -76 232 -85 q 264 -67 250 -67 q 301 -82 285 -67 q 318 -121 318 -97 q 294 -227 318 -171 q 243 -283 271 -283 z "}}}
